<mxfile host="app.diagrams.net" modified="2021-10-21T16:43:17.611Z" agent="5.0 (Macintosh; Intel Mac OS X 10_15_7) AppleWebKit/605.1.15 (KHTML, like Gecko) Version/14.1.2 Safari/605.1.15" etag="joaLZqGB0NimFJZADa_e" version="15.5.6" type="github">
  <diagram id="g4YSNizEPkf6FN5nH-Vc" name="Page-1">
    <mxGraphModel dx="474" dy="326" grid="1" gridSize="10" guides="1" tooltips="1" connect="1" arrows="1" fold="1" page="1" pageScale="1" pageWidth="827" pageHeight="1169" math="0" shadow="0">
      <root>
        <mxCell id="0" />
        <mxCell id="1" parent="0" />
        <mxCell id="QCEu3e3ZRH2YqGN6N_Fb-1" value="" style="shape=image;imageAspect=0;aspect=fixed;verticalLabelPosition=bottom;verticalAlign=top;image=data:image/webp,UklGRm5uAQBXRUJQVlA4IGJuAQCQEwKdASqQAZABAAAAJSYN0Pg9r79UxbZmLqFFJo7M3K17uv9Pu5lKGWEo3VSBAJSMId08hPkfqj9C/d/8x/lf73/9/9d8mv+f/qPyA6Relv+j/ofyV9xjzj9S/yP93/0n/U/wP////P3f/1f/n/3fuM/q3+d/7P52fQD/I/5x/h/7b/iv+7/gf///+vwh/0f2i9y3+D/3f5e/AT+qf4n/w/5r9/PmB/5n/u/4vul/uP/E/9H+7/33yB/zr+5/9T9uf/N84P/u///uUfvR///cH/ar/z+zt/yf/T/tP95/9vpE/sH+s/7n+a/2H/z/3f2Ffz/+y/7/9pP/Z+/////AD/1e1r/AP+l///c+/gH76cD7uz+0/kJ+1/9C9g/xj5B+sf2v/Jf3T+4f73/NfWX8k/1v9+/drxHehfsP+q/wX+p/5X9/+Af459gPsf9w/yH+F/uH/N/0fxP/uf7/+3n+d/dD2F+Dn9V/hf3O/1X7S/YL+Mfyb+u/3D/Gf4D+6/9b/RfQj8t/0f9f3EGsf4//n/6T2BfYb6D/jv7n/mP9b/fP269oX/L/zf7dfv/8h/p393/5X+Q/d//Z/YD/Iv5v/hf7p/kv9R/ff/p/pPrD/Yf+nxFPtP+l/+X+q+AH+e/2P/X/4v/Rf9X/Lf///t/jL/U/9f/V/7T/w/5//5f8H4ffSn/O/z/+o/7H+U//P++/QT+Xf0n/I/3r/Mf7b/B//X/d/ef/7/9r8A/2+/8P+3/3n/v+kD9Y/9r+cX7///BaV3YD4Gb9+a5H3sZm/bYdp5QT0vDyzW7xLDcxVps7L+O6Z0H7et9Deh3P7aXayx69IO/62n/mi67hcGUmbmcbMxAhSLpT92HxuVo3yvKK+3bQ/gezpG08u+MKadreCco9hvC/5HoWQlNV1r8ayZP7oJQ3r7dx/XZg+liXd9H9Czy0xIN5yYT4kRGeGblBn2/MymleRSbe9j+xuL54nYKkBAbOFjX0yOIhHy0GUuqtvMjisf5ZNrSXmlLcoD2kfnoJ51tzZEX12zy5cj8dlwV9DeiF6w1BuE6MGOzADmyIDri1sI6OzzZuyplu174DyRdMS44jZn8R4t4nbDb5knam/p6p8H0LcTrDEHuc5d9K/DYvw/9LLwrNJ0pGMh1I7fKcGa+yQZ8NbqUn+VSl2Jy8il3fzEDdHRqdbTtYg+IhRLjZ98GPxemDRhE33adQDTH2T3N423+1MLxwzJMgsJJhP7++pluWvth7x8aUSv+BRxFRTpQ82yJikuSMq6sSkmcYyaQj/ik33X75FY695bkXdKf4YcuZdZMjx3lxzkNlwknHNYCHxLc+V7qWe2dotewdmyl0nnhR1OibmzfkoRvAzi926u4QWXov/2kPW9nPzxalve2u5din7gN2EnzlY26h1tRCyj48X/t8ofdpqedZ7br1JL6WQEdRkrrPPRJr7w/SU0s1QgRpzIwT0ImFLpt11kGEprthXprkIt0kaBKRj684SY/YAvcL2XMD6kks2gspCSsmJOsPY9AK5PWqwRMMviB4TXxo7GKylC+7TRzniDc4Zdhj+rlEVH1xZhl18N0g/Hk+ZeZ54FX1VUfOEJC+P4x1cliJWn/YbMr1uBVFatfWKBWVwTUs7k4IqEP6IxRT01feCfAiK93dSSSF8tEsl8PRq21P/YFAtQGksCzuQvO2ZBxuemMRMoKlLXzftSbelQhC33hQ3gsGny3ekB9nGmDRFFzABcYC+lnkFkntvbqTaxzmVahhVLOg1JT3VYes7Z/a69ZEWaseaffQWuukpvYZj5EZQs3D7DYtPtLUVkKZSmyjXbWet+nCEXpyA48YdYiLMpTsxLM2sZXhYLovD1nB8INulTFW0AGV3jTGnu26hP+HYTa7aFhr5PbrJxTth3d5FKHymS1y4zVqWa2NDwN0AXhziPJwE4lwhHAYPP36zX3RYZ8dNiwT+RkGpoDaKKdqxahSN5HGlnhC1pryGji2rH6rgUmBd6qcakjB+PaUEcae5MXySx7UUCazA5zJ5T7beDe61uhXE0Si26sej7Iv1ccGb0tIV5u8oP/pIhZOdvjnMngCuhqdTRgFh1C4ZjWXFlhNxSvtcxn5kbUApvqES8aZrjO1nP5HBd1o4+N5frE33otKEIJ4YTdYiq8H5E+ZE7zCq6GHvVuWz1Fg1/lBg0HUS9A4Q76vAZKbOJFSLYj9f7bqddrvsg/JLkRXw3fCSmZBgLrvELTRyGZhlvtDkKDC+NuA9Ej7Yl96pZwY2IgX/b3bq4M9HxQQcHeeWcNy6jfjC+m0EsnuDpwuyMgna+52wRsttr0QiY6rXs1UEoI2vOLO52bAFlzJlsZIfpeAwcK1XODoTsQjRvxt2nzfA3HkJnuikReX79R2FmlBv881WbvPHD0ved/GZPKcpAZWOXZSj63dy/N+KipbpHRH31UBbxZ0eiyyCxuZmZRiQqYCsor5LXUHm6oA0Df/qvnRtCLLSvWE0hnNyyo9kyMuNmmEyYrOvBKZLo4dvwRpUUQj4+kxvt6etgt8mnzJ2WY3JQTzx5wcBRlzmZ1gsv+Pkx4KFkABAb+c+25o0Zn1nzieJ8CPHOczJfLQKQq99orRa5+SLAUJ415ELD/Pc0eOzr8lVTXpsWPd5gkSZ7a8P/m4bzuBOltU9bXPvoWXrVPlfmqyACHjZ3vcfbH3BAs0resleOtub3TeK554+8niedzSE/kGkooZWdi0nl36jth2mtyTCwlpuwoCOYbvjuAPm5E7hW99/d7X119aoalMxVbO7vi8eOSLntPZCbBXqn6W0HF0NrpouVgOkPFykVL5Tj9Hcqiv/Dbq2tYEFtUVtkBrJplnfYCNf50F/ZhB8nbL6kp021RHM5uLzjml+dGlfFYOlRBKTjRR1aWsmZAX4fg9BehrgzMpuExdUH8VXoMWcBDyyYvg315cm5hR3/JfkIrdAwrXviuXxh247Hc5V6Gd5V9DF8gZdwzG6T2dw7vur7P0vy4TGFR2bH9UT0i/+O9rGKTsOx3UCvF7BrM2qy3eP7IF80RyDmOxxpsAxbr4RrNYaciJec4TZiohld/PMrDAijn6590goj56RXMyQlV/99JJoX3SQcYhGQ0GUXySq+/Hffs9aYP2gM5FNc1D6j+FEhY8X+hIkD1FpENzfwuheeDSDhiIJorLZMmmb1+mW+u+UlK60a1BfoPaSx94TUjP1fPVBII9KMb6Pxc2h7LXEWZO0QbxP30VeLZbi967fVu2/uEY1IZM059xGa5KnYNSgNQmhXbQwwuXaafuau0fbflnxSXjigkVBtSsooK8OnGiCpwlhz/svXuk+ZUrGwqFEJoOxkUeDhYDb6Bg5PIdeT46GeiC8D8A0lN8qu7vKbwhFnN93Kf2lhggZV0oyOmDVfYiq1mKJcO1Pze41j8sqMTlp0BuxOauPf0WWlP71bJMhbT9pFgvg5rUQtWiQW5ii0FXe4em6f+9EP3oz5C9dptchc7AYJExsMK3vGf33cbRpnZVPH39dP9kQd4156B48VgBfApVeajjJsbKo3wMPaXg4m1WwqAcLNL1UnTJkPCXaq0GvmpUT8G0lQ8PLVTMGTfU/r8v4ShMpI5HOccaEEiXWlCfSYZsO71sRtn0rKgsY3+LH/hw8lQdQV1BEtHJrufGhhtOOd0HuoqEOZGMT3pFiVRwNSZLcCu3mLa1h+EdmoEJTMF+TvpboFAUi1MMKwem6Yvf3vfalg2wkTodV8IFW4KDk3gnW7ibkaKo55NzfyOySnLCXKDYnvG1g0UB1s1zmteb8c9DcPuIv3PsKVOXrEt9qbWZMNTht+kP2UHQ3YHTv73vsa2R5/7ku754OG+8R89Zmk/Djsv5UEc+2LSiDSnL8Hm3n/sGbfCkkCAD80p6lT082pXYJTA09upen9spwX3THDSpmNoiSKx0nw3SrVUwN+BuchBENa7vFkiZuyQdGaVKHGOYURXZvuNa43XNqt6XMYMwHUvBkBJl0DlNc9Rvrs1h8DloYUBrxYk1v/m3OS868XCA1TKQLo6W+wfOnKJQGbC/dEU32A0TeRN4MXx2/1E65NnccD4pBQTXayABchPXloWcU6EivLY1Ua4Np39B+kI50WykWRhfRh/QsSL2YkJ/IqrcwYI4PN7UWoQlzRajXlkDuFv54jVa0yBcgEf1Bmwdk+qRIqSrc5zI/CFhvt0ZF0oYFEQWbaHTsOFCEq6hbTC7TaNQz72MpA6uAnyBgCuTiEic0KP4FSHSZSzy/CpE+QcKE7ZoFKCydN6Jy8S/yW8b6l/FvKX77UnMD+62MQdLyNavzdZSX83hSzYF9ECLNZVFnrLz6hxC6hNy02hy66aWu5fhpn7UDyUJfUj5GGlq/cPxrvYgdB4Lr6NaX5lBgL81bsHGB0NxyX/88g5mj17a+CMfLypoB0F3TVpuacwVe3paMBbEDzZ+N4OYj4ednGYgQX3eB+byR7EEfelOhLq2tlBoGh9jjD41yyVut91xOF7kfMXnd4xkfJTnnUkb395OnlP2qHba9nQ9Rh8EbrkyPLkrOgjhMdJV+NMYDfP25MaTKZsSacXmE0kiKVrlx1unemMTjKCESDp8iC7RL9b9T2P4iIto228/6mCrLPGxbMEteLFUFKan0v6K4F6R69Fm8CraPpv2aJA8x7BTmR0SeGrJe0SqmuUjbP0YuTYvnYfANYlUhwfXVFFjePq2Pu0n4l55fkAUOkYAa9BsQJ4VN5pe2pF47TpUxod8Cqr8lymT9i6qI6K3AeQtNAmGIBRwhMETXskr9nJij3JJfzW3hFK8xgNxTnyjE0hJcBfVnoI5YOm0oUobfaGHUrcMA+prHvqU9QGUrDan8k/zwsvHEpMW/hPaptqSo/NvgC5iHvw1IV7McpWXJ2+HZlPCOXwdSB8FMwLXe7Tdz7g+V6/P3a6D3p9QIDpufZqlFKq4dQCYXc24tec4ZxC7Dp2zLXQkCjU7swj9rJYmYz885wZ8owdez62hwqctDcVZWo3ttbXnW5bJCdwYXLwMmAg8sD8qXS3IZ8ChHN4b/tSrsqcAhfEan9kNk//BjTUyZBc9poh0h5pRybZ24M+7WnrVtYBzWOAB4EJgEqwfI/lbZbCJl2mAIUzeGEZa01fTS3mR+AxIdqgb8DBStUJr49/+7vFRfYYJ7zd4EWxoEqDuPEb6OBSKXcsJ0wiA+4b9eHHTcJ49u4/IUg3Wr1LMkB9chGo7kKPRBvy/y5fLSStN6NJqA7b/gAJRNRwZrutvQaydV0gbyuYNAYdrPMVGiEiem2rIu72/r3/rbgAhtSjHVKgMlf7AKNsqYCTMoHbZZO1XrWu22/d5mWmAobZuQIi6T3KAOLedmOVjSDVdQK0kyQ9pV66GZdqIQ/Zrk2n6HQUXK3/pZuvUCPnOPfWv1U6g3e01itfsP8WSDz/WLNk/DR3MBk4Kuw5hsXoECF80SjsakEFWTm+5vgeg3Xv/a79yNJQ2J0txxmTsYCR3iwJXU58ZBzGMjqYTxFlsdoe/S+8HjESGpMNxFFhCsQNwZ8pOpdxxkEF2mrvU1KP1znkVpwXB8gQxMOb8cyjg+7Yo2B0N45V4dp2D1p8kvX6mMwDa0HunQsX1BmTNjnpGVV3p+enZHkHBUEkH+KI3gXI+2aT3x+aEIQbsp3x9wJ4DWRtW7BwOFXW4AP7/3yM1LupKp3DERm1dl1fafGqnV8W+ObQ+CcL3AcwIFE7Rp2SOpYyOFPndMphQtjtSxXHOv9XTLfSnqaOXNXYUoHWiJDnG3wF+txIP/oHAQPhAfiuPdfGFrC4cV//znkHOlmQw76VdUYEfcdPqeuKI2PnSlfGkxsTxI9IDTTFAUdwOjWa7qlgZ1lWkLkDBJAlL2XWSbeh+AGqSYv4pf/BrRhyAYcQGOnLEQBmtht8B0LQrqOlDJOXCSVat0IPYyET7knXg8URmcmuis/dNgDQSBGWCqAaDlHgee55ABpR44+eaU8xNu4b43Un4AtasvuFZqXCiW1pclBmfV43Qkpy3pH2IMxvtZ4GtchFQcIZgB1X7yHLUuVa/IKOVJ7oZU6AWo1VJR4qDirP9sdei+RKUrYgaCrnTdHn37H3ZcPepxj5GmAtXv6GqbRRbK2eAhlrw4gLPUK3B2GYDFV/TaSszJc0cVu+ZoQxRN1b9omgoXf8BUYKJ8eqYFk7vRvxS3JMl4SAxIZQA4GVB6J/lEFdEjyfPpEjgQ9jPIADbrzwYHCOW4sDtgs+KtZOgAiXFeak3eRSFisXBs8moVIuCapWAR+VgvBqhygw2CTtrixcn7oYLcsbosBEGtkcUTfrUxisMbJhkxkwuvAIFK07Wqno8puTKd4dAX6hnamVPEzA9s14hf1W6uJp0We/wzpGuZ0Zz1Wousuh09HHSDRNNsIqCqIHxZtaKlKWNeuaNyTUVA1WYhZSlOv7PrVd/HijGIYtQiLw9FvwwWrEN1HaJJRAioEv3/GAFYJVwQMYOEm2Iujuglxpm83PMwjvrCjkcOCLYxLJCXRTjUO4GPxL3fvFWgPt/N4cAyzO2YiLU7qwPWhMMMUrWAOL7KVpNRTP7elCYJB0ORObtLAHQ9fVyleEcwN+UqIhhzOGGH6Co7k/PI0s5UiOMRLQQXRbf+T3AnD6xqFhnm3T6xzCIaoVwS1OOw6fcQOjIunQ2Wv2wAtAIzA6v5NfT+BajGIw1hYpSFqRN12EA+seOpSGF0C9Y9+ux1HtuOWtASKzJC1eN4pKC/aPsggNG2TuKykkEFqvg1tpx9+rbiYbozAuNiGtgxFUBqYTbad47OQ4+/9/usKB/Snr+FSaUfoubEsn7gku/s41YeVm3IKdfLYlextoPuzjqBIfceAI2wQGqzPUMO5PLLniIhR89RGwYr54EjX/eTWOcBUTcXRsvSX4D2qOsNPO6E43LMbbkbbOvUmV8WCowuKswDJwcSLh467wW0IQzGTYZoWzHZ4jcqnjU1TWfKOL6E7zU4A5zstc986ptyqF3KiFrLSwb1L2XsolmQHb8eSxIZ9PPEOUTjF61WgycGDwGHihtB9f0dYstcGGay/tRBoNg/d0p3dIK1nWuvoWvX+Pq1EbDfjifuTLOjPDKt0aiTzbZ9KkTRE1V9fC+xYQFvBq/TcafG38YtGpPFHJvCaefroAAJsSntrEeNyjePheLQ6I5aUTPrLpA93WDSYNkvH4fF+CI7/tbnmKr+TtG+skzZlZXeLTT5zu/7gzz98apFzRPnbswzhmfgVMl32I0ASuDwFkhj9tbK5YrXzgoEG8zP3cJ5KC9Ygxl7gytox9k+chfUgGWL7YjCn9f8hFefEfIOk8V7dG6MVolgQ1mz+mFqogXDAwW0TC/QZJ6KIJxK8sZJpiUhy0MEZjae0ZuHg13adV0J2vlttmdSIBjCk2WeemaQU7IQoaKkqxhWxtYrq78zR9FQt+iL+LucK+ZemYXUTVqnKIyHuFevz7n6FrmXFQKB9zlAIp2MqQic/p5KJmDVMkGfS3KwyEv47xMu6NmbeJT0rRK91Y73uit2zrycmDgWlNg4/N6Qt4KxFPU1lN2ZZbg0QOKqgI46DACWS01iEM2L+4Jl65JzHkR5LlPuln7Vtbrg3RSKYGxLVSVV6LY7kCR1CjLUB3FHOZ4/Mw9j3qaaSsfa5Q+pdCTfWnTJ7/DmuYOLqjaxhi8PmkJp5H+jHe916tT4IILXtKx6yb5z62fc89X6hvZ9FTC5iJvQIg8S7WYmFPeB2QK7KbcF3y6PL9UPe6Qg/XAD2/CWkI7JbRbsQRa89iT1vrpWBEUI3OjbXY0rtZNhheO2OW0tAVk11xtb+dGROyXOIYimb7Br4qYgsttkz3E5ghNzi24zp9kREHrUrVcN5ldVMz1Xww8niOoIiTGhRVJY8OKttk19/tPJxqE5MznEeeCctzErOtHbGHKd0TwlvKnYozkf4C+5/0z7lyMeHWyrGJna5BKiWJbKFxzfXU1u5WZU17EtPBdS/m89OWxXOdaYdz0Y7yPzFnOGakzfY7albm1tyvJWC/pl8WsVNvkbCv15VKOM8QPdUi4S03glLqnrJBiTifVBa/a6VCco5NxlbVeCQYQmnpb8BGoh62Njqb0RevXPAbcuQC9xK7ykHSXt1j0TN3bxaTOqVp6WPRwjq3LJcvDCyHTwqvAcAWzyVoBc17mrYMi8KLQyDuxSyhrisn3eY7l1rQMwSk2IA1J2HDUPnZRHZxlYTMob8Hm9+5WJqD0xUiarkVsiNzKi8KOINzhlffw3Wcwi4bVW1Bd76vrorNhIwPOkFizzMfKstquuskKVsEBqqScQ9MvoV8DZ2IlloasSiTI0+3vYOYFW4Frybg50Dpbh6fLQZzDeVfv0Z+8SsUY2PTv7tE881ics0wWlcYZ1DvuxdtTkq1dRq7WyPkXt0c6NytKVhZ8mvsi2YyMoJMPHc2kcrL4Y6hdXPO1jTzGU0JGTlA/79bmdBZjd+nEBb9hcmvNcQ5C+x0ucMDL/eUcFYDa9nHsF2f5lynSQWar2qXE0oIK+91c4RhRlZmEMqHr/0eRsp4cYopnv4vf3e3dDt+c9oj+DXVKjBqafw7ZsHFBYjoW53A8Cu4iU8iACXNgFdowIlGSB+4IzA6gBBlIRTAQAkD0Cls12SH8btINYyRzL0A/+iNJd9cWDM0nBUOY5I6Pz8QNgyF6k51DN1UvvEW9aLfyBl/Vxb5DinxaSuGbhAt3iQpGho37rdpfqZdKsXqTY8rPHXg+mfSuGUBA5nMIAYOzY6TEg2+TeuPT6B1XoLnOTGBp5fmad7khViVjW3wEB+y55mJjp+JB/Fwv0VIgP6wz3cMwfOE/mZhP9tEOLJAuUN6nHALuMP6p4bx/ZdG4e5Z9GE39Q+cxMxjGSomV/SfsRC5Zcz00wASFBbHX0gPBFwsj0JUXD3LJpkBoJ8X53jcHwyPnVFr75LHM2bwsP6tV35oBMPYzbgG6VHzDuUAijs5mpJdsbrslpBhqf4HARzeunXgktJFPx/DSWnNq1/ZIJSUPxvVULRNDFUeahXkbCZRaExREPw+9DHavCGXjSYvn5nrVm6uPFPJ1bZtl3RW7q1JvsFRmUQ55NGUkDNe29S6ghpHSI9IJ1udaQBgx1lnrTiykOkV9fVJ55USRJHqBE43+202aadDFYYDu9Xgu3kB1NAx/hWe+JehF3PXS6k6oQ/N017np2N6zszH2my5FedaBkJRIm9NPzJouP5r8gb/fJbYlKSw8ClrYhUeqLGYhaeMNX/IsKRsKjBJQDbhEc1AocZ5iP6dFD+8GEX3ekpEeMScg0tedNLGDpzDH1E6B8475hU9huOF/Ag4cDILYwDDTJ0x4g/FL04878jR81BvuBqZgvPkNCMGD/uonhVDzwv2NfpD1oqVYk3iktEZ7B57kC7LPcVtlcmcCmLc48A6/Fdqa0ptDHjjtaSu5Yc5shV7oVl1n8vSFoWicp3w7ms+qokzYDNnamAsDawKFkyt5b22B6D4Ph9rqfWDsSP5zJBTipHZddO2OPYJC9KqJDRrInt+fQd2QD9qopTMOqq449xCkr4Z9wEexJ3Fg/pBv8XNvoPXshpFvaCKjR4lHMBVgRXlFaEbVg1ijkmhioTx1gMAzOEt1EBqfllK3yhetqm3ESk14QgNWTllV3uI3hwiRXaeBF5XLQCu08GW+IX2rTB0yQj6ibDtz7FhUSZG0D7lfgxoHlkBZ+Qw0rFfdUXh1Zd30RVbgP+gObGw8m0gKkI1yPiDyAYuW5f4aMh3kU+RxdCilAOQZc97yUCRCyGeaewZNmieqew2+s5nkZo34KNH4VagEPVkiIZ+TPVk5rI0vhN7vlMJ2VYmqZyaYae1y876YxtAriZZrc1PHIAUemiG929raPqDzGj0gpvgE29xWwy41rFjMTCsYvQjSG8BcZDieIczMPL/xk1cYZOHbCEoY8V7wGSS0+3+0KOlF3UxklzGihcJ982DBl7m9fkkIKLg8OR74FVcv4Joym70wkD4c6zV6tGKaA+ifX4WxhJIkXEB285lacWmyWClDC29hj9XIqw79o5APRXFWGXUknoSEBw5g0FyBMbUxlkuzoAmP0OZ9WJLn/uoCL6VhZeOBgr5eQaTurKPyyf6WE/6/2W1SfelbJVSEdHsbCRdAGUAlNaIjJRg4ODqzwhk4Q9+JQbvKm3DJepGVg+dAVyRBZMwjPE9mWBZ6D/ySQ3/BNjv9eVSuSpSQ+BbBezMMtlE1FGWC/xj6WWEviyUKbK+yfzSGGdWknPzc5tm86rXXUE6ux1L855JryP6c1UpsEmt3PO4oL01mXMDEnNUqr/T07GvG0MSP2CbU25glKlwiv6r22u+7WlGZ35daWYs6t3gz2PazYqsWGmn1BGAtZ8G4I7+N0WfOJMcS7RY+CbL/J2IsMrNTgr4OtO01IX/Ok/ndSyOMhESdmMlBm9nohzI0SYsLSPIyeFFckGyrZ49rFnSFX2AEr898tMBRokKnJmMTrvch4R/3WTTYiYF5++eJFjNl9G94kfzIaF9iNwQOtUVwhHvekVcPCZauDAj6UOLMT0tAJWI0iAYgS3/3I6tOimYzHs2/EujnKMwlrYcBcpHl6GgBWEet0cF+8KcYlX23L/+VSCgrDzSQiQZqxzJarH7QwqlM11/DTGBiTqrdnMQq2+x3KsDJ7l3D7OFwt6dLfwQVvkcHkF5ZUpH0H0qlohB6GtvS5hYcZbKGdl60M8S4nnWgFcTBW6wdLTy6E7HW/eJacNVaRs1Gj/s1bGCxgeInfQdeTvRMn4y/WZW+wJVNa+wwL0HAPrhLrROo388jfYuJ29l6+aQaKohWu+l/IiIfdD7eqC48Qgm2LBXP+zEo9gzwQwcsCYWsCiEaoE1UxzViPoTFFK1PPXyWJfepnWfibq68YvfkeaGp8LxqwXkGyUzsFrbYEFjJJAvrKLn+dcYnbdT8BmX1B4SbC6CzZJtJCqvilncm9VFxptpHGI+NETzzl/lVvJOZSsMzZmFw0H2G91Un5ZZYxAFgWC7LJmdQhGQm1CaMqwM+FQycuQyBbk4mR70Qc6mR7wkPgsdxlxgbGG3vcR6V0qxUuziq2W+PFIRU71KbuzhKv9KIgt7Twl3oBGs7xN+1Ap2NxZNoKksd+V6NLCwz+Y1y2EDsJa5WKApqxZq+DWqTKZ4+OYnDMAIjvaig9tvrASjUyDa//b2b+6WpwkRwI8f7YilFMizsrAoaM0qcB7yPLK5FiBTWzcIMSLX/vfVQOcrcCYOHbJZZN15u54Ued1Nv5/zSgrZ2OqTeq3criYRNhUfR6KI9hGO9iU2yR0dpVspkq+UQYRQuBkMyZmgrVwsvccFdVKAcDTRNcxXf7vPY/QkNG3SDN0k2erQheTLv68cUgrGB+sds+fgRA0j3DA5LODdX99c8hve5ghWwkAULUuIzOpxz3vpsELDdIfUuDgm42iZtvx/FVj8t5BKNgaGhdJqE5pm1LdN7wWyiLrXGla4yVOeWEDb1fLH7WjVR4weUCbz2XEOxefsZJ72ukkcCfWukMZVXFTyZRkAX52CvD4o2hmbdYkHS4x/6ToJc+8ofN1CFUgEnenMxy/0BmA1FkssgFj/Rwz7q5OmLK9Bq65d+fS13cNem2VQmB/qWLycwtjbvQLXGlIvLkXOmXEW0MWAhFlcB7pNi8wEjtq6ZDRfQ+ebuav8w9aF3mgf3usXsN22tZl6qfunZua1ON+NB/y+FXHo4XCUDSWUr1V8O4IwfNObaFQ9lXYwDTFNEyX/xJHZGvLMC8Air086c6ZM4Exf5b6MvQBqdsRJAny7D/HYnNNPO7GEqNrkxUVXJx5tIKSSNsyIEq3eKhQWGpKq2SIfEIOYZemYz+cvFxZXPYgNxZkj8NczwKBIYmkzKcU43TKcnJ8rXR3H38WlanZ98j+VIBCC7NZXXHGdXYwaWadG1YyUR03BPtUEAQATpCyRSypdqyTsHj5sdmihjZgj5kKUFIUsWg1xAgzGTFDzcByDIHSpcXqwaXc+h9zHzJGoDqKqF2C1c/ACA0kYw/FQbouNFMVa58ef5ddbQ7lPKq481UNM/OFSqAAojotlY3YxpPCgQSb6U5Fy/qr06fFLxSCyQYPDNwMnufNLZGZamhBhUnU1HVUuxVI6KZRYkzlQE2Wak+W6nC9Ec9U2IrAiLSifk/KLk4BoOX+MwC15J4CAEXJ9HI4pCjQOx71mxyuBJzWwha2Bp69VbJ34nsgzPn6FQ9FtShPQAk1CN6TzphHkJ/wI6OAYfeeAe2hRlIoiTwzAtrrWf1PbCGDD1Y9ZI6/J15pkPHsoOYdACMzjQHNLLfZpRLgaGvmJNfAxtBn909RLIamLSLk768tAmefsiYFH+FxqvSsXik8ZtGFwkaeAhoxa4idlrYYnQhQKvHb3DsZ9okOGMGT8Id4TKT7F1D/cFOh0RNIjoHgSnorgCnpQzcHcRw3AIdyhdkwc2DCKTVCVfeNFAbw2HXNWcRVJPC4LtUKQBj+vrjwlkRI467X0PG95sDkocNTpBwWe3h/I5n1d/oije55FTl6DqpNjIaxwYvFB9hlUNA52ChcS9gHRZmLOwb/hPLrCg1G4rU+vGUfjvwuvvcYJRtP/srdS7fDpRCO0BTmqimtOd0AZu9smM7RPFIznLwG2QqZPCJwTZlSPo0xZT6hr7gVYEYcOxTKdFazGU/rQOSmhSNx4etu+gnYrGjITnfHD9jhLijxEvuR7HXbktDLwb9uswjWyssWRd7sF+KsZ4g0Hhh9ikPt40KaFHRI/XLHbWXcW6A5bytFF/pIZAmM8IDc0aldgxG/6I8X8Kl+PIyg6hCO0qQsmZL2FfojgXfoKt8txFm18sm2En49z0Gz8S1UWQRIVmh9D5Id9kmu6cnUEd6pJu19sE0X6T3AS8SfmKvVxv5eI/ExHRDY5IJK7mQZ5CxroIoXAfCAV1rpVqKbx5xM10YBE/PMT4Xzz40J9Ghxw/Q8t+K+Sh7CKL5XYlBi2BBx6haUSCBVxAhFKx1OPPeXpWVm96gY/yuNC8kJP0j75wM+q9XEH1xYUpv0NP0TaZP5eY3vSVLs6LNIO8iXlpzzdXEjbcvvGLDQglHPOy43vYpP8Evv3Kkzwco7HEwNl1relmZaGhATL8ui34s5wDa8hcqa5J6aXtrJEHOmRI/jDaJmHZg9xbJktcMC+XtYlLHNbV7iKVuASG6/LrBsUuHLEghYazTIXzTCNSzrkCOcjna40HMSB0oqt9VEhozAseM5sj8SvtNswAS62mr4jsExEN14PWe4O7thwkU3cS3uhV7khhN9TyBCK9/q07dCEVV1Q9uIjGbzivUV62G++eAcoNbGgimglH/u/i36/6bKVFhkOmK1pLNFjwcWvd0vLcs4O3fwe2zAh/xWai+b0OBsMrLU1CfLrrQu4vyKCWvQe/qr5s+sRW9A34xlqOfDSnaxI4GnyrcwO2VDCrps7Jngv8oGPgN2zNEU3zr1FRmcnMg3KXHYrOSN+TpB3pYkTeF4fNRuDItqPjrp6cdm6ruhCZcDBf7XG+sffcLvOh7xm4AtbDLoRFzZ6AqqO2NPDknQtOGJIx56yJTECd6x+T17EjTgL11kPkAym4Y+84g5GhEg1LX6//bZy8eQZvGSirL0Kd4233OKDl/7Fk99RZmdUhvFt8s0s6c+r3fajsrf7brGSYHbHpHqEAxQfPAUQV+ZzpVcDBjUc8Vt23DXC/4d6R1JdkjLZWThQseyXk/3OTt5tB/8fWij1SYDm/8iJ2ixWlNbNGYLYJxbIysvGs5XgOOK8SBx/CyIc/AlI95/0nzSW1WuPxnKVDzdNCyxersQBGqrxTBuhP4PKbJ5P4GPQY31fUZAKmS+5fS4WTJ7eYKFECYRIaLiNkVxNtzQ25GMH/kpWavy6G7OzRmXk7lpwB1lHzib0iRmr/NpsED93HZVHY35/HPfC13Oiv2lc2Nh4pedFjxFncsrYMzx7JBGbMRWfLZVOs21UIH83HWmxl1PwRz993hs9xkhSznIXLo4tgpEmDLQJYxjafBBkr3XBU6Xie2tijV4xhJanyVSjtEoCchL1mr1A3xeqRcy15Q75GF4kam0Cjt2qDuNoNoKCugaY8lHq5MGj6soukn+RneBFkbLzQje4/t3q+UxFqJu3KFFbcD2kvfjBYyUbzt/p0GokhF0ngx4WVMNtRS5Qjh22KZRs+nc8CIJSpq1IRQ/Zj/IQRzW7NwVH39BOYG5y7+NG1RBvDSlay9kc+RUy1dvWtSX6LtVoVtvNBdGu3CvewHMrv+Eti9ZxITZOjl56zzz4iFfy8aJAhEkKIh/bNld8krhYxasqgmtW6HxMHfcEUsCs3rCI8NwZ7TWprzoTboDN26z9b7Zd6rTa4DJBHvUkrYZTSbPPZBlAolJNucJ1AyWrIaSv8lQp83mZj6WVIuSHZrZcMFYGY0+eBvu48ST2SSnmSt9ouqSGKc8SJ9w8GHL2oCpkEcJRbHHSjHoHpAxcj1rCvWqQuI/9KCqEwPOz/8cl24zGvY4To0tfFm6uK+ppCjt0HU6m2CoLY36D3/gy9KJxTAcVMEV75nhlWFPJiQrdpski5FE/Axr6gMYZuj0Alx0nSZbxzNS9MoLQjUyi743qZ1kpwHZAArQej4nl+A2SgxXpeqR2kSC8Yvi0x+Cm81262FwmdRm1gmL91Y1UNqyTDFt42kzlbyWtuctQmr26pCFXob+eAskXKupao2FetW8teeMDbesgYyrpS4VmhHB4Zvw9w6XSNnBcG9gj9APq8Nck4uL65uEr1vhgc0wxlhwPGNVTTS/aIai3FGzlCsIiOieeMWsSGlkP+l4/pyEmzaUdXhgciEcxFnFeGjkUI4N141aF5yzqEOhk/GBA1pgbEsMShN1hKtiAgRbiTGCGh4aUY32XVen5GX8U57bqPl3UCZzYsDD7QizaUlyqP1o7JT5D5pJrkHaHFjEcexbBUSgaw+E88qG6ffdAKkXE1nSptoZPy5073hZ1nuuFeZMYicJB4SWoHrpgZKV+Rh8bqNCaJcWGpEyNDO64UoPGHn/v3AY5/85MCetjzcg5pFlJlZyGt0TyQ8TDmWwpf/zIsqH9TnegyUkjx/dQkJlO5WVZXCTiusNKfxF3ySFArWrIdoUfK/Yjuvno6/I0Mz46Ox3jug6DPtOlJRV3w4JuP7NGEQGwNUfc9XklHN+HQuGTHRmEYh67SJygn5G/8jUKOlo6mNwLA0btxrUaHa2LTtR9PlhvnrkmDSxwlWVua0ENPE2QXKkt7PjY3VIHLGnP9E5qohlIJdsA86kH7oXtog4jsMdtf3vKmdkQXM71eyffFPFIKoV3WrNLCb8qjjBppukEgS0UZs6BvgADXe6RKHJ1zADv/1rD/q1rh5h+21/zpUjANqXHAbCzwVNcFAhB+LtCHm/ln7UUgw1j8WjEPVO894W9oWvYw/J2q9YZASQDzLaeWHQuSdj36kNMaK4R+7I1bVoR9+dzROLtoa6K57b3uNaPryO89XGIyPZ0dq8TWhtolGVtVZUNQDeSg4LGfUGdXGF6bCwoYyipBaF3F+qaFdaoWfu4goyQcvF6TXbPEsMEwmjkCKpT86KC+KW/aGo1aoxw0Y1f/KetPccZmcoZ9QJE9LcrIp+0ruP4dt+c91fdvpOA2u8C9ri0yDGccvknVv50oYI25/0DHx+0ggrNhonrEnsAJiikxzabXCNC18rbcbcuwVz4WN2O9DQPJu9VLWRnwj/Pr3EmLPb6h4iUolwgva1AYgF2wsbf3ox1IXTBkk0yLQ6gtwoAvJt6JaJ7KYTWZZHsg3PvqJPwMA6huW02FbceJ3H2aOJZexVKXQqO/0KZaYNGJkmZOL/wDu+ZL+PBODUQP15C9QIPoRrry+ZeYNWUyz6JAnD5o2cJGTr6W/gmb9uRkxBzkBDhGVByofe1umgBtEeUiAy21w9i53/F18APh0ev5tvpN8Gw+mQt338Ain7wSrFJvmgrDrH0pHw5EXFdXNXRC8mFO4TCMLEyVB7ZO0eUbT1MkZoIplcYdtKxwmD0d2Jh8K+Rc23yBKSfXWWkIk1sHitBan/OwkbGOwyQsHqjAlKQk5+ntR/EwBv3G4kP65JPMP9U7QVbtAFkEpXq7EiXxFtQZhC9wDSdjgASE+OP7bZBlDgqaZ8h/5Y64Xaf4y1HWbeIVltBGAZR0jTDX20qmgQ6RQoB/BAW3jQww+CPpKrS+hqIgFbZmDVI5odo0EeCgBpPLacIfZfAEA9EohANYS5oNT/yJ+A4yqBRQ3FydfZvXM0AKFOcizcEYIaKxvOvFUSKgYY9IL+EOBGOUlrPZzW4Xw47Zh2WDdvaH3Y+SlqoXbEzvInOOqQxwLKrGLPL5GFXNVOVuCP+uNfN4rxi742aoXH3jxvpygRZEcWmpDAo7/yt6Vp9ut3UiGRGxrqwLqkqI0ogSIDBnV4w1mrHNhbWvxLal2vbN3uJTFlpNEaGlhvVnCyG4Nxy+HJO+OyM3hnF1eyaHw5wyuxac5BFaS55ZQSoKkZpGyHot0/L5BM7iYsyL5laC+OACYPengp2mfpWP5S5H3IoD5R3PeI2bU/7CJEzaoy/5VrM3L5hFWT0gxdMZpxRDY5I2bogQ7uHo3wbPTUQduGSaIegCUZREcRkAZNgyMbXFevFgOUyXaZpjL5yBfUi5Poof57kZq29C2X7xt5R3lXSSCNMRKb8T0YzS8Oq96r1Ig5Bozphuq5fz29coTlE7wtXM46Ij+TkQrE9uXyViYjCSQd69dXGLQ7fYXwCEm0Df1EZd9GoTcaetrF94PI2mDRpNEP2emWtaDGjvoqSCH39ARpExq3BTa5N41FHXOkMMPZgi+W5uG1jRGuFaxChgHf2weUb3FEiM3X31GFjhqJkmsrFFLKtTts4WWsbpGRwfmYxuEtwIAcG1PsVHOtp5avEzdc7u8wpshTZDMNejmzbuC1dqsH+f333reJQjBDj9sNbgcLm6cVyTyLRwiC18AIkmi0VNgQLNO0S5UV5QKgwQoVbPFsDdvIecD2V860q20x6JzcliX5HwPC/VcY+nLiIxuLjzppVdiFgkUCLnQD/nv8qkNjzyrL9iYKgy34BjkUABfVlFgcfr2bnBEcnoUy979TKGeI+40i1KQIb9mkX2RI8z7o7eUlD9qbXR60RfzMGjz2Ki+goeBhlhJJwQgDQ8uyOaUpbpHThGDHH4B6FV9E/6bmBW12GDdOihAtWZrl1tzCuObR5p1uhRs0aPIYC5aSQaMexit88q1x/vsmkvQYhQwA0l/crNhTu8XhQnkMsO/3qXeM6LjOqo6R4APpSht1jkjq2cpm/QgWvQ18oNY6zHOIQUqQ3zESAvD1r97o/MPI4Bjx8SOU+XQOa4Tpuwq0sf8+H3jK+s0PdOKw4Iyg2eL01Nw65W8gGAd1cUEAemJDynsp0rTIOGFsypNbG8gmCUo3WpkqApg5MKiNuWFnr/JT8bm+l/op4G/8eBeyGz3WR8iLVGwlw2VOkQeDaDP23QM/BrO+HybPTCuTCYQ5aEx9jN5ZZyuG6UxPnSqBkyyfx3G5uuDVC/ramJ3XtbBzBIE2I5SRNpOmyCTfrlWUrUzIA4JpVdJBfYR4tCHACeRLitOqdSkZBargkJoGQA6WbxdGrvXrnDEbBtfTt9rKsYoP+RdOgER/nnkCcOHo7E2x3wU2IS/rEatRnTW3Fd/6ESjOF8ip7vAcmv0UwoxHXAKie2f49R3TH2nYBlIWxNeL9sXZNLfq8wNngF5iRLNC04cZhMylSimcnf9xv9iUvRrdiJu/xTdUr7aYSb+TeGOEvfx/lItWpf1HvAPHpO211ySTsocalaXBrTn9EUK2nVV+i1/ulP/XcKcJ9rRxizgzAcRtvxV0HyFS9Hm+a9HMFqkXw3Wg1eaxzMsO46fCmqSYm/JrjsOOLcMJh3amxtE4uLUjhyra3BJpm8yv+jMPehOBknl4rLMcbm5S+6NRWpHhxMv4KdlZRCym03edQI7MxAS4GTaclc5jAY9kp0G5zGqcECmpjIqiq8oKWdtEDT1tdOXEBUUJwK2jowpsHWVWvctIjZklMFfYqBu9niOxmrRZtgfKetSLlKsFlKMX+DkOWY1axCCvNvcO2ZSq+U1lh28gs9nmhO8hvM3wOvWndYncLwscqWAGnXVI3PyVM7uRvN9QGKs16duhg+bqLwq86e3idAqx2w5T/6oeouJFw5sZ9ujgyE6t/o9T9dOaG/kOHJ/E6oBhnjS9qBadFTr7xEaWYAz8s30IRXZm6yBZVmDNf1p7a3bizsurGlnzE1ldA0YuqpwKWmTEhWeJXrnajkDM4lNcJXkRNQ/orLZfdn9fClKnJNBtPbKjXmpOL4R4afAnqfhxPxPkWc68yWJ13aKLLqdbZNEyZ8rewlvAX0mu/99KDpCDK5OEe/mNbsn/1ZBjWZSpmQYQ/YOXf/2o9Ez9CedcupnSGFoNcvq97Qs4+qWVx0mx3uJzj31NQgm1Wpl/TDt7VlTG6BCk1UxR8sKyYAQEJGkGVW7R1Bi8smldsS+3bfFkIz8GmS7TgsuxOoZdO9PjG/wPLtIFJhL0rBHO3O8Pb21xbqsy4PjiyMvr3QxHKOvQCveGjemVFfiFG502v55ytyZXov6+EJtqeXhLJhk3zHH6XuzfOQghm8NYR0YD6rGwkQPrbNNbr1YF+JTG2nq+VHqaB3jVoJmCkdfvdmn2idlJbXj9k9lhxQxEruYx9291CRYtaeDSems98Hc0xjfj45h9WJFiaJkFPiUMGzIvJ4QbGtkyW//hC31bPh6+3o4zRgEjXtbc3/hriNO+9IySPVyFQgNUysYj2SimM5KRAvcOF2E4t4koPJWsBuyA+4iGtwspJJujC0uZlfhwOoni5OrBlPOH90AzeLbZDd9qP8J4wSmYNR6UZr9cEaBu6i8ISGobl6L93zyLFFtMQGT4qU9vrZhlwIKyhplvLH3tUQfTMtsfV6NkpgJVVXbypvh6km3eCnbM5RosvqFtRZgHH86C5chNKS8HK0YXiqqneVAwh9K+iOdsBXGqJrwZBE04DLFSzG3MsiE317g19S29g6Ef1ensdjixPn21hfchM/Fpb0spf7jIgALzms1ttgTjtQOV4m3gQUZ0uVaG+kpvf4qp6UcdUccWw2+mRzxIusomyjKc4msRFhgm6Wd4AGNJrdChcgYG7WeAxicCxn5WhyBPQG32dRCBz+gfd8Fj2ddjSp9u7DoXFY/WMwRb6PppcXI6T20AYWWMUYqPMPuc9A2uEJN0iLjmzhtfG1OCbQsN9y7CcZ+CKLkvp3hvlUpAgedRTJ198cS0Fk8YGAPjzeozKdzBzE1QBlLyDdYcgnviTDj/09xBtbWfWgPzCdqDo7Ftvf4aJU5+WYaZwj1+EZuLKFDLrMnArfil0XwGMCqgv3DrDRtyi9Kb6ssOwnQhHd9dQP8O+o6vlePcLRPTMsJoXFEGVPfBTLi1ehON9KAC0mToesWbYXgs4E8AdVS5zuk/FE8GV+1VMUSLPbr8CDT5NtMXw6xYvWNBaHF24Hllt9VGc0eOFvqOR1W904fDvl896sUkJJX9uPbb/mMwHelMFZJOwv+Gk6xrvCuEeFvcbQuCGxFgTik2rD9l+61i8rIWXfBImCyZ1/ubolvkfQivq7jl1e4XL7cXytugmwdMc6JaNjMZ/UTIBIbAsg4fS24NdLhnKXYu2La5oU7Yw+UZQxX9B2jokcfuvYRFFXPy7tAy7u0thu99Ag0E91ucdPUyxrgAd6usKvK3uzzDtpZ2mPhm3//ow6LZZOS1nNYxJZ4ixH4ZJvypX/Xr5JjfWBPRoVWpekq8+SFu96XztUSj0mTzfAEBN2Xpajz/Xwmig5WB5DMoYY/7nU2Bk0qGs0VeUMk3FZota7y5yM1JQ38zm42J7Sfn5hBib5N7y2cgAXnPFw3cl9PagUylH+Yk5zDe564YD165lpPfnzhqN766qjnkWY+mXk3iDRYjGqmtacZFcsFvg0YNEwYWdZ17yj1XhR8fNF19BL7XfEIEfhrjpnnid77mDpo6uJb7pWHsW26A7l/94E9gGwfGUuTfQN0y+kEJn86I2qhYWeqKrGMIUmtfMM6EbPmYsPB0BxA/BYuRO4Yf/0wuxiLl9Pc/4l4Ua/u++nT6JlXPakcic2bUOGbHLAK9iv32ctbNYJwNlw/rwMKROmvLXy9TsgrHIktgzVLIP3IWDfG7F6KIFdxjG8OWkOjYRaNDJya7E30gGOES87BCCfm9flenb6lYAiVY4w3JENMAMB5eJbCQWhC7JM7nQh1KYABJ+UKUUiJt9/S2YYQGd4EFvKi2uZL7rnOjh+5A/lYLSIAki/e4FpMaTTCMCjJigGHIG+87X5Y2Guabsso2M5MUT8VbAcJMf5p/rLWGr2QocBmpUzJKW8IZC3V+zdmX1e1hN4+G0emeEytOfFR4Og7Q0CTFpLpy/VqXs7VGkxROPqIYgHldboosrW83sAJZ0AP1etTZW/XzqCRF/TZ1PzattMlo8mofFrTwZMZ7o0uTLulN05qIsRqJU9za/jPx2I8UhV6cYtEFdB0KhT4HqMYgd9AfLHNZTM8Fd4JI8U/uwTIRi+d6d3R7QrMpcW98PD7aDjRWXkDCgOZa/gj1Olh0Bc6mvWKKsCHF2nQPDBzV54rFemRvRQ4gnLiCr/WYDCzYEix3/bIAS6RtIPJdUVZNcZndtuXleCvA/++STiqBE5aHxbDd32ZQvjbKHT00RiBXBZQJdBCNwHI9JiQhqwndiyeODsXIoNc34Mvmt0oAJWjdI6RkFwwDkZMo/+xbxEb7MsMm3ElNdYuqNnCOyLIAtQE2w84BTKkeiHpJ3ubQLnmxFiPQ5ihsIZ2cqXZg8WV+JM3hr4k3UUju4Phz+d1XriB+eY0ytl/MGTSpRknnYWS60yMm2VRw0uMJIp9LyXSZ8VrhKBfK374z0ORqdATT/sBkHa532yUDvEk/8e9q/HXz2ZFM1r5ZOdQIXDr3aUDBNde8eNtRcTwFH/LF2VjbcY5AoxamFXqkY4Uy+T7mG/v/OO9rmrsIs7uAhdm25e+gH4e7PDKAIbCpzvHfY/7GZnAzg0E907sHI9tlaz6vCZNA6h5jmAs0FDelzKHMntd0obNCohGyebbF/gSy0BJvZEFj3d3c7PJj5EmgtzOlL92RHF6ZUv108bmWS9yHv/GEfwvzvWCNju7lv0gDOPQpZXnmIlDvFRIqrfokEG1litAJwluPvmkyyO0kjB5H5dEQe12q+que2ldFed7pwzoL7jkRi4FfSFVskMEcaIDv2HiFXGmNIyWFG9H9gRdf5fYTxPSndHqnsS8tHvFbWMc7M/hhErOmGQDE2vouM6nmMjRg9h3G2kO0bKaRzDtDbkHy9I5ohQN20PJ50e84fLBg60FfWzIxMHzqR9LyIYgQQ8REcAnPIqhDgewUkjzV/8ojCrDfQj5tlXoxzEJZxGYEJYbtZbU5GrI9EnYp6aWK5vVmORiBbJaLJv2NHWsiv2X1Xm08v9Gm1QfznIxnjeVKBqyFptrW8x96uIIwK6ZGzmF2CcfOasA4ybfAzz4CsPm8/noZW7+2/ug43FIwI4klHFWM6USD21+vvRuFd3gkZsN2viCSAKG7eKKjSWcknLeVvdG1Mw4crMtUqNna+fjJitM9yeUjazIGYsybxEttCG4549NWa0vxaRTPl6ySaKjlG1llzm3yECLo+kw80nozbGH7+vY2zohuI+y9Kz5CgAPN9QwZau+iNn0mibbt4lEhnGsjFrBI3KOLib9fuF/P1YfRX6ECCnUyJLnO578QIeheN6b/wSlo0pjLxiXcrb7QBcjhgTk0galSNpb8bsXyIvNF8t3ERNVFO9RHfnmvmErqn+MTQ4xHHEf/7kNUmF0AxFBPza0ELQ/t54WJ0qcUTMLgl07IY43l9WFptwKnkGHTGAq4+HWtUCnGpWAk8DBjCU8588GDlBVS1G3P9KwkbsfORjfCa9G2uLllF3K76iMlPADxpabmdKru3Bhnw8/DnzdkJdrBKuWvKxy8u7yOd+oub51mnvT2SqxniPunZTPQbp8i/v21oeYPur57kle1JtGV/K+uUCKuPJhI/UWg8mY+N7VN5w9nN/D3L9ZWKz38jrzzNEn+cb/mOLthJKhbsO257pZbzSMfOrmioVTHoKs8hgq5Gzi9kwx5Zgi+amdVn1F2i+WqCqssOXOG3bgGTjO8ZLdOIiNzDa5NRXvW8HiWmuqqdJV3RjzSN74FcGkJ/R8zChMjrElX+RjoDIO6XIigmU14NdwykX81x+9Ih1hdgMp5ZiPEAZBsJVga0W4wTReRBbLtN4juPp53VdD0IcJXp0DkXlJJQbhN6/QNstuz0nCCaED+oUbvEyRxMDhoe83LKWqIFguU/8Ke2d7uXlgDo6XeuGwlefoeMYk2iTV0Xn9j5XghnEwurQzvGnCGVKGbsicOSjFnjGaCvIr7n50slQC/lcQyAEUBHYxSaUEiDIN+AD5z7UhaNvVLwPSQgZAlusnQAqdIYDjISKS6Mrb7wl7UzTn3PPUVfgj9WWl5GzPGDJ7uMOdgO8baOsH5NVr1Kevquo1hx4bpd6XLlF1MqVzwPwB4SB0aLAEKNK0a4cutrQeBfK74yxQl4pL8t9jnc4IC1WQe75S41tYyNL3yYyyZkg1PWlQNpinGF8DQNhPa0Uwh3wKpot4ko/N1IUMD/OqA2fvdAbbf6ZsPe6BcTR9Vn2BKZ3A7SBuQkgn7E5bcIJ07H5bJC4YXJnHQJqA9WiJQIpiGV9ZZWD/9sIYUpoekPhU6HatCXIQookeEIBxJDgdk++WoC1yN6E4DBmYisxANaiqIbYyUUMJw/GDNQ41X1Kv9bdtiYmUlKanuUvkCKRhNWLrqYRGcAncJdnhDqctYVSjyyGzkklQzOxDF8m3MiuMs2fpMbyMQE4YxSILH/raBgLGDQV9pPcUQDWgHCBg78EltrecZuPAKLS3fphuixQ9HBU7hYlIpxXH4V16FGahelGWpAzGE6Y+5h9BjNj1KTn47EZsmczuhYweja+lswExdYG9ZifsGUKGBXVYG4b+lbkpyOMDEu0DlkPTnbogcG7MNrOsIovPPI78ltC7uHZrTLyl82rLIqbNz45ArlKGteyCto7syQ8Pt5nSoSuVgctMjZqQ8+ehfiE2XD4xE0cvbDZBxuGf+o/K92WYrYQRVo+jy+ZUzTWZvhIO0Y4G/I7t6p8piaZO2gSmggAQa33I/J5REzDLW/PCdXYpeIGY48JEcBMKUTVL8OqGgyI4UbO4Dp751pprX8OWxl5y3JkSn2nTszLOAFbB2ujjGMvzALiXlr+KHRvXqScZb6ixLWT07Jq66S2vA1WIzACmqWJHjNIbjyeqto2skQ2afKeuwiz6WBqZVibrUxfZb+gOeTuebiXo4qiE5adj5wQ/ravxO/ohBYv+wHnwlRM8+SLoSWIbYTeiqhnWJI9MeRf7LjeT2aF6e+rV0E2gDl/bMcb1kJKY88ydhLiwUsqSqQQOf3oK7o1eo2UlXnSFkKF0YeFTTFNOMvfEMGsSbuejadYRMKhdP+TQPrK49k+ndWqGbnbGS5ZJYnFoWBsBNbEQsfpSlXN11uz3LMyQMH0W5yY+bPDxsXUgj+g8tvmzR+VznBBewZbDUPwp4x0Heh9pJHSYtWkKRtAAtDTmKqeDoutJ2nwwjeDBm05j/cth9PeFpSyZVPDCIBOnRuS3OqPkV4cZ4HOmziiY/YgwnabL1rSz+5OTgk78PcQA6J5Jh3E9LMd4+k6+FtaQ/aFQdjTJ5jQO2p8jU0vJhIrbm0SfHn5mSTkNoF0UY8ESLTZEOVyvOdDg8bxDjlcZiExntpnEUvzAD1tw5zlxTW+iWsupne6miVZMyWE5ERzvhmZdTaiOCYN8A8SahpzN8yT/tFncXWkDcvm/srd8e3Z6+tn62kGeXVKXSINQYxz7MjC35eu3L6EGf0jMrv0BGXwEO8f4SzBF06kW62g28BUpXYBFakIQ89LWLCtsgWQlj6+SsfRTHpAF9WV486GxuM9/eECXeOS0DyO1WFV9cRBCZ/UlKxoMRt1TAE7/1/r0k/qN89WleKJzdSZZ8kripQQxckBhjM/ObS9qWTfQ5Fxq+UaAFfelGLbPtJMLaUs4wwpmuXNssqKxu3JjDs3T+JI1n/hvWoWAaDALrLICYe97c0Xf+55GZpyiSSkdbENNsfjfWB5WQ0kTYN9hy0D5O4qJ7feaq5MljMbZFb3eHcalMLfvJne4CqqxyELRG8rbnLtlBbJDgryl1cKlBAbtU8ASD10vvBCcmW4Hv1sk79gB1qCND2cMMUk5cmugWtIb6EEwUwrhdBtrKa8Inohzks8TYC8mZoYT4/cKk0ZPDgpjJgBswiofcPoFi0srRlG0J3jaDRFWlpNeBsjixmVES7nFVPbqoAKXHEkirNzcVq63wXTtZm/hwcd5shouwjDaG1E9AOlxQSZ6X9BlSfCnEnosWL+V/eJQXkV58T2Drmzurs39CqMdvuJxd/UwiHWu0uQ6pmN/P5KS3ljy0ZZfQDwVvbsjkSKDlQg1bFbosYCvePwYzRY8UOqrr1Fv7g1x8a16oC/K0aHhymqWrEgWJcK5PPC6Xlj2FSjhyFD+xZZUVUbAVpVRYQhNtn4RUdpjwMK4tJyELZx1AoLsUttxdiJXH1lZRJKrLuJeTXKdUhavxiQUjvaoy7aTo6ixMRNXmVUiIgwijBNVDwg79ENjHshjvojvi3tl3/tzodrFQ2wTdE29mTwm1XazCZUIdr9xhYH2+SppKhO3kuA2RXxYNpunV+DlOcTE+meuaWhg83UWEdFvJPTc6eARXsLvqxMjkRgS8PHHZbPrgmjHbohHzHiFlgLtsqwBzkpO9F9y/eqzCpa3/7dkFg0uJhWlqfRbOe1XF3rM62KgQNCxJer2wQzxLlYQuMV2eqsFHvh0vnRxsCuZ8dOUVs2piQSIsRMQSHwKrJ7M+P/StnyPuVMblmWtzJ8sIGBoW5OzAaTO8MV4tygF6W99pnp2KHwH9wpShrUVwonbf7aaDJ0rjzpeDp7KWnyS3MSJXr+BxNrBq+g/e3wc6EtZU9ndsMLsjRFuqATiptIepAhuf3iNRbOU4wgfWVpN4mTbVnoa9lbsaXJpy2RTd5dAzaJn0hHtg7ZtkJcsGEVKhBOVYPdU8eoIOqftrrJC+8tac3Dea/PNIm8gZ6tJELlkCNVdRfH6IbiLmT1lzuzJGjGVTOOanxN45C7b6e3Wv27a5NnGYWhF2mkaBvPXAzjYsx/0nC60u6xSvqiqLHthqQzn0zkCRcgeZ5ZLX6zUKooH8VEPt2jgxlMPVRNbRD2GWuohMH4Vx+sDyfQpzPLiQVzoYN4E2J7p0u3at2Dt5UJPQEJkQmvwDXCuFZxqLXkLBsZS25RkGXmPQWoKVxXyz1FVJwpEwkrB8AwzbodVd41NfyeFVCAO/PTh12REN4CbUoWasDHBJ0okA+dWE2PNHpmQyeItyO3h4KE5XVIKBgIU3pRQDBHS+ggCHOqL/Tkbv+vnR8h5xX7MLo1vPqe8K3vF1wpGNFVdZ9A56jcbaBpT6rOQF8aEo3mxMP6HBJBDJUnApNOHswlG+wGQlrtMgRHu7rq1129+SuxoRuUw1/1sbx2WHj2f1ChRwgykHFt1OCnhPYG/+ELVRaT5323L6zhRj1mhXKIl/dyaSwIrEP2vXKF6TUnZlQoTxkZY+UnpuJjaq619sz0cOUkec8hjhbiEH0UHM/io1Po5yq97W08eLDd3TU8Uh7kd4SlHoS++89UzxBytrmfId3AyhHqyEpMWC4EZA34vgzUkNVntLzpCbJvc0gw8MP9vuVgFdHDWf7S/iHYBjzdZzSEZ5uvfVqiRXTIBs+A1zgtFkbLbD8rL2r9mAmOVOYkBRUm297xVrBUHyyToAxkWUyjQSHz80wNY26UCQWoJ0vS+KkNKAoamWF6EcwS4Mqh+FtHr6aKllB5jgMJHI6ON/rd24JElmceEuAxWjRH3K5zH6rjnF1ubyxav/LJeW/iq2IDxu2ynwUG9bAwITFmS0tOCZf9vaZM0Tkc3UVkamPbTPyYLnHkYGO/MwDUsQxEi+V8N22nvBDZKGEkA4PCTYrX+975eN4g16uPz5PsOkQLyfUzQgTibHyl9P9GhLr+R8ONhJ30ycZT+P1jAfDKquhYsFKnLMauUHq3uEjlGrzzrOf5oO60tKzZ2IR3yru85om24Mr4ZAxp4ODdCl3k2AfQ3ive48/RCBKrXm5nYrg7NJJQ5QNHZ6kaGRFiYX/VgG8HSX1IAzHjMq71oSuuFnqi5IL5Nhido3hVIP/Mjo1EYNhziN0dNnmWNBDZIzqttIy7i974bOClG2xrBj8gWF/0f+dtrffNRvZIGm2SCQIaV2Y1G9FfKNF8BYyrcM4rri4W4t5LwQGz7GVkdQaOCvbwWeCLQ4H4FcH03ldIBfDT9VshHXOyBdczwXasc03Q7J4mqNpqhCv7WZ+x/Ymg0S1nI12DAAaFoMFYTqbOcroYQIjGEebM3dJGIjS0ZnldAojqyi6gGO7psAcpq06CPwXL67ZNMM9BUWRPEo2oWtslRA+kf4FKqhnCMccbhDN5b/9p811inNlIk/wrXhPlZQ2LPDEeQ+b4/IXoaNekTTBoGMReyYDbG9dCeLc82x3rs0LdMqpmM2i+L0/JI4UDfpk8Al0vuxetdJJORfBi1Tor3itmbLHSxjuLZQBhcbpjDr8O879a6ONugZrvlzNqsUZS4k2o6EcT7z53atddAlZ0VYsNs+UePuI2+dsnyF9FGXD12zFCe6XQpN3PrAMRjEMDch0C2aY+ROQx6EnbZk8iH5Buw6VCPpY9jeg+hK/ESIbxTSO97YRNZNekZFBBgUzYejvwwWoR/oHpiBLMHtpaE3Z/3X+IP1v4hDg/MWSf9HQxmYlPflvmKtw4u9n5t4E+EzbldOH+503SZtIbN9a0jEZOxQDGJAHd+ClS3X/UszYk+xw0zVjBH2xlscMvYQxGEBDA7T1j0qpy/A0+9V5VtjKgqCF0W4Q43wFhQVTAaEE65OCBJ4dcG7UupSGpUA0ELXZJ/Wp4CoY59OnLpay68gGCr+eqVSKtMwVQHhG1hO+5gYYtQ18Wi+v7obFXtQEWt14+VAccxLIWZJ9oauLZdKILq1DdNlglXfx9eAxRqhBnS0GCq5mO5DuvgLh6rd5ZpXz1wkArCCjvoAj968nZ3Da7nXCLTW0MaYDDsrax/35W7Q/RYqx4cxh87E4vl/s88+dF2YURWJRhm4L9rd2bTBCptz3Mym+vfgH5Td6lpsiblKPyAzSEFckC+aUlWdFebFE9TBsqVLIhHQgHWDbGxxWcEcwdvHN7ZGD6ekqtvAc/2ezqxnSodSRdMrvclFL/OtmijqScVyByGU9Miszr+jJq22ZPRd7J+WkxWJGzWONGc8JUQzTExw5JEmOLKw6IaMi8gDQp4nC3TD7Psj3u646gIfVnllgrcBLpfZlCxVhts4AqtQlcjmUwhn8Kiab5uCupj+/jHdcwft11PuIhPHtUGvpM55TsEb/4dOGw6GSHMgUzJKfloy+Rixs+KV25sAdq7guGvx7i+kQhSqnfficRgN6rZ8ON7NkCvgBWxvv9DeRfg+zvxnD4c2PdfNYXxaoziFQSXT7h0PXn4DDJfRIGCRiKGpjmhR3LBzM6ux9watDIk2QQNeawm1gSBowv3cg2MVGiX0faZSKanf8o5/s6RZye9sWG1nbVi4Vk0/3bM76lEwHR8GNYleT6E4ZQ0xFF7OA4GaAN+HPlXFRyVypasGUyZQyezEhvxmXajOOMlK1wCCJCtJUVUA3Bm87AA14j5oYwpC89gpPPSuhDY8M/O70urv48fsbPpFdbjqi/qxOUPvTIFejgiEi4mi+xUV/gW8O6fRApB7Ckb1erjq1sAM/A7DHLysju/5XjwaCknxb6T/oOKmC8xd8QnEjR2E9T9n4mN1LnZCoHBdo0aSFkhPX/SEJWw6wmKV3uIp2GoTgOQyVebOTc0aQpHuo00zi60wxqHRucQxuWu3R+KSpBSkEVcaaVYsflH5hK4FhstvdAOp9wNUGO5fr2e7sordnTk5Khi6+r7jh74GlP0FAD8CPllirXouZnhF3IuuqacWxTbPlA4+6uwofoz4wbCfoAdrGAo7ryELy2h76CtuzXOunzcUa2B9oMO3sdLbAp96Oyu2tKcH2R6RMabNcnKIyF7AC4+yVx4ExWh8HPTDYCJfxj3XErpnKHaSA7Tgezjkv1arBwHkrSQ3NvErj64Mv7MQGbhXGOaq0RZrxyxNoihEQe//Kyhe65Osj3Q6T4IAkWdRDOf5c/848cC576kHDNyswHEAGc/t8YQz9GZAEHwZ2RX+vQKHsFYMMXzfP+J6bq4Hgzs/qRlwSDvxM/1jrLQDpGrn8HjLKXH1cTIedK29WRlXpFnqePw27K5mnendtkTRtZ5yD+8KX6AT0c+sSKDI0PVnLtMHBvzxFHti/7WgxYe1BaMnM3kBk4urCXRdTophF/e+DnueDaK4/oDWn+qROZYYOrR8qX0I1y5Ju6QAnmSyYfvkUf8t0ES8R5/Rw5aj6Ej6XYZOBt/iabMiYDWJ4QKdvYJhf6r7+nVOGr2+eZHZrNHwDXhbXaQSDdY+UygkfKAj7jd81qw+jopTBWwhgthJGTX8Rk7Vp9MudtI9zGrqGNE+JPMGYNMyClmt08/zvILDBMHQKkkRByf/PSQ9cD/dqpcDbzLALCX9yPexorxNv3FNi7suz78ODt0sXiYc3Yr5yKRo0wWGYEWSwr/4olMCNXdIgFJo0p1z+oon67VNqmmaC9QjFGdgVuUYR7I3WR86K1GIP7WHP4RBYmaVWSWnRMOpLQJoFSTCoDprvQuXBtLh7gbPDycDkK97RBGee8izUE7cbw3hiqnEcC/DptLyxoGdjOna4crk/AnKrilnb6gI25l+jKTC20SS9R6di4P2jiOadev0Bk/WuaYOPsrLQtDzWwyfR0YeMzwvk6BS51hx7TDTHz5sS4gy4Vux+whr+MXbDu61ob9zf9lq9Trj2h7h5hbROI1SBmSV2Fxq+eWNs8Y0jErjTmKvWLcZMEa4c1WrZUas02cmFS5Zvce2Hg2DcCP9nluU7m6oXq7M1XOzh0vzdmoCYztEgDfM/Fm2LfrqyN8f9q40jl/bS5MRIdWOQF4KbnzuvO3kPs4b32ZCPtj6Y7JwgBy2p4gSzEYmtNCVZKv0tyDpvaCoAfozJ/p/D7q1yGNSbBoQlAcdKxwP0/Q56LvwCS+GSfi4ijMMH2CNnxbz0w2VBxqT/MhKKXDINtjNYanBnCdokUvPCtH/faWqvnFzrrzJEta1NUo9ve8oy2O6G6qIDGsib2o4dpSBd3HBMNE6Uxz+XhRSUiApGnnwPVndfXdzLGQqQrxY5+mgRZqa+j6auhHRKV37IVBWzQ+OPrratkAVvwc9eWFWEo8cZB/awz/updPfWVar3SwAxuYLpwGp9GYCmLXMU/+wrDwXz9N23FSWdU+b3dXqAoVsEOXl6EHpGTgzyRACdj0PDbl+Ph610N1h+KgVrGxlYU4imUg+nTGeghsF2mHXPkX4EL9srwiCQDGv4oda2v6JhfkW3HZOIF9jOhg9x/wVWIsFdhM+mYlGzp6WRZy8UkwgZX8Gu69zkt/lPg3TkPVdBT38zFv+E+oJjf+ODnCm5X99D+hRy3SF2UiCLFJNFj/VURILtDFBKyMS8pumHQ6QQa6+iaOZc+4+Vm1Wbip0JlQFKw6EGPxMLpcJo+l8JKVJMJoGK41ospuMp7jdTnmDrThLkRAxobRHVM4EOcOjv986Dk0wiBQWDsX9TqZsqTMVXsRGa3kGcB/QwoEelUZgyXROtX/AzZSsoHBp35B8eHqLqHmdMI1M/GLQfsDBlGeYzIIrd0X2W4RLEPiAFdP3jpxdZfNl0CAZP0OxTovBhh+jd7XUFbWtF3FmmsdECS1rSLf+LPReeCRHe5fYjz3I+JPIiMtLVpO9kQcm8gJbfYwpW1YU/KcHF7BBICvsW3/frhrXcEY0086XxThATfrpKgowOyJ8VozO/uHBQIUTAVrIkfF1TBlRwn9rkNZDTIxucpczYasxHmOVbzQW6c5gMnpMiC+PcFmQBx7JlnYa0wkxsWUQ+LBSdRdsK1FYlLIAJCAMpCJnANHfK76fvZ8eZ9aVRcRuqJtdLR6OZZXYy5zUgz8O7w3WBj0FTsKm9uxH7hKbVV+XIqY8tnJLh1HUPM+oMSNWKyCw/LuPWkyj/ZBnr3Ef0A+Pf5Ga1199k3WPU+QVRSEDlpN6lt2LRYD3MaqKseDayMR723virdskQbp/z5NDOQH5tmOufkp+sxDhwSBFLqQnKD5NZFzLHg+mauT5gTZmMkTMIt7StFgKin5o/cmDKTG5DpmzDxTvX9MDW8sZN6YrrLofj+UPw26jIeN5rzXFRGPW2L1D7scux722UyOWtm0avQ4N18fTYA2asmfASSyygPly9KxX9MTDQcaWI0cwiDdEh53TWXp/92auroBtUUT9CW1zGeFYNH62ZVpKXFtVA1pZmBpkYEVb0jG10Vb+PTV2XgHzwljnAI8YqXhqtL7hBV+9q0tVNZQclceuxyMLRmZhiJ58y7SCWEvxyZA2KT8ZEZRJPEQ2tXPKLb9ARQ0oLSznqf9l+QzQHv2oMGeaDU4jB4HzSB7LQnQEFpHfgl2GojlotmH0WSO8dK3qStyQPaEKPZmVmwanmZPDgQpYupK7JmzmISO1b7VYXFndOOW9NAtp7emimX0LvpDPihc1rtOKtPbki8VSYXSH5vzxcldTYXRiaF5+hNw3MJYKFeOTi+EgXzrJOJASWrkeUoWtrracLP0SgdaKdRLN5863xQMN4w9cgCnqcYVp4jgxmvyYssKeFfU4moAVYhnTihKlNGsRXS6i7kwQ9Hi2ekd9X8PsrbF1qjDaes3imJjj3wdvxoNhfWBisuWPoyq03Jt4BIFGNeFgO7e2fqXG3eE0nAWqt52EIpDdgpQXlllR60+7krrvVVLfkKjdIqOsxSIv/qoNJuLbinCO2WcNv4je4yLP/Bid2IgP13xltsnAcBUvUj0sRNf4MdqcohXu4rhKdvgzecyMzXbnN/xufvHc/qYwJ2E0DHCfrfDxOoDRMgX3kN0PgaaWSCjg7T9ggsdUxss8nmqYTV/+j3I9BDXqKpVSR1tHquHh+7XPbMT5D5BII0uD0qWFHUY58N97FXQwVMloDcnkTz+SvPiqg80HStzQqpwCJ4QzdG6InRG4tYSFzSVpzutz04LSYtRKxOKYW3fI9ZQ/tffQJ9wfjFi5xkdPeem/Ot7Fo7taAewRgAXVTTuxIg6R+94APXLSDm0Y411R8DZzC1GJZGwkDAKiBdTBC1zDNr6CVJD5IcKLy8ZXzobASBtPPB1503XSjZ3G2bPpAP4DlFztSTQSOqMuNG8AQnEzKj5TNQ6/LJnKCaZLQe+2F9AU8lwrFm91jw/T67XK1ZoNF5/eZVCBQGOGeHn4KFrjvv7sOn/zYQhB2PwYtCr+O5b6p+Harbfxjly8YPSKJruhnA9/RzPLQsVy+CmXUKTBtOIBMhtq8Y1tjAWcX8n+PMyMLmASAcmz8FTCO1Q6WKKCvM0NUcJ5asAvZxgNPBwZsKCP3CxuQj6EUF+9VPyYgwS7TEV+by/qVl+snpE6AC3EtQ2Q//GePp9oJKeUaLGPDcbFyjIZlkwXFZ0s5PkU8oXFQzcvAAYcGlda2ahEJQmeeSQGh9kfAtpKWXj+0oihxckfU0fWLtr0FMj8EL6sHAp6rkRXt0V4z7pVVfj5Xhmle5sXIqjKooTah9TguCgrNaYtxTfcfK9LRNz00t/ddWPLA6WW13TqF0txUp8AT4Cog3hffKqXHCK0lEIYpOySoaWcnMXXka3iE4MXHmDSeE4qhGGpLJTwkU1KUy+uc9FlNnR/F+RcJ3zRwTrtbj5DAo9xIwE9jEyYAlkXWzY1jabLiksTk2ywttJ/48RljZC7sPjkngHyKFiGSGDJwJdYCv7bLrztXMgbCCsiksg1aD/UgBtsMmFXu9GpiesZBz/v1qNio57lSovKdzVXoT4Lmj0HgqvbYDG9LuNR9FTQ8johFNeN4mDr2AdvJMUNfNkUMalLAZme36nTbJWC8/yWY81UaOLwOoCb11YLNNcbehB38VTk5qTjbfsDF+hUH+IFbl/xGjkVDZFjQ0btS6RzZFUb4uCRIgDygCxsnutgNiuVKUjy1+QBzfw553Ii99FsMVn8J5AVxyo+MUAKUeR8L/A2O9XAxw8IEJOM4Eii51+TmXPWPNXIsbC5wFiaopgwOlJ6SOiBzI/XkpnYpdSGGxkLQdf2/mI2AHH6Ki9y/XYofJe3LGFhop7Vx2RUiHunCVmiWftQzpCyXgZ6ACgrFfMDnzb+azsXivbElpJX4nEBWHzFVzEUa0q5YV4MbHdzNnRxuCmeRtkDup8THdoGnbPJ8huXOwf7XCGHc1rwfRqpE7C8m4lzD2QTZhVy7ejtIY/yfYZwndHdtFqCE9B74sQQhS5jjl9ZTptpui2mRwHK+UBTObS6R6TGhB08eDEqm0iaQ2/6ptMbMbenIsJXfQ27OoqMuOEoCJfU7ekeklXh+5cGqAXrNkmRGkr4C53OTlxYDff/PrN2WvwUcENf2NAOHlLd8mHWpcuQxbgzsHhh8pEY+6THy3fLGx0Gt52X49vRytjDQHhwY9psDsjlweTxgN1RyclO8lRIUBaW4zZ4jyy5/tsCfmv/cEy6ohURABSsENhg8TvOlKnHZ2kqnSWe5tthZY2Ht9MH7T4NlELFVLkOIfi3wnJcJjYSOM6Set1nI0xrCMe+JrhnWZcqvhjEr7w2aqqIpbSD7agR/HPxybDAM0FvaoBWMP7y1e/louaQFR/k8NlxbX1hlnJyAYyXkFgXo4v7fU+bLbz6rvoXfmrk03BOEY92mw0Lh5YHliivX0+nCR818LNJ+BAgffFIGKLrI4HjS1KOlVGDR8HZOzz99DLcc9TUbYE1NWUB5xXP88P6ZdtQqmXCb/U0zpJ35P4Y0hgqPU7AdOE7U0fB0eiLjgajMcOmx3X06smD5NktkbbfygounNTevaSvKc+MhUW05DD69Ge6+c3N3aqOOMXrppDbmZONDxEdYuKS184KiZDMjjevINdMQn/XsheKGjRG6n/oRZW8EuXgZcpCsw4ufj3W/hqlUDFGNQQgyZveDKarG6THKXAJbXbSMhsV207EdY2CjzV6dycFTwV6cxzW36E99OYJptcZGMIoIUWbcXA4hexW5kTb49Et6I3SXdPzGZ4DH21aEMIRJsfFaCZh3zxoM8MHhuGaHZ8Lg0GkWBlJFrqV8oHVUso0FLlJv2RKTppEcHBZ6t/uAKn05FnQMvDLomLSTSM3OfdJOtLBJKhGq273qsPs0BkcOUEbyozZTl/PcmWlZ1wGXwFBU0duSxdqIeoXKhIw9vBiqR/bIeFCBKm/QCEM+sxnu6ZvrmgyyuRDSwISpMDx73BZCMI2749lo8sYgILmoAgFLwE4oTEcU/HN+EDeNY06TwlHZCzsNf/h2xgKZ8sp57HxyxjWY9DezRxHZoHxsScNg3daa4spCFlpUhMYFHcASzSeQx4H9UJGQVXG1H6t8hjMvTKcbsfgOq3m6ZxQlXadVqvnM3VQ/nN2mY5CHZfJ+OIsEatb8gmZ4fI8tOF1mW8DThEv81udV0a5a784HJNdsVMM4fdTz43zKFiM+qdv5zwQZ6twSgnbfWAKGwDYF32uEusVfEjS8IBNQgs0eYmXhgtw38KQJBXOWme9rxXhlGkBIwS1p6k8fch2kqDDypQeA9no60xkuiaPraeQcPHVdSyOvBlcnrhOwCgdkG4SrEDkTudWA7ZAg/W9dad2DnUP526iqgDI37KMEj43hAVtWlHL0Hb6BFgmVJi55pU17v58ALHLRCpiy8W8sw2MJ2Zse4Koand6bZqXCra3v7/wLX75AraL0FbfXHMLBioWCcR3VFxUAiUs38SPEJj6EMCwvIWBmIh5vuZoZ8G7Kbc2zMLugV0qQWKyLxM/QjMM4mso1KzriLX+bWuMB2SvU/8przbaarr6vk3jTNbbZOEOmkn40fxdSAu6DlhOyKGLcV5Cj1LJCLc8UW4FQUPvlI/NuncALChkyQqo2D9DS/2PJ8pEwjjt0nVpU9uHyN2iOtB0zkoMocaoXwIFqHxtvlpGt12RnA551B9oujIbkZ2A/+hvpbynQ5RIyMa2/2NJ+ZCRm6qFz3mEGsK1nEJeJ9MZM/CwRjXpWxunjYKWy2OhyisJNplSLwwX6W5N5bMHr+3IVxSzVX1x7r19vueNLYm7XoUZXvmrc/jUv0BVaqjFwYm4OxW9KoUZ29/6/t++UYbPlLs5q/3UGlBtLIaXA7vAoEXtJelTUCK8+M/o68147SouS6NJN8EZ9IsnfdpwWas90MYTGP9qSB86WSyz/XMKHLUoJeSQVd1hSQ+KzxtOydCKn1V4kFkYfm1+95kCSfLp2K8T4Tgxvt8sWEv7ye0/5SBD87KgoJG9clWK3CNf8+ICa23C0d8KX9N+OCijtR4fuwg1520us4f9db6iFuSq1IOEiYaX2RoCZOebpv+ppjsmiYbGSqUoVZPdjPfVAOj9CQGcXGQsOoJvkjb1J5kVGgQqYuSSBOokFwNo/xq4cSFoYTrj/K9j02s8R8tXDVTe03QbGudZ4Ppk8nwjOIXpCxvgy9Hqxst4PH31ZXDEwidI/tjesUjsN+nnq2o7jYsis4I9G8s2/iKlU00IDdnnNZxnWPNQinho5fgw25Ees3jAZhRuHNL6skLxWtZO8syGW8THmgl3auEpRZK0vGPt8DcoBTJ9Z+PVVSOHewP1si2u8Oq1sZ3VdgGXcISV8RFZ7JhGebUuYQpwrbNMuEaCphKII7FzlHAB1Zxc133AiTg66f0nQ32i/Va3+nvfHE+VvnTWYCuesSIukIur/u3leM8PgvNp1RQgyo22/FxupnbpSEBeWtYTg1iyZffYYom1KHSuI8GQ/FoYeBQyzP0ik8FzgsQMfHfWR4LQcAp4NSTFoF88+27HmcO20yaSvAwTeZzoIf9+L/ZLQU0v52HCuCTQRVOvLuPnxp5dgeBi3rbpnWb7CvXRpzw7I26+XL1jVTy4TZ17OGz+72TCiDC4ABPnm27Ekt/pim1UApZmgo/td/UDwJzZoB5ar5E4XVkhN9P3Zo5waQwBquiWfEY+1B0CzCaQfqk9r0U1JHFGuA0PKh7yONmuqwUNKbKDe0bMaHjqq0odPH3Us2vPlKTkMwWuhof403/OAkvHS1NhVLpw0T1Ssn3RZhXepJDEPNYrfu2qa4kRgsAaUZ6unc9xjIZVYvptBoAejqJhgKbrWloQ1nMzV1P/lO3zEir0OaLeS2Pfw/jAc5uBJUSt2yt3+R8knfcZqchla7VGPXr/VsEsdu2d00U3KHsgIt7+munhZKldR0RmjR1P21rezpHeYY5wMrbnSr1RFPwUN6w+x7SNqcwM2iryN74Rs/O0BEROBXzqSZEjMlxt5zS10k8xp5aHCFGPX12IAmqv9NQO86XO7BZEWLmnsie4ZDv4fQk4/V1zQzyo+aCulzJLL5VVPkzmgN1wNBO9nnvYvZF7qisW1yfTSCf8FeaybuY+r4mxvVX/NmLvvw4K01LY/K8FXM7/lFp4ZlgayaEUkIdxVeRhXUaOWDD2bMsgKzGt4BrGwZY2gQG5NHq1xnpwQIdX62WtDqb6/qMz5VsIg3alpgXAPFRQD5hl1KwfzS0UMPyZ3jr/zyJX6eEElI8vh/zRU1mx2Eu+u0YtLySauG2cYLLTGI/A4HrbCXKwEXANZYmN2ehYbBuEWU0+6JGTJo97zObq5V0q1MwVUeY3k+o9hZJB+FMYIRO9aDPGOfaLlanL7bygsbP+B7NKKi76bWF2BRVqwJE8AGQ7cQ1gv2DXOuwEMdZInFHchJFdu9z8PZ6Wuq4os4MnXfNg2carOJzMRd5NK0E8eDqE6FEBfaY7uJO6/91ZgTdB/9AS4QpMPpjfh8X5sdNBOuEF1Kro27x1Ej4o/6tUFtKD8qzZsh6pONrMwbjxV03hHs9JESdbcS8COsV+9XHLr/BHTsf6+Cl8wHzlj5mtagoHKPKfswcsUh73JMFphpxY6LKClNvi41MGAVWVpBlHu95bzdfw167cCCUtpFfYqnt4O8regbVaTv854KVu14lRx5lpDmX3cr0XEHltqJhWP2KXuFxJt6INS6WkhhmPEypVKglaTZX6Xy6UMTHwH/4na/3SRopZ+JjJkgOUFWur9jS7J8RJun5NZ8xQTK/Ai8DrmMmU40sn+i+hrk/X0upf/mVYQl9kGPzNYGxc8i484GZnlvNrHpzFce3BkrIxi2kd7Wvc9uSiKa5Cx2PV3k2K4ZlVMHmIXvQLS74YGUrPqpPZKzInTSNQxopufUQJ8BmhODPlzfSiXjfxnUtnQTv6cxTz5itOedJ/YkfDcPvp5AEekCRMDEaOWBIbShJdkPWPKoa65dI4Z/TkuscuQ/Ah4BK7H7J4VP5jn5SBJkC7RnnE00U1I3FGlZKOhYdcolSCfeKpss6x6NrZD1ZdRO1v+ItYovjMDpOFrdI7qCx9lsVRGNmdLizXy/3U9YScQIMwnSmwP1dqNAOGF4J8CVKIn2wYTC5/1CeTv7a31YpWrU8Ll9b8ZGghaQ+zMcFghe++CK9X2wFyOSvC/oTWdRkrXXPlAzrFzuvRZxJ26pvZqn/u/4d0Uo94mJU/DnyY2Ah484AptdXi6UtDvCh6QmuHfnyv3M5pd4mO6NSvCdLqyJ7cuYWfxEa4R38pPh7PDowZUSHSIUahniFXJfT0716RgvRgxUiOctPUTJ6PQD1tz9uzQ6P9+dsb7J/FKMNKBpOho4jgHOHDxmUeWKzxJhGN0n47k08+tI9OcII6azxx62gNQRalB9HYGZ91nTXIdtIC1PrEoX2ZGvyrDXJKPCz1ZN3V33nHUjcCtBUr3ENL99MfRoWUcvTX/VNPLjRyH/W79xgsNhoi3MUUl8GGtNaiJxVGakzFRsix6P7abXv8ErP0tCi5s3d6xiUCBv4t1PVkzl9zF6oGUVSpPAHPxU50SnWUAOlsJ5paGmkBYZDlsPVesgFm4YTpVBXzyjUcqwjpIgxO1PCd8mx1y4A4abu+C3g/fGABBAHVtpKQ8UeiXGVGCVsUuxF2PpmmDNBs/MvH6sS0HIe+QGD0P0E6204PIXlbcCsnCNJzqhRaz0S2w+YwMaOTjtEW/fJ64raJGPuM8LKf+upoyDYH8dXmlBBDMNMpP1ssKnMlM8v/AINzn9okHfNNczHnuC6wyV/d9FoY+bgaob0X6nzjFWAnIvASTrK9SzazHcUkuybuxP36vFb2REuN1J3zMqncuHSAnJ1velFr0uvuOs8wCGb5oT1QyJnoEjd2CMoZhPPzS1bN3c1BNqRmXdgKs9vSdXzuI/R3/oOLJ3MQ1ko18+UOY5E94t2HWQ0ED0AODGTdd70rs9jH+5cogcUxy5Xwru3sIwa5bjlvW0irRREKX0fK2J534MoY7Sr2kMDd2TX0fCbkgkVhH3VLbic17ZzEwmpcADzyvE3JL0YhtZknD5nIi9e8lttkQY4nAeWQ0haLUtL7snqXVe5S+Cuw+h7jwfx+feDHqJU/H8iq79JpSAb5mdcYws0YYKIi8ErdM1F0HQOQ5fhzDWrqFvkN7CEfZ7wQ9HCj8BLytrA/Kq3vSmajTyHXZy6WnStyIPF1H+qzGflJ0GvqM1KRegB5MohFVT2Thszbc6Q8v+xAMAS4EMbjRPKw66A7P2Dwq4CprUhb7zTA2mfEUR7fSwfhFwxUNWSmSluB+Gojtn7NghbLtxAsuMjOqgyScqWKI1veodVAczQZgLREWo4ZN0PHqatBa1ggLsFilbtrbtt0EbsLa+v1ScreqaW1dSj5UJ2HtLREs6J9ApErD+MfL9G4mzo3oeLeqrBv6HCGFVOmo2au4HM0Rx/p3dn1lFKu+Q40kaFRgKB0ARYxnfqb9uwIadxnSZq+HreNqnMvUBKDFAO8qhe/suEGDufXEzPXiyqbOiQhBer4hF4rzHhzz8OEOt9N3F9ACBCUJzsYfpoMpqa0GJhRBA3gDhGB0PDt8xLyDKTTsTqTbl3l7A8gnCtou1N3s+JvrofCDoUMWnXliIaOyrAHJtSApEk3PKLi0DI2kEtB4FaxUAtm7Suc6o8wHOKcCuvlBPfIEIRZ5HkTY3OVu5JRzsj44O4frv1bnYCyFupNK3XGgsvrpNIU3WBY59WQWVJmEAoja4B8Pkuv4SpdrdLToTTE1OBpvvrzr8eea6oiIdq/u4TNl4RiX6sJT0vMKvrHDSbcdbPUbKN2U2JKXdAbleglIA8lb7PRkEd0jO7KwvbB04wYAdknZ0dpMtChW57UH+u1cYz6d+1Tm9p75+00h1ApBOTYGj0viyl3jTy7ELSzsot13+GEq5t42HyNbUm3/imAU545WZ34s1kcjSuoN2BHILr5JqGSrG6dKOknbl8JdP6m5W4oBMkEm0CozeowjtvcyKUDHWWRa0ZcoQsomNG9QyqTYuSBTEuNIAX0GukuBqCt2Bif6PD3lXFi77MQ4kDILpTmoqfqitXl92PbvJAJxyR65+i2lHwg7sHpmQFEvTlNT90pfIdgOiWD4qPdEdCnDDtkVrfExQfb1ZUR7cVwPqBVnuMWBftqzGmku1cOJSqXfYck8s4Q0pmdMcNXIGs5yK0Us69NTWT9GGjp9ByJVIGJms3OFKRYTOSETR9dj8JxQ5LSk+4PZP5nVJ48WjjDcuLP0azcMhqThEkP901PzIQR28iDpJfJ+4xW8ZkqJtP1R6NUj2OIpKT+lYghXKt6kVndpwtLAQmHKh0TWC0UMJZlVx1fl8rqjUwMpvYkhro6YVnOTeT785tXct3LPHZ+/bLEK1/R3fwQAZLWmBt8/zklgO1t3Xj1f1KFSeVx1XSx97R3uyecttaZzpDnb/kLLijX4Uw3WOnJy9Ku83I09DyDYrWywNUdzpJzoY7hPXnsGRLuF9gnuKY3CJ4INSBAW6UStQE2cBG00OcHXIjeITC64ZZV0pR3V+QWhADYUV+KDFMKPUs29TxDI6eWAH3HEdoOyHnCklhkii6gSkzSYGfijVsg9fXlUt/WFECykCNYUAgmJ1rtEFtY6EBS2eW/LCunhbXJKcIUHUYiLu2dj75d5GlsnIY7volGUBA15v+VpI4+A7uhusUg7BfwylaKzC12DiUPsWB1CekJOHNieP33U/rngC+UNK8GdjObN7kL4WsbLEN1J5sSavHBVxpNjdt++ZVq0vG79yO2C5rZ9TxdqZUo37DZzd+Jkj5eiL5DnO6lcl0TOffhdTRdfTBNYS6lZyfgCR6NdZeu9c3W+7syg4oHynaW2gNk2x+OFSEsmEptE/m08BjDDB1qSzxGiLBS/TH/2JGx/4nTeo37r7RQIrZStvqzkY2IOS2CtCIW0Waak0fOrJVLsVsMKwvcrgeMeQOVCFestv7DLp+wuVe8XQItATFmKlkdrs2zQa1HaVzrXPdAw+nDsNe8g6WdIf5J3fBDVwsSwWM6+gauVuVJI9RPk0d8tGOc8ZCTUzMcfHi1t3rwVlqElMtRhHGE9Dh4B+vvYwp+Qboeygx1U1g5hkri5JuOU1+CGQxFZRL4R0F0iMRdrcAP5zLXsBrK00aUuhBHOrMLfBaZ0VH94SGJmNKcTFM/avUVxo/5xOw4pPzBcbaB3qrw7tCVuB+bIAYcpXohfT1KXtefkxBCDLuievr+KhgmYBGMAAa1Y1pa12I/vVRm4KpBsKUuKNwHP62cLTXuPh7/9shV1ttYgdOMqxR7QmxO0Q78Zn4voTh+KV9Z5DkG6+yqLqjCZRGgJKD0Rle8K0Y+rCUm74pwevuh6rj5iri+IGJIKmQgNmynQSFkbA3Y4h0CLfp6yiSbYK4KJK+q4bGoUlvAlJ7z3lN3reEp2At4kQs9hEWWumGQoCfMiC6ZIv09Piog22QI7ogxOmqDxG87Xbh516Yp+r4t+PH5Iw03SDk4rlR5+rUiaS5HYhDoFe4hdZ7AF0pc/L0KFNi2iizls5iUb7M0/VnAeWDucbBGM9rlznbwYFUFx4U7foqB4dYUpL3icgslegKlZT2R93U5Cu5tyFOenHZfZz2RQDUsY7zYZeuXEhaWgtgXkY01DtMf+MlW8SBoTh6hVXYWUk137AHXZ+27rr2pSn9/RoJqXIvWbkb67zgpj2I+BdmRcLdCKxHfmILWFok0ThfQ+0WfLvkcjDCiJ2tkxOjifUCDiVo8/be+YBUsbaJfKltWUFOFyLYOVu/9fzp2droev5asVuserryfWBijHgVgTURfdkL54tz/Uejb8Cm4oiU3n3TCcpFvMp7sh9AuTGbb0AJUHSBhM6CM3kH2yGQNDkOITYPn2I8T/3tSpKPj1x7I1qhsFrJIXsXfcBs8E/QOWipQVr78c515U2XCLDfEIKbJPjZklmqzc5Hc1h7filc07Bn5D4llP5b4LzSvFwsoyIL3nhh/ScbTp6UJgEuGs8ydfHXLz/E/fQBtW/TPSNyLHKe6Lbn9TbFD6mHYW0rwWS0jOpU3gxK1RSNla5A5HJq0rfbYMgmDmddbYSmgMrYIt4qcqIZgogzzghmJo+GnF4UgoIOYJOdTQvf9o/kh15A0Koek/m4iUdET4Cis1lqaq31AsDk4ndaVjl3q8M4mzIoaqQeuAycJ6SVgNRs287/9U5gGQe3LYmg1jFMagxXB3c+fDc8t2ZvDCF5fxdjNlHxKhxh18gGr6Lq9yHw7VVxgMmr8bxaQSWalVBegKPEhRIN0K4BnQ30ThK5p4GcBqEnFl9pr7Bx/eZuR9MkNsHaS5MnyFdmNYIqzpE0oM/SU2Y1XErR2i+OfY6DA0LAWtCcT6PwndbRqAJlO3dMRmYri4Djt9yU3kdX/Li/ze0v1liOC+XEotM/61pyyPm8WJeoTbzDU6aL/b0t7Ot1ldVZLC/wzaldxOHLdNt0dFtt2DAgOqxkzoXccyLyHnb16GIn+Nptp8H3KyO7QnFGERmwpnkWVC+awfu4lnaYlLWFh5NVgrJbtozh1jI+B8Zt802HuS+B8PWyFXgYDJp3zYx4vn5VGIx45ew7Rl/tKDsQBFAwYn6eOBNm/9QhVhJDh2uIjZhuXoR2f64IStw1y1E1fgBZ63M3obNvdMpVtC5AgmP1Qr1Z8YOGy+9yyO0l2mZmxG22N88XH26zYoFhKHcpNaXAaBJtZiVee7NC7FUMv4ciuQDyb+U1u6uR8Wqoaz06l8d8cFJkEQ7U/Oj+dCT9saWeeUniMNZDsub6A6Y/jLx9wyR84TvoToMpFpnDYeVjaticBXueFl2pnA6/WZln1uNQcBmQAcS9vAIaif1W33uC9iDwTUi6s5wpseg8RVC8r0xn3+KxSnv5NHH/O1PtY3UzUw88EvguVmrjlvblqjDPnyJs8YX5ssVqauTtaVmdVdj1gwzLSzNjUmD/6x3WNMICDlxhe+0OpPfgiuB6Lb/Kc/Ke6iGFwvXHRhFGGjg07iu/hiaDOef2umUv5QHnUc5t2yq502IeRtRFgd0d0McXEHtZ2naF8L+ufbKaE8K+5g+2V2Mh6xE8AtRLFRCoLugnV4+Lncslylc55tvA9PMdIP5xc65hUWSsI/FdPIeLHDEllwlkeCxVY6NA5grBpwLsHJiuQVHqH7foehc5LzeX3BK98Z0t+BYJ35fKlbzt7C1LY79AoRh6LDn1h1fMDJgyN3UPK1BOD6OIAxDD+PBSflmadvKUKs3uTIziIHAKZzwQP66Bq8dYXFa2H5GGZruZ4mTj32N2EmJc/zLmr6U788b/NHLmphsC8kfzy23LPmUQOhrSc7P+B3+MegcFlABLIcQm83wkkTdVfiWSIbheQ2SiRhmuhgMemYnAouf7+iKJ8nrDD1ZEKksItQl9ZmNTpN845XduOhCBACad/LouQUlIDA7UlQV5cHVe9W0ER91Yrbw/yNAxHSJEdQsXrJIJalTK5RBMFD/gJsvlNVIuybl5SXN9W1iu+lCeLu9P+vd1hbnYOtC3YlkZMMdsCwqMyhG9S7vWZdLIie51YLU+nj0kikVW1u5BQAyZpKBeAjXeiayW+9eOMmUZAVcx7NSbAd7Fie1K/eE9oKohh5iSiCSnKQ8s0ppKiHQUprO10+4KeMv2uNCkrwwISwU+KZmPLENr6ebZ0nspGR26g987mzZN/jKQlECFwBfUfghuFa6b+2+FYD7qeAavXseDxNtpuekAKtH1AtxdsM7n4HdCos5EMVPS0thl/Wl2vXoj4mbwYnB9HQKladGQCOJAp1uixzfWW8QNGwvdOZAqKT4Ki9UcJ/Et1KWZb7bE1VZqvnPPb43JMNDHPaBXLeCATZu2smDll6zqBXSLe/o79cMp9D9wlLQkzrVtuxrQFIBstg3jd3kKYVAu1J5H9rgZjwt/A0G9hfgwUj2SlvQqCYwD5PYF8fC4HuHOhmQCQW8J+jKmwMJGuWk7p9XcBgAL//CL/bWYItRUcqsxUENrBMo6VJbTmlA4/X4kAT/XflZGUpHUSQDaTJcYp0+3R4Ufz8KpHePRbOj26bwHu/h0GPeHQnvvAulD2/tO+moeJwMlY/u/H85vYQPBryglXZMewdR/iovKpnRxWkF7eoccpOZgJuLAX2d1/GBeauIMbLFdxYSb8pqpf9FYCzcYogKYmd7luGKw7wFOisUfvY0KG95pSRGGzNrj1gnrrM+EELSKffffLHKrlmU11cHjGk4yHEeoXzEfwFMM+3U0I3NrUiUdWR3zmLPJceV7Lq04flrZVOMuYu11nf1uDj0r35DodYN7DnSsCWflZl8EgH9C5jNfT2CR33UpccKgXFI41Ni7lZqysmQP+uF/8WnqhhWTFziaqWyZUlc/KB1MkLJHdwlLzzdzOl2KBF7PsMzVN4HiFFE0rnvuinte89lO0AKx/07QRA06I200tXkhvtdbkK4CWa/ReSNYEWuk1HSVQM05yI7Y2yyX0wDYYiFhwsZNlvVwJJblA7O7Sq+uxJHY7/6hPDTb8he7XVHftTHuoaeY+ygOHiRqa9BqqQEl2uLF8impHwvzHxfFrVIS5JtyDOqhJzx6aCsHeo2lCRJ/J49ZNpYYIG4FsQQfq/OvzzjsW33q+HGg3LeVDnUy82rwuSRZbV90VR6/OIuugYPI+u5JG8VEMBKUOwxesoomq6swXJoQLcB8sghshEMm+m4zhAAK5+R1W+9MTfp3J52ZjOCLV+Bdz82D4WYYOCYxMEEvl/BLkoT1jsZ5Kw1b4r4EAn2U37Kr1ZK8P7dAufMZojCpGhjGqIZjmKqdVPlpk8/uwYWVuKFTkBQfJ76uavBbP6R8UUGCCuXyPrJkNX7x5mlntLpCOU2kax4Fyudve2QFNxzvS2L5uKdmYIL8o6HNTTMAzNyCN3H0df6ZDO0Z+ebqPnejr8U2RoH0BVdhzMFoo4XLW8ZkIOMRMSIdBLV04UPOmxoz/bjQdmtM2GCapeMZif4JpymIgRqPdNxzJ76uemUPlL6dWX7lLEuYdGnK1ERSHQVSLXi7Q/b3/6D4NUbLTO+EeisFeIuPXFBSNTyN05Ge+C61q8qujyuio+GonJO3d1Fsk5xpW4XPzO+d6qEGBIR3wPi4SWoWyZbCFnM0ifZdjkzbuwQUhtP07oQriYNAzGCyWkFIYlNpDplu9ja7xCIxI+pvtI9uOwdcqgvNv6PbZ2MgX1NHaHlKMikS2acgwjPa4d+gAQxV9UakYvj1js0IKenWYVaSOf8fYcDbxtvQtcHl/vDg58Kl1F1qgZZ+WPDh5gZnSPDwdnzWGlNb9UrRG3BpRWB2y19Kj4UxY8F4EmNrOv4bRcatV75PoRJxI+hZu0JZRi/XZDrem/mQ4Df0BERHiXuxcb/ufQjeJYdrzpG3aSAMRBckOTNFLTgzGF8BGTwTBhOYXf41iOBSm0N8BV5LWTv28KVFXmKIfFjHdwNBNfT52uRKgNPYJaM0zQLaZ7eVn9Of/kXnG/cfH2hdZgi2Bu8awEzYDojoEQ6eqVifhAgbhwEbul86KBh/vmrTE/iYkZ6i7ByGhQYOZ6x76n84AohNcAGkPV3TdRXtHxYLgSTh8MSh33K86CSH7+suWP88MkG6EpegzSOW0111T1RFhBdo+uWBNVKBE7w5WEJada6SSO7N04aG0qU0vxWYOJx+eQPfeKhTopd4B2MeuaM53UTzRs6XSmD+FbWe8yLrE6rhKW/pmF0sFyGMhzW/O8ugW1LhJRTLhwsY3Lrz8qgprd3E/kckKE2CWFPBvD3e119BYCJCGSq0rGPRtlf1aiZCjbmXXuo90WRpt24T7fjJbYUAaTRvu4AEYMzDktvuiOEM321JAVvbWDONPYxVn1e4qbZaEmmS1yMZFJU/yKuHRLRIkWO6M39oM+gp6IKcPOTJWbO8zdgoRAwrT9meslpxvez8obHQI9n+TZjbh33DNr8bByO0yK4IiSv5POvsH7EIfXpaT8pNL0K7JmPvP2sXgPRCrqjYTAOqMGV0R3WxNJ3vVqRX96MV4/Vimxk3K1ZoiDECZZ2yzV+yFqAijIvxF2if6Q4IMRo7VJgBgGajaRI6cWXevo/EwrV7bz7vVFz+3u6KjuArq+hK8/iqwZdZp6HJYHy2iKgHDAIiBlEcYn1lARGj3dAaCPdT+BTSrZqMk3NJ0eGm3OWB5LZCWp3SNq/p7wRy4jN1wmrE5O+C4p5+KS58w3JqFM9DKvGPpEKOMd2Gkhp3ANKtwycjGNdxIpI1LJh+3+Y1T8ED4QCj5SUSZf9DX1AC+jCSaOVwtFJ5s0QVxjkYe87Wm77DLwkK0TmT0dEkqcxvUjJMT/qixPVEZ5ywquZ7v4bF98so5I6Q08j5/DZQ38BO2z0ixAyoxvYuy09uDNiWXx1M8FntgHQep/+yFUregYaqzssJaWtuxOZanV7ZghafbYtB0/geqaRBGEEj+tv3njYPcZ+ZZ5fiJtAm3MEfUnu63UU9RacNzx6QA95yR6zpYKu+5xTKGpM6DgQdgseWKrvRJ+EQlHy/vVWfsat7fPoBQkiu/WpBSQX/hC4iKaQvoJxGJuK7g4sF4isxb4KG+5tvnlPkRJX01C1eLGzrPrGQNchYbaznIL8tv9+pFV+Ci94BGglPEHKx1esik0YSuGQo1mIHFEiZudCeWzFPmbBG7T3BGDco1A/DjX42NLY5xaTn00w4Usy64dtY7NXaa748bsmTwGUjnnzTRrRVaaXN4J6WjaL4j9b2kTy9eOcbNP+YWyrKycWYPMBc0Oxiy2oxFYODS4VGShCyTH4d0NZ9WotukzACIOztFM6zXjU7Ip/SHGO9comYEl/eQW3EWg77FwfrwzjLc1i7KLkq7lQjphK43MqpBrkXBPcZpllvs8glJWiAmVDgn5wEG26bSpgsURi1rwyZG2PnaAI5tvHDwOs3XFtJopkIwzN42ThHi8+DTK4nb8w2L75KA1qeuRPB+R6D0yvigJ8TXh+WBBG+N2ZEQu05n+d3fA5P4m7JokWPOSzJJKlzHH/VD6nneO/bLw5TbyxQ3SPXkHwSbize9j9FH0QVRwp3lYrOCZvZgvs6Gp25Q1T0+Mi0emFsOwdc/V45leQGM6wa6X8o4kb7bq2xdytEjz95ROuoNe6E9ZGeYKLPucYDbtr3MecddpyOadpt+whn7EZO5tM2yfh8cKLMAqkASpBRfu+C5+0uN+4f04oN1G7t160TC9oDcxVbvb7mF4jvkBGw0itMt88bVbOOgrmSd7WAViPc8CyZvOBRwOupVj5zF4vN/v0KaUcwswMLsy6g5je+J+hCVrcqUVFnyuP3yEbS+wvLDWaciZqBbxbMip/yxdgO1cRnny0gwnR4dHNJHGL0k1GcI6jfjeMY01xMrXRwNzSxP1+mRWRi5keQ92XvJFHCiEX1Ea58hZxYdLee6LS9gKUFvcfr22DNLEPQmrwrgh2dRmwyffRbLV1aFDuI6s+PBRqA3R1KlsYp0uxs4vzWn+W7iP4PMJ3YyGQVjI+j9AsbkZ50EucqcDr/2kO5LtLkm70bf67iv0i3LdpBhmWsnBy6KlRmr76O3x2y55gNiwM/jtyU6c8+/t1MbiF5bP6P+7dlwBn3PIJhSpXU9Wd31JXosTaB2FLDBuUr9xMJGbo3oJ/zxD3VDOV7PKIc54kmsIx7ORpbnuGRqfdg1EMR4F5KyyTB9lyIWvsrJdWpnhU8wcVuHa6EovmbHUe4TLosswxweCOtT7zlm8kfzLXPH3hpP+uZRSkJpnNQBeEtBCxna79JsNdJyXTwHLlk1viBqxjA721ASB+xu+xhCJyJsW0pxVp2nvaiPU6ajVlSdsN96kh+oRuGGQihWDtJHWYaI75hThJ3Kc1jyOnAqZVLf2INCASxhk8sVQodwDuZqxLt45zp+NPXJXlZTif7YBRUaaPV1VgLHCB+6Qz/9u7ilJQhbmT1l0f1Aqzr94pyZv2X51HQ2PPr1vaw168KpmJ0FJEoSa/oNCs4bHu3usep/d/kR0ZLKzGWgk8pHndFTzbdQCPoG8Mb+wrod2g7R/b9g5ClsJfSA274XRlvU76UQ3DyDA4MqH3EzWI6jtEmlOrHiQfyWlY+GaY6tTBjJ68xLEXHFl58UdA+f3vijJOY5TdbKx88NlSwSRpWNf3JZ8bWfBraNZB++uuc+ZFIQCYYKgpJmIh55+82pBljrniRU+bFG+2VPl1Y1hn5A2MRW3q6vcMp4ZFft7/sOiDGMZnarXFMQ0aqb6vi2Y23iJouaO9uBNWsKE9AgistLEDj0xrtMrumYdUVAhX0tNEgLSx6Uy49aH1d1KiMvOy/D5DSeSpyPbLms2Zp1IXwG5W+yy42xbbX9jr+WUgK0cFpA8hFktfe5E/talDXtE6ECWX3rYJtGVgJjRt5ghs2AP8HfpX1w1lTA9uDAplw9DpOsiauWtHOb5zD4NbnZiVgmr+Eu3McfXf8MTe1KCtvift8rC9t4xAM+CUN5qd4j6DpYpoglIjBInHiBHHIhyonjOG7257si+ECophplYIUjjxZu7h48fUkrZmJaVzCUjBsq/2a5dY4DCFrKI8cj+Rdzft0WKrIiaw9YPX3cggGQlP9XXv0prQbRMBtQBzhqZOq/lKgMF3WXs4/wiLDvDzG9twvFFD2HBVbsPrSZWVzYw9SkYhNZXyx2qJ+6qmfHcpW7ehzk2nOCsXY/PURMdhq6pWb6cERH5xv8YdifQIymTym6vYhWCyVUsr/bfyUukCfSvHfRP/7u53VPX/tGhD8Dl9U+gdYNCSksG9Vm5birMhy7lU9QeFyiHGstEYMkNLDZkuC2CZ6UPHLi9jqCCc4k5Rt69DIqPxsYNj+VyKtTmcQKPsghpJc507pN1M19f+4i81y5XGa3UK0r0Uo3uL+daARQ91Kn8ElV5jRimTI9HoaGzwHhj1ggyO/+9v7xpm4EVYEPBaVJYyO0xa9tnQx7Ol2RcVLwOmSSQH2kXLxYgNhtNATMaNkl+epXsWojLOHBaBHQiXr+t7TZ3ftHKJEIBKrgIoCT2WfjtS8jbly8fwJecU6uIsM9JvmayMkA4cZQ/ZTtbqZP1hmRL5G7ESileNykJsORZmdUGJgp45vRXpDmlY/i+A2r/uU1FTFMLEB8YhAZ1OrGrudlfuBa8LquQJlJu4YbHee+zcptVOCDF4TPR+TO0egz9oHruuLSxr9NGEg9qOOgVfQYymffuCU6q+HEvTeUlCyGyjVr9vmzCou96GKhoIEFKlWXyGsnoPz24CK8ya53JvdQQntyP37/g0dOKjrnFZjZxpRaHx+Vv2/GQUPtTVUP8EAjB1SjVLSbF9bKI3vQhhs/kk6uzokYMAYzwdx4uV+T7OwKbHUuapIA99u4BfygI3pXbCEFHRf9cezH4mr/5qihvMDlQJxPDgoAb76VXlHOOcz0A+V9lNxP8g10aJKNIS0vrS6IjQtOJ7VsN6OUot3r3qnG1oyKu20UL6YmDhdu6BajgM5pvQyQ47u9hwjG/GJHEWH2ZlJy50GoZVsYTtDMXXhgUKSXVdDEN5xMjz8BaWp6//nu7bYuRlXcHOMpvx5D3ed9VMpsrn20+kYxvR/SfyL3JclmgStEynENn5lAxyIQCSQ7JxXavvKAO4ABuj6YEsBlCY0fKs9nHMPZGrsgjS6i4bSbQ8zzX6raGHXxSg8qy+vpNFS9pcluSlbPhI2wmYiAxBddHQsP44lHtYqQpitCp2gvTIsiIlNKbdOWtn2H+cGn+/DIljpC0DCNLtzfFkL390RPE3nA4d5qGj/LJN5v3vZAqutb4hCfmZHQWbhoMsNiRFuwQ7uaBakb0IInUXKVpeEST0FBwjXFQ+nmfaz6preWTddsZejiongmgMufpeeDAvc2IWiZgJeg9r3TIh6JMxrQ5l2Y6/lWS942myX8MJV5d5G71rmXuwH66Tror0qUMGKl6s7SXYyOHefx6UL7+r7yuFZ589T7L6Z6UZMd8BOSFJAN1jFzsHpbTN+BBR8qoUxHaj+JyEJipAAOvYc5fH0zvvq0hlo0rffK9GsV/UqClyplqM3sHoKkwAaYuzgSrFRRNj69GpRiIjezTMvZQDM83CFKX5pNaZIcsER2NSHGIggcfQmJocrTgpEh9XOC5bjlA4bXXILVMfoEuofkQaNp2xRUOmZ0WCU/baX/KVwBxmcVX1h+MjnsW+hqjPKTkHnljLllm9EKeMHPeYALvmJPip+xbMRElrduinapLhrjHGGQqVmAoHoVnH2z8iKwzm2/jzaL4qCnpt+peNhwmZsRjpjKudLYDUdB5r/hJGVSh27XXk3Qu7/WfkpPUoOsnJ5JH2xAieEzmKhKs8cXZyeSTRBldKBFAO/aJxZ7ihqgilNT6cPazmRiWMCHJUWIhkIEECJol1SqaQeXItPg303r9yPxKKL5XzPntHiarJOrEA34uzBapAld0BfDqf36YDhM/d+YPYK4JO6hVlaKxpBsiyV097+IEnhkjEGt9BiodZ897FVj9oEDp7X23ryFTL5gyctQbJ5vKMokgUJwZURMhP+PkIxZEnvYDmssV/kKGxyMTxzr45tHSE/VllDL/8qVTMcsSrHW5KB13jMWgzBTVwl92e4yuaa+OarkPTBXhI7VMOLQlrP916hQXkFdDDtsQ0UpcaphyAzQkQ87FbuIJ1aKvYXA7/tZ/q3IwBcKeQUfJN7Sk3O+RqJDfvODTGvDHAadLdqMzT3in6HGGbsmWVvGdYqXN/vRFitQqJ3f6Sw0MrVyuaQxFEjgJE6eIpXj1hkSwYmn3qaYUdd7LyKhp7Dr58spcsqyt5vNJo320G52fZtHOikJDqswr3cqDv2R+O4BGjPqsLBBBV/pMzQcr6JSYYUck8fMas9QJu15Y6jZjFJ+aSN2Tm9uRC31kj7ZUYsaCgl7QrZRci35GgbGMtPxy0pW7aY4x3Clw+veAB9T7GDCwsgdLKdGRhaq7dwFVubUVVDQmutoy6CAUJ5pDOFvu8Wlyy/2QQ8g/wod1Ftai0Dty4B8hNw+v1aqeucRjhVbGEgS+TYvqhCxidEEuuzLwe7V6yQOOaJsa9w3tCES9BtPUiCbpXRsq+i5YTxhHPL8LB9wkzSod2ZgHnNz+Dw0u6c1W2ztc179hijIid+4cnaBDWx7EaYY+QaVkZ1DgG+Qnfpk7LXgMPXwAf+MiFt1lvImsRt5sB9ECea4qtSF4YJxng9b42+DlbDCtz0CQOr4w4vwgvBeRUFfDvwL0osebGqCvEub/BXaaCEYu6Wk0egBV8queG/7RGoorJkTcmqK+9F+DIzmWskTVH43xS89hV2vcAc8FuglAk/7Syu/D3yxYCutV+dIU4RA+2VTnXI+QCqzLF+XbdF3IFuVlFQ6vpEBMMA4omDp/cnQpYFvVkA1VFnhZRuyDnrAcM5oxuCds1BUq3RfCde6lEUTqdfFcUzjCiDvcp/k6umWld3iShHAXoWTTWFJx2oje0MVRvRXJGvksJi4amhbAHQ2s7ZUVzSdHL8reh9zUsaYGgouQTE4NxieveC67+Ku5pf5Wub+0HG3+vqYu8NfjOtBNwSRDt8kTzpBr+8naWZ0DmtSr+B7UICdEmzHJ29DwbyR5lqcJ7EEEUoE78Xrz0dkUnDMugllcreEOkUElqPpS00AJLhm8moLliXDmOkq56OYGkLYQ3V6Q/gqSRexSG5tE8LWVHBSf3cs3tn3sQX5pSK9L9SfJ96ZQuaRpQhMIjvLYKI8C+C7v8Dm34jt618zNjpQfOuwF9xFm+zXg/0gd3Ou8z6w2Zt1Oa6xqq8q3q3JmF72UCLeruizU/g61dTT1Z3kgj5pvdcdScnYTfNIvE/jbBbb+vzdFX1h4Yb75szNZ9KhtpxTN0Opr4NXk/Wtn2a9VozTJ0VxFq641rfdQJRp/buDHA3wR1sXiaNhkNdvFstzexmIuOiGin5zuOrOZiDvI6kjKBrtoB0vs8/roXJ2g9ncFilLJ5OSKOz618kdj1LpSDt2AF3Qh3KYTDYseL22VMynn4UrQHkMjrQztpUukn0mK7ep+r9vrIwqcI8T5R0LZDFG0EBkgiKZq0WZH4m09WnjCmaFismPwZyiJp0Rb45ZDuwrsb/wNRnGxSpKinBvJNpR5mee0aE5Z9855W4E4mKPjqncf6BaXfgq4UA/BFocq2QWw2lFXLHnfs07FGnl9fgPnUNF3noY0gCncFv3P9uybSWbwd9n6wsqVOxYfdy7TzKYA5ugjJSlLBrh1YAG7l3yWFRR2bDxYNE6SjJbUZ5QMPEZWkag6ZUt+L6SVdK79I/Dw3j5JbDA5tjyYzKD99hlwzwyf2m/o/cXZ9lfsHzQeCcCx/HdWhgNZOwswgVHyWBx2bvmB04F6CQ7yNHAAd+KWVp4Wo8Lqap69t/p4XsBMdbPRnK5EJ4iyZ4HpHfr+6SRCbbC5rgCuy+GSsqv+cXO62ly318ufkm0G8mWOfMoZWwnkFY++p3sYH1FylGaIkgNeMT+7rRcmzbiSL/oWUsHeYY+Npgt/+k95pWeSYTbyby8Wxk+q59VzyvEKCWFItglhOKMNiASPTvLYr+hZJPJtsEaJ770dRhfzuKdf9asOUBsy/u+8kCQ9FeXFUjxlddxxJMRJ23ug19dmaGkbqrgZP49r7mYLWq3w/LCL/OdZqCBTzKgnnXndL+6jw1KHlv5Nbw9bSYrrSeRU3yudfgzoUMcKTvQBgWxEh8wtUPEYbVOJaEqkbohOVg4fnibY+AODZBwFlbYuoBoNBtM3bU23Q59DR/1lIe4uo3N7u8yPXWUY13dTh/Ws84Rn5XopfsfD5kxYtnyEjn2TDFtCeTTA9u6Zq7smIW7vcIw+GGAky01drvefezDXYn2gWnH6MShcHU+Dm7Sg2cT2sFGlgG+3whNCTkVJ16o+/KY3WuBw07ROiq36Q35gaseFhiERtM+eInCvMboL8iFzYB1RtOLMPrLhCBtp9q1BZVUCy6nya77+ahRmETY+uU/5PgfdZrm3AaQG4nHlRFWJOuswqm6s8k0mLCaggN2GZ7VupjM0k02rwi0Sb8utZ+80z8vixtztMX7y1ts4C/MekRFC48ULpZyOALBMqlBL8EAMuVLVsDN+UwQAaHiY1N/xbvkj5bzpOfdmR26O7IpPQSZCSCBwgVhKHV5UUDqriUqc8KmJGOWtR3LkhX20tJGoB7c31anI8TMeN63HqJkM7n2p4rmEjG6+81fU5ZUfLfVqObvaV025O/WX90kpMHWqiWZX8vB8mhJUsifmnjmDdE3YpF310BriY/xtst866F3pSNVvR47TN+2nudG9rj79cfEqcT0Zrq5/4/zKK5VjbEClYmX5oOYcKvYPVnWq7b9NWBOOaEX4TSuxNcMBd4oSbq28W7d4BcGEJbiuYFYZhFKnLo1N6I/7/fiSInz85zNxhX9GVwwKsvtxwWH9ZIspkIvmxAgE0Cl/JmsyXlg925NjQladwVN4n1kH+CncLi26rUe2Yy9xc/IxQiGodpdoivs0dj0CPy5t2mRI76JNy8PAXXw9Y6wNTuHjg79SHc+F3OVDeLdoGyJx9TG5MRGaanwk53X8sCBk21X8qNNnPgNP6cel5WDwRGMbfvP7Mb0icgauBpQyPgrq8rDKBhaMy3pXJnwEHmJtIfN5xTtbKin96cMw29M+jpKoO29my/Tp6donaY1R7nftNx7A6U0hFmDbHTvT9V8KZncWz5I5Tc8/IHAU4U3zmxUKiG/HNc21gH3UyKj/PJdyVxO1W1P7K66T0ZdilNmTdzLir602u9gmVsgDbYeUxutcxD8pfllnI0vt1zAmBky4BhdroMP7aNwAhbiPy/I9qiOT+yPseR1lZRhrSUIyWfYc80JkQ0yXnCIawrN64npuMxf9sQeetOH42yuzyYB/+HKt76IBq0SNwy5TnJzeEf5aEGvSXVksFB/fnl79UBPIrZI3y/ITJCjhix2yvHS0dPyl0ViU8Fnh2ep+uSaSC1J3fJd7ZpvYCGjplc2J1rs5Y5wLE8y1m0/Ss1e66eV3cxyhzzGRcUnEdDaJ90bL4POL5P7NeELNUXgfKLmag0+W39CBrlnmfyYZZKkBtqWL2yAv5VwphIsUL0GLOrxzc4IQiDosvKUg2CtEwgoxaLKjo+grwfR5CxL/pQ37SZ428Rrna4ohyGWigspcpzNA9oO1A0rE7c6gfg0xF0LB8Qu5bzunnJ4L6i/vj/H1Z9bLPCIr8Y7bPQrGAb/eY0uBXNEbLcxMOeOdk4vUg6l1N17m/OUWEm990/mrjDzM5/kMklFKALo7l/k/IrRcgDKWtUMgpd6CwgJeEFj6gUoGN8E9pw1e8XkJ94FvZmiyJeUO+P98OCf3/pWvwxzXOffVTs0xX9pmsyOiegJPzB1G+uhj1THm/LOBcZIv9vrAJzADrCoeKAQ6ikYbnaRITXHZ3MrwMCaPR4DyPEtAZSjEI/fkj6Q56CG/f7po3AFiDPtsFRpOvSFY4utDYhjVvJHwo3bS91LQ6gf97QCaM6/HftzV4jS3BoC1pz8PXzLoDfht4kjXIhO15o3I2srG0+06jpH1A7NHDjIBPJDKwab117FPVxLCDfz3ALAmFJSHrBG5V7tRtGdy7n5gJ1X+SfunthzbCnTWyJIhAAuw7AdgsruIWfcIhCGl0sKFutadDQXt/8N2ZC2TaLiCg8dfrdUVba005j71DZcHtKCMTrhL92P0RzHOSNlu7o+blkme8bZpIu9f02rAbo8w6a4QpVdnp0iTfAkOXaBpRuG9aBLQqpmH1cuBvdOxtGJHlQPGVrmUK6yZpuJQFqhhHc4U8kfrXzCwqGPHU/7PdKHWiSgDUBDQYGB6tdNNpFmaneEB0NSXhDUC0+f5iBWsO9BMI9qTztbs0vZpSGtPxwX2odp1i/NrUEf1GOVo2zWW54vwFn3tsOmTQtXbxbOghqiWf4fhO4lJVGrJo3qaZHLpuj5tFQnEqYE7eW+fAOzqkKrOqvAa15TTPKcKKJmxsM3SLTzIVw10afDNij3G+YBm9K5Smx+SX0zTFtfwm91s2pcCQ1i+8053PTygVpqum89ylMpGGwcAalQ0055bnD1Wxdyd2fuKKBH/Yu3Nek9a6q1uM2c2twcR3NGGeyfSEG0XoqYB37qL8MpVyCsog5lgABYbktGaMshgrd67y1XQBSyP0daNJ8aBV3EpxPz1QHoanjHwgNUvqY40aeJklqCsKstALvAfdhpDgoWNtJy1mdlOTpg/NGzuX+8vKw63LMWH0Ds5bKqkMHHfm+Rb79KwJT0issxliUym97JWTf+CSAVauIPEVEG2zu9bjaewwFW6jeRfYNF5L8DNOAMjnufS6HVGOshMQyMsRVErlOF1Zi9j2j9nLt6GjUEclAFYq5OztVT5gcbzVVGToOuNK0BITTlKUq/KrmB1uQqkG8jkFYW/PJKpUdMqHQFDSywZx20n1nF852hoTS8rUemLKs+2IPo+duzSQU4WU3ewZI4+jdCYq+n8p54B5h3v27RAq4T+8Ttd1q1tmamLRhqOrBnoQkBiUtJaDC2Dmli4na3giqpasXO0QIq6oavo6uLHEs/eCdTroG5DIj5GKO6ciG+RzCJPxkXA1kbW0KGu8NPM0zDxWH8wcGKyQt5d4f1fjT5bv/bDil+Nw+JTx1/76qPFmIswN39A0CiqPMI0nP5Mcz0cfhMO7rTHZcAg2cKNegRseiv0UFE7CgL/J5UPPb7mCFRo77t0xFmIuHOlymUpRzYs65oEwfzcpRqOigvEob359o4+qm8HV87DkSOPzymU2E/egHDxtxMjVJHV8yqU/6sL62xMu/I5ld7gdL/bFxL5oeFrRl9WKT1l0QdaA7ULafKLhSSWNC6JiJfMgDf0/rXixVBCcEkTdvZWfCT9c8fdYq+gtlbgtNtjYdUMkBWt9uScMgG5u4LLwMMG72aOJVJQztOd/BGz5UZEolGR01W/tOFD0mW3QK4I1y8lakZnRYYYxtrnYH7iJ/V6NEVoCQRm7VPa7J2lYNKUdF4B0Lb0HywVH/crF0DJO2oKzbkPM5jJcar9ENA3dZWD90JrlxiTnHJDIL+L1wNU1q6w/Cih6qQHlTyVfEg1FJF73AVkuoaLjr9cVBIgAZA8pk4bOECx6D51Haed1tIwOK9vENrM5C3Ez04g8N8bEZbVN4Z9IpnMPUpcfoTgjUuHVWJRN0BwARsvIIpsp37V5gNPyfYmmXm0m2Y/QGCiFzUro9fDHWNM53Qf42pBV3OYVxzjyaE7zUi2PhvjFSkxdZKN/F91sVFGQlOBoDCz9zNy3MkIQWCtMGi2wM/QCXUExxdiTsLt7V9phG4U2gdKs9bYsuUgxZHT5Nro3v6uaX+AXkFJB9IdyF8Uypw417vsHpQQYykcIh9EcXzq8x+IPNPprVIYp6/olwvxcp1pfBzWXxiT3c+bYJjHiAeI/riOebsENO9qI/JTN5640FWauCgSwmbGLEVtFvQsk+GeUbkiLrXk9KLBd+VFdH/QP0lSuJpt1PQjg1vFWhknakIlrV4iW0R0u6ac+RcNpteTnckirG62lz1kWRTtndzMPuxAVgOZy3Hlnu2xrV/1ch+EGwuL45kmZXpyob+NQz8PSN16IF9NClow2OLt7QAq61dGnnLXNuTBKwiPkY9GY2aiJyrQ78W2YUtdz0RvkFDS05kbenafRvELPHw5CE6r3p/SkWVGXvXXgv+zLeny4FwY87Ug2c84L65y1r/SuNbZziZMBxOpSr0av8ZEWWOcpcGdXeffJBX33GgmXIB8Q+NlgyVIie1m4n4wwhsYFly82BqncG2Mok2AuMGbudG9v4njUIFVapvqCHLrc6BLFRsmUsKqC1NM3jImVKBSBzhuO1oNmhcL0fTi997CCyGslzI+u9nLL/NeRVN/PXRBf1rgRhtbmtI0dZxFMF0sPO5zHs8Dx8fCdRTtIa6PbrDpC3dCq9xU16plqpVnD6yq2qo+7IKe2BmzRPNkOEpE1ubVLndu4KtcYMtc1ihl6TuzUwo7865MlD9Kp/rMhlq1IkoGQRfb5CFYJ6OPYsLGJyt0iHFx4KEpxpxMswhnTGFz5AJwuud+GVEIpE8WlE2vZUk3eLdAavecpN3zK/VkbGjjeHeW4hCxV2gsxs6fRlWShvQyvygeusLk7/GF5q4Gakt0yCi7YwWKrCe4UB9nxnJuxC98wi5b8pwW2qcvmxKHn/B1NHF4qIHrnjhdeMyZF3OOEMw3XcLJqQNL0/+dcq4tdrP7UOGTewh0kAolrw/hjvnKYC7AJE5uS+RQdTLn7Jb6coASLPHzbPDmWCvMru6axUkhgWYPCKkXrOZrogLwGOJBY2TBqvjOvwgwufEoKMHeYSgwbalAg1n05OGQ5J6+WTKVbRBddKD7z5OReFI9SoXpKiyDSuVKSRydxYTEDsjxNXF7ejy7Jp5FLanOlEhksUinh/lGNKGx+fUQ19QWaOfzepHRau0oKppT+Qwq5bIa81GsCSvstTielFgR5cmwJ/lhUplIRdUYRAnp5JToJVTdsI6yxh5hBVu7YLJ7aEGPmjwsZnJkBeVDr0MGPJj3Lh+N2RZAeY9wVmWsUkDLtBcKhm8e7c3MTxWxJKM5keSN7kIdDCopcDBwTdAWiKXr7TgDdBB/sfVhe7EcjB0NQi9y9VvsvEUwYQXc62mYbLN9OTv0CaZYZFmEyQ8c8vBT/wwyQiJsOSBxeah1JmibvDY481EG1bM1XtBrqvxpEq1L1kU83nA2f7SLfwy4lnn1K2CEUSyn5QZNxscYDmuseRFP0kpepwcJfCxD9krskD3huxhoZl1RwdbFg7BPaC/DgJlBxMo+fPCOHy2RGnEgnDjPGPxX/ffr6nPZeDOhE3CbIOY9dAb71+zNhivvVe30n7615+YY6DmR4Mawkay2QiV6aqWO5CPq3AZZKiVtHNIY1EAv7oZpoKX7lAluSJ+T2IYx47PMa3/IKsPOs/J9m7QyjOnRj0CvjvGd3+vFKCmJKzaiKn7k1CjrUdb/5Wo1IM7E8UGKgtu6X70NcxYU5DpiIiji9p//FrVU43QV4vWtCOuMgbf5+Pw9iNHs28Lk07NZMaUR6VJKzAhPzrPCsjqhKOlEjvq6Lq4P0ZDSKBU+AL6o9XKoZyCIvNg8qQXujfkIXgoS1B934H5Nzho7bXZibAPLEtBAH2S8W/x0TiZe1U8zljk+3vy0Qf5KWLn97rrxhtxdXYaM4//fELxtexr8cmv3WDjsciO+rbK+3yk8h+705cfXsEsuQDvqibHz0avwEj3B9yqeNcrkKC00WX4p/gREi88PjM+KJMqvKZLl+s+Q2U1KY/ES7lq6GhSTW6TFUqahy/5FHbB92RwQF8oqE1Moll9d/kEyzwvNJBv3obJtBZA3v+H5pFcP/LEzSGfzGMNI0c9fxzMfm4XGamw2hKZr+F6JCiPYh/il/W6fhs3Vk84csUjjwG1EgbogPdHocE3zEPJ50jLwZNgj+wlPXA6YlNJVtycmnXEaiEgWI0doTKKehW/tpG7Q95CpRqvhA/Ei/wczxeZ/9f7LfilgVZ1nHi4HPz4btv8HUk028WmgyYfEeRmSXgBR0ZxGXMn9ONT66/neyw69SDw4LobFLzpDJspPjOhboNxAgVIe55WRU0tEN/MtWvm8IY3fAQBXhMALc85GAcDtqDjRsDaChM+lwmlsbK/OUcNYNgYVO4/rNdGKDkAkTlOVYW3JCvQXyKxT/p2zaCPUH10Jx/woRGAOqsnAdCQfi63ymcHIQ7NGf1I4WKF9PBiKzfbP8xu8r9IFQ/l0W4jYblW+QBCjOJQ2dPOUqz7ZjFnQWqPOcH1dAVEQIRUiEfKQM8SInDif2Zp8DYRTpzO4QhlF9hl8c4ggmSa0X0oF6Si2ypHx0zn7ZflMOsN17X8W8RCl+92Ty8mvQSnB6HCpBTthveXRaVASWNM2ji9m2IY/3v58XbCkO/yc3neSHwnaB356jSgpu/qzTu/4t0F2U9gUfgLpzFR9XlM0WzDuPaeaJsuApr9ZCYhauBcfs4pAZIHLKUI8i5b0l53RdSzgO6Qhsg2bkDjTV4i2+qvgRqEzxzAwKk+6iyk+F76CZbF896Ma0ZVN5x5wd6y5bTGdta8Autg9SMUfPXnvWhou50qj2rCH5qebtCugIqRqc27MAvkzP0lsadrvBQUmliHLSjF8kQfmPAPOu0fC47h2nAG4SdTmXjBRvaaaXCmX+V6nkCzWEAA++epMqVlnNaGd2HQtpvKC9j+kv9iUsBY/EP5pz6a1pAhzEDBqOdrocRN9gx7jQajnWq4i7+lMpjUgr/Tgit9i2xmvzGqT0+yuhF2tGRMnvR8FSoNemeJ00R/uJpkbSTyZ/5r1Y1me18Ce90OXtetZfXQJM32VBPlA7xkFNepPySnzFNSvD2vtcMcqavkfjaWkmKOLG+xUJsmoCWKDMHHNRs+j9jHTgBJgCGGnST41ixZ8Fh11Cax/3j+5QUy51ab9Ag2bGhqCO7B7y+Z4uBNkGrELvKkh9tSQrr2QDNupByJnGlhdo2ZCbGr169JuZw7vTxA8Y2lqSF1vl2y6rJmy8IXPM3DotPG0z50280ON80cUhUfoBNMA6E3LAM2Ab5KW02EcKg0E8M8E7bfaraAWSwAw8lwOtvzI6dou2sqFEfRpQIO1YqGjqlQ9iOVGLglairAbKIY0Ev4q3+5R+R9TBOasmJzqJESQ6ZbJkZtiZtRNod2+0nWpuF+z+ptapBFdKRfDNmgEnbDTGSLz2d+X4OuOZKV+NH4mJLHSKAHcJfltIsGHdCh7BiSTkqPDYYyTRQ0fRBj4WUnKc56U2Q2sltk9m8GHVqzhW5atz/Nm0DU+yhA6yGlHUdttWxgLbrjm/Rfp0Pl0TlJhecxkS00knzXNYQ8rA39epd2C5ICsJylDlAvdd+Sr6PJieFzP41JbjRAh21ng6C/3b63ceq6nrCNSRIhUBByslUg4PM8I5cs668ocolJ4fhRtZSCQGDBd7D4XwBFho5w9C87EIz+jEPWe8JItFPNsXgRCYseX4CxokEL3IYRKf/yWQUQu9cVqA9YtwQ/sAtDgi613h7+QhkHYXoZUlYFpTcp2J3Ypx2fdaxd0Sss81NjpUpl/jypYnv1zZABw/Kx267XPTbNzDK73CfORU4EtuTorKVTTqyys3SyyOaKLcm88if2etOZe5DD1MW8pIPQHWc4LfnIvFu/FidUuoBZdEIS16I5KHDqt9AkmaC/SE1Ta7vHjauXQnP9CkthPHP36ajL9AekAlf4Why1TjOCwOxku/yjotp6jPiLI8uozOf5xizIusQSr39ogBR8j2m2GMTPumJPcEQ80xgyfz4+Hpz8+BLbevUuBC2Ki+kg7LQd+9U7S1zpcieZMDY+UEzbqYA0sNP6/KhxgrNWlGzkFwPxf24oYJuKr4rTHih0RCe/LLmdxz2A6KobI/tsuv/uvIFFz2C+Blo6lJWBB2SbdT2X41I0PdpP/ahyUJFjUogwfrJIY8CvpvzNzVsjMKN+IlFiwC1F9Dr8f35A83gl1MNujKhuVEjBR9GOocAIn/4rbmIH5PGfFlUqqSabXAf3SSV7ezGRiZQ4oBetmoV0UMdK2mOWuD0emmHlela3N1EeLzavjVK1NuJOE1j16yIZx3Kuw+QU+h/FnNGC4Garu1V3kPML1j/LLyNKDt6iJzF3JZNSftLGb4Xjz/NedsqQEiAVJPx75PRatLVVYmKb6hrO/nRxay/JzAMhMU3uyaSToKJBUXJm9S/vc6NPoo9TP7Jj120EscFTs5FUFL8ZN0NJUgbcd7S5x2irExNXnN6vSq2FWCp8WUfN3gDWrWOgaOZgmhELU3CckvlKSzbt6DHwRZ3LdGF5U8mF+E0giSZO2YlgWOusou7KlO5ypvRIuiTGHileeSXuHbXKdNHiUPwNiNqYPhchY1QRSPSlghSUnrO24JqDRGAT9F9e0xiDabyb8hPn/qR7FNCplVUmh3RBeUXOo1NoKL3DE0TxRCiYcLtAw2pP41OHJclUQxxRco6twfqT7xyx9kpu0f9dUymhXj4zRXWAyx74V5qfRpG2WfZNzRJZETQMxc+ncSUhfTbhPrAZqzphlsfwu1MuHL48Y6Dg7tIxEyxVfcjoRkkFkkReyyxSgvvO/84+WrQ9uD9B9qVYTmoGUUwzGtKyXvPGLBEbbwN3bWI10wLDe+ORyxqKuQPHDmUY/nijnCzawPyziZysjtJMCZuL3P3Guxf7NjO432eIKeTg/zB5k3uFII17Ijw3pdCdFuusKs3F1ZHIBoxLZULoM87CQlcuWqPdX/x0OjaqHwZNURJSCyCDlV5eLfA7jsVp2oHX8QsKXS33fT5Vwpmzkt8Hx+QmKp6u9K4TUkwcrqXul4L1auiVOF+miLqM9CvkV9UYhcnR8WAif7PlUOifG59o/pFcr0DUllCTqT+JoDvdiZRn49LjEoxUyuFoA6rTTd+BiGXuIE9JwQsYQcSiKO/4yEvBGosrthZk0mItVhYMsbPRotfu36pUo1vs4M7giKLn7qgveQ3eBCeXhj6OYIyHZsFAEnTtdnV9uSJRTlGlJ67Raho1EUItqmompIGfqmw6Vf+Bz09KK3Nc6vJYOhZdiIaIU5WBsRHQBsF6ZuvdlxgwI9gqFJtBPDNSm82dDCWmFUB+fhaFnPeVZXpkrmd6lqmwAxzrBeNff5+SWcGDgfQW2zWiEYMesXj7RKOF3IjKn4jE0hh+Egr4SYw5Ppw0mvNMP2Hzo4yFcnbrevrr07Ich2+3Y/UG77Djj/Kgl4ox9434QrJQVCKj4lJomm63oKC/P9+Z46T905ZuJDa/b1E7hFIYK1DwSuXiREoIonOHhlkOKEcI6EAPB0PSF0+I3mqMyF2vPl21i7JX89KBYp3SDAHsn53tTnqQ0oaiU/et7217+iwfdXhdzP8lTLyv9UZeCC94nripLGjY1VqGa5ClIlfQwYCInQ/R8rFV5bxgGJjtRZUoI3zs3b9e2t+9qn5NQa2YrpU8lITmP3s7Lke9QadOorJozTgzDhOiSJkZovwQdiKgqJLeyGuYe0GfMN4FgyxGwnVv68ZRQW2uKrhSFq9pEhN9HTyxL4JJtmcmkOijIVwGoel4b4M2d0rCRwDyWWGpC1WUSFEJJrbiO+S+XTuohxMHTOchvSXfUOnh3nIVsrIFI+mOeaKjxiq08AqJxcCvMVVaI9VtS3WxkXU65Gwz5mrsGibUWdJdgrLSseKPFDSmrUci6CiQ1vaoYPH3hDkOW8/p8GlnRAELs5YGMPzsqB8IevuaEIrOFBG9YgUR6FPK/j7zcQtc3wXddepRle/N+HLcX5QjMM65SouLA1ZtQxQwOopeSj69nEH3JnkK/7HZfrJVZYwzrftJSfyzWNDLhCGH6Zv5UtikFNAVXbd5pAFGjcedEr7X9fSYSl58W1ngC7Ku58ogxItk0HQs6day27i8y5cY5EqShgGnRWX0twIFo2PCFWu9KGj2AkrWqegQRdyhNt71abto3vYzOphbU1ea+Zw7tpj4ueAZJ2n43NJCEd9nq9bjCW4rsmjuiVeVyOZ57Y2jjrD3GwaMP7mLksVWEgVNDHJfThiJS9Tvfz3/dqogvh7Gs5idNFbbPXINJFOBXvLhDTAiBzmoCteUbWLEldGQcnhZLbh8CcI+AumTUYUfoAe1X84u2vJ4u4iJz6wef3zl2eEe4hHXIcg0N5QDwQnFcqoxRpc8iDpVLU1mhuv4JRnrMACDgotHeWZssVJz8p0W0VhBKgHg32mAJloEae6Bw6qYYPBmyTsCCE2xrxRlvbqzUIiRwwB7gMgH5sNqXYJzrdUhoqINibNhGphB6/H29c7kaUFszIIz50VSFuKddzk6yyitBhyuYY46fqD/jtVPNkxxVGOKCOnxsrBJeJZMyeI1yi9fkaSmgEZIMBWFTDNQ2vIYIu81x5CWIiWpI2X1aMdpYGTbaXsnpvN7e5u3CnPgnVxPKDThKmw+6nRe5xToSiac6Si35Y5jaGq0YTXGFevdR4joJqZDsccFZKHYSKXZFqYXB0kFnqFTevuU71Hgm5eeTYxvjHcoWmyG1lfhFolhiFWA5QXpTY8vQUrHgpa5ElJUOYng0u7ZYoX5s+wNLglgm63S7urrGa4lem9sPY9Qq6IkPe2eJ8uuN7RIzdadt/VfAR+xbttjMYnQbzAhj/QQjMvThdHvpBRI39VngaOgtzY6fRb9VhXI+9gI6H3CxV2oxtixhtjww3ctJ1Lj+lFy+w67sjWKfn/XaQea9kbxCgd5EardfNkBpTi/hrr0zNshvcRU/Jw29+HWwpUuwnZZwyW+/vn2BY/HYaftzsFNHUQV660x7/JgYGi7VdMn66KI44cNoRnF5EnzWY9LYh6VjHNoostLz6Jo4dWoYiWE1yorps14rECxHv/KiVkrr+auFEH9KLEs9p+I75XxJJZhzrjv+Iunhxj5AwT/jrFskuP3qW4j7hm2e0hV96SxUe9lLbfH61Xo3zYJgt3/BDesqGpwvyGDsf825E1TkpKWE5wJnAklgxjmmKoO6uo86oqMUGdWeEvkxIGVloEosDdM+4EYGOLCE7lE0jBVhIgdrXe21z3OfOpjqebUHX5TfiPmKH0+3fCa4dNkA6MHc8AgT+DECjzYHvoDfb9zfdLNsu9EopvMRfh0xMHCb7ONQZPASRZv2zr2axtfGBPacnQmK8d9FUeieuX76L4xhbP/iVOxTATtr/2Y++x73DcoFfiuqx6rP+nw/VesOjldVrDejqCEOY071Y9B01emsCQNwU4rUwR5Xzw3FDnS8ZDL6+qm9EsWddHSYsm7nAP05K+rrmj9fjxa8kSrghs950rSYc2FkZPf0JhO7+IbQnkAZn6nutXNTVFuCCsH/KEv+owiYB6I7SlZ41EVifJHrEXyfFbVdAKbbsu2pck+Pdr0Vri4QsAtRO+GNYCkSbM3QbeNjV8/u8wrFW4qdWwo3d62OT/qMrc5Bk1HpJ70/0KACxSUnhLqziW3e2M99N5iaqwBEPQsf9CG4j78OInbzBjmcxZcJhZ7XV53vQKBIr5xUT3tOtj8qc2wdOyXf9n0UGxDqCMVMI4dRxb4Et9XWLrBIpVO5kB0p0PyMw5t9n7Few8e9lxB7hTKEu8z+XkFUA23FDpykt5K0oQRqT/vBOvnTWP1GiXYS5Hk2yTBfq7ehWsMJUtbJZA5wwr3Nmrk7J7HmJTV3FMXCvAF92LPMX79opICnh715XnLWGMMQKGDOTzQv7qlexuDkKW1BIi+zImQsrlKjRHQ81Rs4lznTkr9kGXisbip3FZ7rRfqd2asdxZNgHImZfoYTg7xKGEX0KVo0M3D7Qz2Cyy4oi6zNbDEzJ8Jof7xZZV71A8TohU2yN3Va1HwX3YI9UIfcsuOijhx+6o2ls6Q30WAbv64vapNhtUJz1Q8Z50PNL8PyfwhSBgR20RouV8XmIzCgQr+S2IswThqJi0T7xF6XDLNsvr3kG6Gw1UhOlPeWgD3OEMxHd8nfYNCdDB49IUwhI5tW2J4DoSKeHJTfJoQy9cVlBkR4evLSDcpPakyQ1JEAV1FH6CUCvvTuB2mTtNRtxJPUGuU2a96Q//h5IK2tc5J9VnvPY3hoTG3B4sAgoqd1qmSlmMcwMujuXidooct5fGjmaXJXGzyROXlal3JdXLn+VT5zCMv3I+I0q/CnueGIaHlGekagUn4OgVxZOk6QH6bnjTPtFXuNjCHl4/FAytBisFJj/8MTEExSgmlDvac54Vs4hgc6S1CSsc6d6WifMqTRbgsQcJdeSQbTC7wNqVMWsyi13Q+dJU2BBBziP5gDiwcpfXhlPHjgZaJzWJPPVcCPC3rsoqWQWBNWK87bmz2EZuX35tTbKLQmqgL1EKGtjCQyjJWP7P901iiofULcARQ6OWjAwuIp4nqTTwnOAKSuCYkNLaNvs+gJvDhvhaKnbZNpXRt6vCQjDCyxSyTfFPDPwz2/ObKRqsuyoeukvV2LmT59Th5T/zQI6qcYqnMIkmKgpmv4ZNJOjX74O20cSGT0HuSUJNQOLceGTq9RW8/6Gst35H4+IxSytL4+xFuSIl+01nM7DGg822NSX880Qrc5Q9WXRhQgZfjBsku9zLIELHIxvUQibF2gXobNkbvA1XWKzkIbCHgmWXDhsIc5OEO59xwY1c+vZ7r4TMQrFV3WFW9ByEBAUkAjDlKOVjXTcE69tcmQxW+mpsMEXI8bd55j1Yc+LLCm1eg2ek2NsZAkXt1a5EARCjzArTJgrtHUJrZpMOzujJ4vRxIFlXQ5fRQEMujFIA9AsjiNQ2Mmx1NK91QW38FlTcP2gecAiXRXzMTYqA1yLbyAftENxNDqoX3eIIuPUlfOO0sg/ndNyynnPrDpCb8g2X4PsosM0066iL6STqn0YrGhG9ngBBY13w5zv9lMT5hHduO4mlrGUXOCVKSMoVHA7/eHT/LOA15Ez/iYM/gKanj4ExovtftDowqgSQhxnOLjp8Bh6KXSGkY4TCJB/zJNdaFLXH/ijvnyqTYEMw4G1uvioBv/Jw5mlzEVlh1Rg5haA8lwm/HbgmOglkbSJGlUIPFyr7cAqJUuMoUs+tbKx4V2iG4pyT5ELiFJdWeZrMBHrn/rUBjDHCDGnek5R7x1Uswf9BKLhiBcmfbFRjXEhIC4RUFj6PaBX/Kq2TC77sccUXAL/QGAcPEOm0ULmIWv4sEl2xNwA+2IxISyrmYS9Qz1A/fJmaWW4ojboy4e9+9paqL3hSba0Wrp1lJ3AcQln4OtIN0ycaZ/HjmlRlJyXagbSYLyGloeF14IrDB/tZi1h5e4bJrsJ3rdsV2/CSLnH1hK0VnVbYsx9B4XR6ZAm7SKtosQb3n6zjRr7mOJ4CDWhfW25FWtAgFcDch8fk+KAx9IfnBm/JfKkYS5pNMq4k4XgZcxXzxD27x1qDbcGumKhoEvgdstQmObXoOtddn2wQSdrMMLxNjRYMoq7KgEMbGy07v8A6SM4YnSQqBoK9H5VruZOKa3ZNh0xO03gEr81HB6Fh80mnS8WRGbRFfV7Sliq/glX4gMdrkalQJwloVjlMSQAtCiV0dXwwcd/JKRhjDpVuQ+OCpFz7mgbEHu4pGfWWxVpnIQe1DDhj+8u4svW9Mb9ZabWBaujQqDXLe14fcD8G3jKnk9ouCrr5lG5fP1dVZYhltGRWDI2RpBQaxVA/2hR/pTAg3j9EpPjNj6uA3hsQgWhsv6BpHlhiDb/6O+C+cSv4nTwNgAKtujKe2zyXpzrlM181qBBjSmMb1dfNHt/nGEwWSNzrHkd4tPS1LdqfxPVdnJcVY4i924HnTH7h7/YgeZf5ro5TtUV9M09EggqEufLyf8kvTT48Gxcgar2AONe1CP4wFidsJF/UKdDzTPkg6V84D2RupaaWp4t8cvBO01kv3Agiale21Crvcc6LzS7Y8SRRMmSX/+o9jC1aEHyR4rHJhESLSW0hLb78GhWQ6qA1bqo8pMkxDj1dkThRzrctn/gmkVZYFuFDkoFA9TGt9MWyQHHHbEp/OvOsPnQasMZ6nDavpWJaS52kY8Qa+BnhcZmf6llXNZqxvqEAbAzsq4ouPE/mzn9cnv3ax/eMQTEk8NjA9zdhXg2B6EF8Vp6UVIBqi4EWGl4M2huRF/PT5lxgP99r2ZBb6qcUdLEYyAuBRoxQbrorqb5yjjp4vxQi/f2qvq55qDsLEQO0QnUKIxaZih22rtBtH/IZwU7Mfbw8L6T6m2DMWKwPbTCArhe00IrO0JsaGs949PmDEGhHJVneKOKj6bwn/muiBkpnPmK/D+LwRjl92dobzM8C/6kliXGKbXW+fAGIYJ+bCixogQDhBB1AnNDamL/LWq+H+vQCxGaVq1dQXKfDsmws33/v89Fy19nGLSnSGtzuVQP8pcXQ1bUIYQXoIvXmLwA5+j5cBkE/fB0dgkS9VMKyhxUWukpuvN+P7ryydCTJlrENrcCchySC5J7jHb1GfV7kvndQy6J5kwZUNUmtg9ZVDSwFq1TODxvZMSFSw+fL5Lsa7ixuG+Nuk/VmgwxeifrVTGDjSObQfuYKHuWm41GB9TZizJ1amVuKS5DPSmFBoMTtZYJcSSzVX9RP13rVzmfZlyps7KXSYWqvB4AdbvwkmQH8bkXT1WSFToeq2KA5pqR0ozpOmI3oZOIledyT8OVCXGJwHLDYK2wakYDUc1FEflmgWzSHD5w0VIoZTJ1TkbzI4CobcyF1TfGUdwQf79Z0RE7K7qWjmgnFoT7bf7sApy4f5ejU+T2F+8LGWiFxJ2oRufkgD6gXnVhU6zW/rKEgdkVY4u774AUKL5eGuayVFYl1MQUp2ctENVRJPjZDKelU82Wj0kWUWJ/fxUFMeCtl3OxJcpEsf+WuyW0VJMALRmdgafWd7cj5JObO83sm3jla27GaRHaX+/Exck0TQN0FZFjHxnxCzvEFebK+FM2QNT5r43ZUiBVr2JryDnKgHstqm6sOwzQPEY51UkG6YYYHk94hBRXyF+kehgnDTaOwZFGCAxEfFuLs9dOK2sHm/tnmTEJFrZGGB8MbTi9oTIryCvXMCXF9cv9fJC8s2NWqs2uWA5rXDaCF5Jvxr5V25G1CoN0d4EQOlZSGgAjl2nCpJ96Jnrkpk6m8yewQ+cN9Ksec/5Ymzjmmu8bpOLoijkxBQUM16IcZ72oDrn2TkOOUYg7nOcFtDKmx+tT24Am+WqlAX7HU4levBJI1j5bEqkeBXliUW+erhDDQex+RAc/VV5VrDGKUhtiN0NrRVBdj/iOs3X89p65KiqkFpugZKX3157GoyFHlbezqXi21K6wD0touxOUQp8icac7sRUS7ZNEWKMJtynifSGsLzAsKeV6BL/gVJlG1fDxlmONIP28uChqMV9M+66NscC0kEnG4CXI1YP0Jdu7RKJI2rwybSXyxsBM1hKsdEbBSYSiXQUNUw8wskZJRMrEu5eA0IVDeQ7KIQ6/DOyJiKgkC+BfZq6BJ046Tkb/EWCCUfM+hlSwEf6DrcaIh34JTF3SUR9Qk6JMhL4dVdHYL6vyS1+FsdoeQCIAdtsX0FfOPv/w4CiIY/nYV5HGr2lUnPTWrUm1PDbpcj8FdZj8WsKnAIPeIXxNSKLpaN3rxVD9WTNDXqQvJewucHp6AEMb6ClsChNbFG3O7NNf9uoChcdr1YbCmn3buBK5YkMxWiJQHwTcepooq7d+b7TYs4SiJaJDmY5uS+b/ln4GjoJm6iF4UCQDQn0A48b7bOqpQHA4PJtzOWxvg9sZRMyvOdDayqwb4HVVgCZ59HZg8sCH/X/L+Oz67L8s/p35hkTh1jwD2vAbJOpxOJI9MOPQqRkxUDB0WLY+XM1n720Q6lXfWv6c29FMivqo3kTtJuxGYFDNFngPu7R0Nf61Mu+VWFdONUatw8UXzbTEwPxauORWk88LQMi7i1KV0zqQNfYTwiluAGKrmwuT9bgxyvR/inL0MoQrOQpnzHD1hUFppAhYrwRJYlDwogs3vBIVzwi2Xq76RuTDhm/urs6pCng1duVe2Ymuy4VNFimvgdNLQCt6MmXYeZeCcNgYYFQpRqAq40ez/4MlRTnRHyFF/zLdlKgk4mV7zM5ULjYBeunXGiR9945LCCKxxLt8hlzLUDPs2GuQMHPYy62BZaVYgKhZ/vGv/rsRDZ+Wc3mG9WYnv699TDRxFa/nYmiGZvXU3MQ7p5qr96ToFVWhwnDC4UfC0MvrVnnhLUz7VvNczLy2Q9vXYbeJYN1SeL6E7xDQJrAtw7nqJNi9derdnM6HSUf1ixB7d8+PM0Q/2k4FHv6uS1p63kjZM2E0L1fd2vS+BBum4pqpG873NRFZKe49h3SpovcOS7FJJOo0rxlMnrA1PaeAb8pHlgsi9Mx7SOeVFoXXgg9qSv9oPWfbuBU6XRVHgTqPpLp0+iURZwFV556otbHKpsWplbJljqg2rjZqWuplrc8Ui0g+WRNEhn+6MnruHFSR1Fo/DocQDpzOm+W8vliXfEXHJWxii7t1kW9i7vaI8R5Lh3Kew41L/vUgAJ0zawTul/lU3y/xxvFbrtBMzKt1t/bThl460dCpuEfI8VJNZhAOKXE1uIRtaiMTZHGH/f89GForxTNgqTyPyTRgh/Pzxw/zuja1gCII4DfrgePZktul38hmuE9bF4UscnoVjYYYDBSWVOqcBf22GFYiwixu3KJg8z7swRojTCqocGGrplNywXgTQFgGu8WwNZsp4hcXTKzBOzP5149ZW4m/VzLOzQbYN3easPqbQqPwsIjSLkSaJoYIRjA7C2o4gkGxswDtRxY6qI1OZv9yrLoF2fZ5c0A0pj7FFzyyQbr6qhoKDXHEvHTKzG8aM2oER9RMq+zfaWe6XIthIh1G6W57KY+4Kec1Ob2aTuy1/JkUf80lfWwmkotSg3aqpbcvhs0niXu0oH9VaBfV0zmHRUBQ7GWXODu4ribhGCY5uqX4MaR0jZBaZgVqeCzpxqrw/f0dsQsP40xeg/cTEMFLOboBvRGNWDUWQ3Q4+cMbfXmj1+l6tCF1mUDQxr9+O0O3RVfWSA4vcfRYHBOVj0zyVr+8T0vvW/WMZvnC/cns8tmP108VIEU9wRcyKUhvx77bo0hKXraM/XYj0SSNeUsCt1BxOT6GApDeehD95M2XrkyoP7poyQX0tRwAqxd1I2e0SXCBA8A0w14duwwvJvaXl+Cb9GG5CocggwjiHXlfIVHd4+cpiaS5ypSMes2aBdsmhDgjbCNr7egkIckIefwHzN6JZBBP5ATMgcpR855PRsbLUnZ4LKC14ttcKcG2EKXqMBgX+I7wi1isjfZ//SDGX/6dMfE+Tk34JF9fsXwljE7bDK7DziCyEvgrnjgI2a66Q7w7btK0YoacCyP1CT1VnrFGvOwci9xcjx7Qgb2jvA/hetKfESx/VFujz50jrD0axnrHBN8s/mlidbUuYc1Vth+hfFjrSad8/pP5qR/Oc3ZHLJcw/x6WRfA4zu7mLqiwd+w2ZsVz7EXf/m8wJdXBAf0FcIAwH/8Dt0to+haGn9q7Y+ENEhQHQhidP9w0Mx2TG1HTE6LTqFg9M7aSNlZVctKsSqvlDFaoHQmNs0u45Jw76c/KDh9SJ5s0rNOz5q+MMXIUdmcJrsUYoHUSLU5Iddq1R3WOHuBJwtyd7ea5ji+TIlECO3EbRTcys2sKUeu8PWdFN7CPtEALRvfyrF0KmkrBuuDCZJwhMUthhi6+iyp7tNpuQRDUmIp5TGycWCwEN6bafmWdfTU/mo4cb/38R/AW09FKUUhTIhIkzmciVsc73hKKo8H9MtWk92lrPh2buzdupApE+B1y14NwuAV3A4xAHxchxzhNhCrkTBAm+jfilsNjj8qt+kumoJkgcwd5gWQGHywE5zotV2HdyaIEqe/uwfKGzFMQ9m+u0wrxC+lMHndC1fFQvsyScnGSqb9EIq8pWdlTYozD4XqMkHW/pkHCJr19pH2lc+3cuxyDhqOgewCGlINg+UNNgQSqW2t+Pb7dqvXdR3R+QtGNqO4/RxKwjY0yFithzaFI5kODelDaML6MuDr8Njf40t/mOWqDVWvKwrqQg2LIeI9DYbxklqwwMciVVjNe9LbbJXz6yjKU9bDFyZoMqep7Wu4Z/uHggjdQ6cjfcY+GQSKy+2x5DRjMVE4IUgbfje0wez3OECraX0pHWLUx02eXdDzcNaEThbPVMzE1ldZXIYUb9yUHIBSnUD2B0NxxK9UlmoqaOzgqmRxpP1oJgCEX/YZx/J+kj9IUsDdfjFNomHjt02uQgL+Pjy20ewPEP1O+6VXB4nKdLFWB6Ugz0+k6uL2sCsqIJFQlQZmwyJubmVyBw3OeR8BoyDHiGnAbfNDAub6mhrnR0yvSrhoJBLByNAvmXUi5cI7jldnRLFyWvwxzxp1MWMOYmmLKAqNnbw41zweS0Ra/+GaHj4E+HGznG3nRDTKh8IGkGcSzmaY54aD+nqVSrcA5hqDTuagaXCe9X5MBJ0q7LoZYaOe6TL2cNLOexicq7Fh1CxKH5c77sG4ZYDXrqUxVn3XHhbDF18OHx9yWZ+FGtBg5Ge3OMbGaHZ2yytq1WLC++6/4BN5lCyZSAjvdQ55MG7nPAefCpnj6QMCWIk4MXSqowuKaBDzz8sQmZSB4zHrdJABziSY52aHIck7EGten3+NVcTiwdovw1gnsnBnELKSOHSKe+/iahKqU8S/5zNVLHalSgeC/wTU3+cXKaEIHOSgdUiGLoLRTrvvKadnQjn3yU281Bare2iAiz/xBBMIN54Jfi6rzwqE2/4E0a1ckVs9jlkoqk2amAVHoNA2w/+4lScuazAg7sVmofDffU+RVN/ivSebiV2h7tmIDODCN2ST/k7tZc8TbklpRy0tf8qN1rgI0dzvYm1nwA4aod+B8f540VYcyKxSmWGk9CKwZaUr/ty8D3czNYtV5hijs/KlR/8qUy8D5w48tiDyVlcXItaCOUt9xbdADWF2as8A2NwlQ0bFO1mwkqF9hVJ/xUyRcINlEE8xHmrQCxWAOIsLQbEHV9eYIEciUipBeMLkH8JdVf7PNDEHPj/F0v5w5CWFwP+QNZGC2Wxr1Pwl2php045/S+9bSd67cjjXzCH2Wx7pIzBDeHTLnvKufNgUMDeveQF+vVwTmiEX1MeOq03awb9A9qRJPllpxMRKaa4mtaKGgYdaPQs1E8GQi7C6TCeJ7mke9X+qKvQtnm7pni4OFuN70mq3x7OJTh2kvvlYK2qYYBjb2dRtU846J9lo3fTZVGXGNGenYmOZ0YpDd5xu95y+L2WXz+TdKMrP7G6K4pVRZCIjWYsbSU9bLjG32K0E+wFsfYY2NmJtQ7YCMUDzIJGHStbfdQXGgcM9lr+et09RyHuWFaf0jvaT8nIss1TSE2PLyvquJH+fCYVFI1BhkxaX6vcOWqXGO2KhjSZqFTHKaQ2eiBfEFq3gfUPEF755OKafLgLIU2kc/VvhXwqfLwagKI9N6rHdCHS6uEnjiAvx0BNSFoPzfyAFlD5w9YVgXe0ZYw5mU0m+r0d41UxtUVo16rJuuGygAxqHMG3aLmWCX0xG/+NwvB+sLUFRK09pyYuAnJWktCgBUV7+yHKpq63SUFsosfCQ/d91FzPs8zMC6Cx3uyWpJAAxOT9+pHlX/XIBCgIJaUn5ljAxiKgNJlkbmpGCNRDnosf75FHsVFdro4gXuPS8+VN9vN2a36Yh8pNgplx78U7W0jw8hfU1s+AFfu0wT1UH639Zh2ImlrhF+acgBpwcILYtffwztR2R5L79v3eFXqWKMqU0rNIcs37HfNTiZ+o1GjQoZjb4T5tOP4Apk/Nq8ZVX6u5xSZi3IyNeIEX2/qIdt2FOnC4hO3gsdbX0RgWUTjAD5RsQTfivLhZ8F/8xFhBd1udlzg2opnnxmGkP5r8W0kprRQBypg/Vuc2lxefAXkpR4TR2Z3ObrXak5fSQA4Riz7oL8yIBkmTOK5NJ2NnsTUN6rThMhnBTmPjlXpYIFaREWTXIRYCKBolZV2lScbt47lF+SUqg9+MQQlB/9nkopL+xIjWh/r1gGLacKXQCfOranZNJJjFyc+JelPDRTXT0Bubc0jUHrTuFTsJewc7/fGjCJYvJRsGxp3HVyU2X4SHRBhxunaTKM65FH8fOa6Hb4spvxE+7wpoJbb7cO2sKTEtoIdLplol8YH3IswVeAXJ1hR4iDKoLQxNRPabuCdvoVFcnUGGnf+nXynDpfDzE4IFRLHyZYtDcTYeHXJ41OLk0X8qPtVXtW37eAXYx3WNaELA2iJzHD5pdDI1FYpg/akcjiDgBAeBD2rqOKAwPlsUgKxvcs27ixWXMCBtRkGL+8GnpsHOPSvxd6+w1yfnRcZkt3/G4ZR5cq82AezTxly8zFJUPz86WXmp+kVnnMEYZLBIEBl2zMBq55BaEhyEqXm+73oDMD5hpBpfzpA7jHH/oDbSnOLUl8ylwD9hRpAAFN7F0rCOsXhq36VevHLMw9f15KKZVX6d9QiIdslRTqObYTF93XB8AAAD6BsI+W1z+EsSqJXqcn8pDlVGK7ajedUToRcEMWTDs5BPKP8uhTEhO6ffk14kt7aR1MPUCPGZEr/IgqSrawF8xqY4sAGv0Q2ooN3HS4oXC4rHMsNAzjSdRVRNIjT1VzmlPKAuVjIBblmNl9cD7C+1R3t0+CA5hgsXOacDu3xnDGprWednZNqKqyocHnX35iwXzQs13VkYRQxRRrRR6QyPvxMMhwNDDRIYwy181lVnIFSNNBm/QlOEPXy0xkmg+kMpj8ITcTup9I29WvkBBisOizhfwshoG0dTjiyps3DRh86IMBD0cBr1UmQXFj5oAmpsXKDRU0m/8CnV4bIB6/U/+ZDgTGhTx4bs/9SGifXUAXK2c1bZHHo0zDGcOdy5mgHvnmlSMsjS10oEY6O1JVHqOtsBaTv/ul2pqvkWKAZuXrmtrvhIe29iBPhYpetIG+bxR9dtwCTwQXq6vTsEgAhcRUpAGzzLGsTnt8VSEFgvLNiuLesFexD7Ve5iWLzLCXDzqDYk4rXq0I7POExvcL/+9Jrr6pcoN6BevjdKxQ5DDeEvwzTB+8y61mVtHwmlKWt31pg696e7fWEec+vn1YjcokZqOxt1c+nnqJAzH6TU/gEos1+gzJWARuBbLzBLLVSIhequRoR3759o+q6Ohh3M6x8kNvOUlVqUIxVctDn5hwOhWw+jTajUG1ImS8VbJQJCmoyZl4nI2T7DF05srpW76juJ4Ri/J47sDPO34UCgakNoutuhsmCv47LQMCDsJ3wzuf3fHM0aaJQaEA1uF6CqzviSQwiJuVgFTgNf2uijg6nJigRo9CJpkGN84Yexk+NbAyWemrThfJpwpSUN1eVkrefB97P/zgKH4/vZrpfH4ir5f4oPx/RxIatkzSUDgLCrtsUZdyIKbB/G6JboyWxPWsZPqRASs11cmJnP8L6qhljiwYftiq8bciu8mviS8hfpiSNM7LK4cz3f2FlaV4JOdpypRAfOAk+tFoOwhq8gPKUX2NPzI0XX9ml8Vn7r32ZDKfbpR0hh68IGlHrq/mW2zxEBABHkY2eCn+ik8rW+9onNA0l0ByuZhgDqrPHyvk7pNqMfp/qcMG+TYfjy8WJtmbzHJ+UB5egz6QGw+VCVvlgKwofb4v8wQmJPOXiufGCIjXjdAlbefIU1A4E+6myFZYi6cOVgEDc409m68WTfoHvkdQ4ofMlEtESHD+bTNr+VtL2pomgKrvWzfX2va8Gf/5FZz2pubnXy6ay062QumN40gVjLKMKsbE/P7qU0zHlS06ECvOxjpgonLkPGCJu4uEkdUxqYFRyq6/ATxTGSGGm+tA+ShrWx83iQ2S9Uq2s1HrqLNCG3l75YUSlWoWY0qIsFfSBful5Nbj6hMLMn4DNFBCuNNutJuPTT4e7lW+nnj61iIqL2V43hEfxKMO+FYbSKXq2eOrO4O0bkGMsoPdY7X8glyjmna/3a3LSGayYzVf1SJpCdTbxH6kWiT3RUNNNU0jlonxtIi38NCUrd0B9mUIp+mkMUL8xYpE+5e/hfi1Jmh4BFjVfhdknEB00w6+UFWR329roI0xm348NWNH5YtcLn0QrqTeRtiaMgG7hD7qNmOvPlm1UVrF4xlJppWe9kXtnbRpmUdEkEnWi+nE5TfX+ENtzK1sRQPerp8/Frca/a7UhVQdYYKARM4L03G/N27tYsGvnDyTdPmJKxZ9kmpeJocm3PSgUs0RADV+6OQ/V/nDLMWWv1Bo4gi3ZvW4/XNUWicYmNDlGq/TE+lQNRMPTVl2jMjf64fHNPphVs6GiFrZd0L8sgbWD5VV7xjluYImBccswawJoznJAuuWhJqW5PQ9KpO4K9nxl+0/SZHYQkFB4qqHhxjgyiHvvufs9d35zYUnCsuX6K93zy9U67Dn8a8h0GWjRp+U97GDlF5gtifyS8YQXfDNJ7V1TOUK3SY3IREHAUZsEMpacRcH8JLyz5GNe8hAq2jpfRgtoN4MlYBYw+LZkB4+5wpYusuyi3/inG+8hEmqyR1rMJsT02+D5jO2P8avnJS9XwSRu1RSiWm/qHl+eHlYsZPAFMGxu6+chc26eeF8LHq03yIgyyrs7+6222FNz97iESYapFrgu0KpRcRW8SYPlGfXITo5o9kpT3Etsiaygu+cdlHniK3EjEuEj6cPhWwP+8qIderxA5iyBa+HQGsChs7pfzhKNBI5xPJHm8D1opvHwbhhZdx9qMOwpPvD9M6pRB+tbrhywzC1ks50HVElTBS3vyumq+jUJ/+h7bpJA96+k/lssNvid2I/zXAMabhzeQ3KsKEonTH8qPw9p426myyEYcBMZ3FFqXhf5vitNYusGiVfgnUvCYcZ1YWxBB8sG5IKHwfZbx3jP5IwcLNecNv5baXe/7I3YquhUWjnL8ZJCGQUNFjCXCEVy5/WJrM+DyqRFE2HapwHG8uANKTeBcjLNlOG0N5E4PXHUEHkNhWiySsYZsrkG5/3+FqpniZsOQf/pLlbe7WD8bMOA0KSmI185SG1RLf3+j/Vpl/0k+SodSC8LWy8HVXe+bGORH49LW5dQmwIqLDLux1PJl1k9hvzDvP//lUThdpefj/WqeCLbvzj90umt+sNS9pti0Ipv49MRV5IwvNjXQufztIOnirs+zl1ST3OfRj4mRQCWy2VuBoJvXncpPAmkM1u1W5Xe6S3HOfJN8go9ToOSCUJ7bg3fvXrDkLQzOi/MUpu2rV3CqpnZnTHIEp/4yUP8dqnQeqK+kCeBvi6VdyfeI6C2JcIwuGWV9iSM7LHUlcsVGt+myaDGtAYtgaTZuufs3jeotg2DIT87b33ARzPB5EQU69ldOpiDRNWA346Ng8pjkSjGgwpqkQC5KHO+F47QBrKsJtg34lXt0oX7BiohCKnzltiyOYoSHuoEFiy/IzUbZVpw1Sd93kQM21ZqkBiSYUTrBMLHC79vR8KQUJtwhFnUSIJRG8ZftMTYsTsEJHlcXibd6tMk4uhrNuLKb3D/67KoIDpQYppNzY3sg0/lsTwNVVdXh0XKn/fcMDxKpYodzDNAm6iU88E41JUx5edTgM55noNN55EU/d56zHrVUsxfnI70ceIomW1cJPE7qu2w6cmcc+6oYrOavp6KBajIx/1XzEjBsy5yRwtoV3BEq0zY5ijXqr7EQ7tKhH5FzmIQKB1p+uJnH2IgAVEs0ZRw9U7fgV5qmec5JMJe6irG0V0c6ToOhUttuCpmAyCL9aIoVL6l0O4dpFMMtOZ9O/TMki1LoZiECetA7m+0lPi5NAl1FbSIdouhQ8lOuXIVD8/q9idt9qJGHBRHY+bGT2QWoDwzJ+ppAvPm9HXc6A/wSB9aawv1y3Ch+iniCkhqQ22eMjS+F3tID7jaNUMcDfOxuZYd7M4+VPXrzADjhqP6QW53ZuT7KLVNgK/1qT7fCn6iD5P/c2ICF5xNU2258x44Co3nn8RBiUQBe7qDJ7CtA2ZQ5gktZrZoLuaVOweIcNqBHlI2+e6aVk1RS/ifhQBM/+Ju8HmzdCdk+KsKlQmQNWCIlWvEbUmIws8sR3/Gvc+MrcH+xlbKP1H3stVv99p9XsCpkOK8p94oRXwLxiRpoV+9ATkFYyrJ3JoE1Z0bTxiD0Blfbmnej7atuEebBerv2hQhZlyw9Ui87whIDgyhyiPp31dqyfAXu3wSlBhTr9mv4zxPQ6UqouPn/7dAQAh51MNMIgYAKjiJ8qkrVCaxn6u7thF2ye47n1SgwX6Pa8IKVPR68NcFo4hifRX+kZHO4iU4jkYqR/yOZq9HFbkLjFY9l6Trb5HUyFUuhJ2CEX7NPzYej3TUc7OChg/rC1ibWpq08QHKqFFW+xbfDEI7r3r82LFcDgz/4+Y9dnjPndxEdQ2yys1nmsosz87mDhJHJovbGNIfVbNoFLD2gCRjllmpMt3J2T1mf590ZZLMPPTLPNe9Ci9O8eGhzJe6Ba4bmdzZ8Xjt4OZQVZAR7nH9Pw47Zt24hGbNb0QjH1iYQ5ANyx4v+7tIbDV9y4nD1+GOsk1pSARUCX/x6fEPosNrbHSbz4Zen3QrYc1Z0vqHPxvciqymUPaFZdgNUwpQxRqgwGbRRHZuiGD/9AoCIoMljVxfHNAPxRcvHHzV8S3Bih1bYmwN6iY/GUzK6sqsmPs3eYKzTfvAQG7u6ouftZdZKsXUehRnHNtU65J1GP30MrVrOTgEdvHDFc9KfgzPTaIJTMsuXcd/MlJOYPvclgRfND0wkvrHjRK6uD90SW26yhAamWp3xvMyLdrOuAl9YTP41Z1kbqLvQWWKB/GUgdmPcgePbsjMl2PhWMC0vMADm9DO5Jvv76YbaT0ZHb3iXmbvxmKMm1qhGHkq+Zdq2zrXw/3uqb20Wd4dv3Mr1IlpnlUA0y9F1/F1c8/Zul4zIEfJNRODifwEfOJ83lKYHj65VR0M//sTda1vmy0um6HryLg+GUwIvm8s2ta8EJM0itihSxmPoxQQapi6JZY7oM2KygxaWCGu8wXjTtI3OyWJ8yDdO6s8umX47I3PgtJZBt2H9SnjQrDgN8qLfWwVhYQYntH32Vl/KnVMl/8zNIkN2JWtz66AJ5Dwh1GmPPJgO/Vt56hDmOnASiJBjYWOz++10BYxuKGt9GDq7xElumb9rlwW5u6KtirX1QWKe3IG4X91Q+bLQ5AKVDCSp00RuITzxahVrye7F7YcQxFH8PhO35lNddcQpt0bU7rTvMYZGWxSfZ5Sxq729XoPZjGxNBDDSzIvQhaWNPoOXuMI/LDy9TA5fWvXGAz/nUy30ZnBEzP/gqTQacBcXKYApAuYagAWHiA0EsLB7h3oUTBzR/0RQhy6Vnt9lqVoml1J2O9WNLuXinY6jbl17D2IKZnpZzWy+h05pBt8yw77EX/MY3/8YKbQhGEGF6Xa+TORumTvue27s3PoW2BJVDary3khnpUIYzldtKFlTI7WZh+/udD13l242CRt3iq86SYCw7eWZDwlAclxufPbZbvh/BvA7cjZPEVwpcEm8Salvo+ctMOc2HAYtZ5s3SZQIwDREkhOeVsT3tRU/iwjwv4n2/NGaP9eWEFcipP6Hx6mt/0SGI8C11ytTmFJJAOOxUqRunSWrZUso2OYHuZ59hqSxjfASyFuOKSmDe8NL2SoFIjeCSRLM/q2rXj8fjvKgU+rF1Sel1NJBDESezF7MLuo/d72iat+4NSobtXxf0Zlaqza9o/11eSRGiSmHyhLQXpgHuCsoNn9xOpI0b0RIl7PUGdkLrHTpVxymiJb6wmOJN6vdCYbukvOExUiF35zM5HZ8C1LX6Rc/hA473/OE3Bh2dfTvvOKGRwFs+tEJVBUYeslcPr0EXpE1KOCf+BrrcMkcvef1KDxQWi3hVGbuToFIWqpjRXenR2/31Ck/c77eYFv3X/aBy1ef4NEYBn9qiTbNNgT1IBph3ewR33rXG5F+NJnz4w7gsiYbFie7nrAdRCJorOcwpDoPV3acYr4n4HKlCUIZmBeUz1mTCfTwGP7MNJoOBS+EaUO93Eot4aEJOIVl7m7QxxXV1Zr5vhHoUA+5+vjhvxgAbFlGXazf5YEb+a8xCAsOFRBrYrNQq+9tndYl44ULGi085y2/Hg6OOQeHbROSMk2mnP0uQYauGaaAn/qqVz/0mofaObBP8ofEVEU6lY/ENM1qX+vY7mW0AhuZmtRSxpiIl2vP9J/DbZRKdL0YumLWb8cPKsMVQ7iVX31yOQ6gmLpH0pLaEACMQoc7IT3+BX82B++d8A4Mmny/O++JbpRhWZzxXhjNbowed0QYfxrejMB45hqLi8+t8UyPH5dXQfW9fdeGCORsqPhXH9qBGHIufCDbyRrtshfzroOzEcEToA1/YKZLu98XZNx6zAb6p9lPRPGP9Y2K2b9CZrYghhjqc1Gd8dzMg8dNAd8ZbNO2QEI5so9+1KKbEXVVpu8AwljSasTiv3xthgeXG5J3TmX0eFLh92HG8L+OP5lMmGGX4/bTNpUaCZlZqHZ+TTkpNXBgrBtQCj8VR0ipyK0ye1vrQM6gqmSBBl1tjEgmPG+BmuSORSPIz+Ld/xY/dRCdCObpJojetyLbFi/4m6sfyA+mrtXxAyxFBsqWelmf7BcD6ofkeVrVdfUtFJZmT7BPs1ZyXgi3YaHzNTPdywJmURCElLfzDaJYQZFGVfVrwt2lbL04+f06PU63P0rIJEdFLD5ZaA9Z9XR4LvmhVPnOnqLzM9sttRveFGJg71/yJPROuVJ+q9btCjoIraeS/xkuoBreabHQm5stxymAQ4OJM2Lm+ztpVu4NDqtKs/p3mblnE2ivdcxP4ZesPVgyhFxmVQx+EVz9ZX+hl3EJ3Jyc29XDFpA2mjbCfnAqRRGSF9RFDYmxtW4Fr6O6A2CatK0HenLRBf7pm4nSvja5wUbO1TaaTelWA26I8rEgYpvmDvHYgr7/VL8IH9w9b1z98OG9Gb+i7fqC6ohH2JPNJH4carbaTdS6/oliuQnkC/N+xycTHrftak6QDZNc/gxVwE8cvZlIyap8rWxPsxOfZ2ma3+caIec2Rb7DBOU8/hQFiZ4y+066W4FSJe5UFR27h4WQhelNctpRv6gsF1MTGNbnG0Sch5+d74gqsebP5twPKvybijFuOr4XUAstcItCSi1wXagz6mx/jTZbkxe/IoTW4y5dHRIy2Hh5SVUR4wqqwd5ix+mJopSni9GCM/2SkqzxLhGZA/D4hjUIuCrGRafsmhubUkhuBb/vOQHXQvrIhmfejmK9Py//BsB1yoKFeMH8vfbABUZi6RuCwCFa8eGm99dvF7u3jCRwWhiAbjWtsrkvxsEcdGS1oFbfZAIgmaZJQRlCEmI8p/4Ie8niFQCRdvRq+N+QLt5MZiBLBgTGlXQB+jYgP/a7ya+1iZFCImOBCtEtPDed15r5GSNpvsB+nXCRZK6pshUN91zYZSn4ubelgJ0YP32JA+Ql5IpqeWieise7hD3mIBE5u9el8Vyhe5iuizaGJFLOhh5ik98Zd7sjfsYRA+lsPLCTpUF1jdOMABLFXLKkOBvgiNwylXwnV310P0XdIAw0q6u67bb1tyu9R8qyxR474excA5821+aQBJTDrvkBD3nok1yx0W/kce04+qupydw12dwVMAfET9dwAqhKo6Mf36XQ3mVt2qVS0teM2Eai1JP8JzLL9YvBnElP0Y0Xctk9X1j4vadh5MealPDTSzyCS3/PArv+x0d95C31USJX4vwUsVjbQqEfc73Mwr/rhz+ejuaCTu7QiEWNk7qoZWWu4Zajaiod7JMLNVxmF4dciSQ3BNvyPQJaQKgKbf3YQlw58YaeYhMzrUmxi7msHWHO3sRWBveN78lyZJyDtXrAVbpKo+f2C/YjWtOXHRx5Ml1iRL3EllkKPN+w+PWoPDZgUa7XL/5jfrwQNS0r8D3bdlZLKM/Sf9/ukW8w/3k01xPVVX0tZuNgoTs2JJeFofg6nujPY59LNzvmtb/V6BGFBWoeU409I5tkPzPBh3Fy1qRQJfxWTRicIrjXYuFFcrzWcAbmkgCvnh+RbZN5qaemAusfNFsJRRGUWDNqHsd5s3fNRcDVYCe7CFD8r9wrAsnmnH9tkeA4mPpSBGOacQNCkW9EEC7eiYFDWnD+Wi9Ro3Zg+7mKPjpZxDL1BwCtyV7BzcYGrvH41teJFET/RVBfgNbalpl6YSF1kkuKnpOIQM1Mon3h4oxw5Nesq991C97tlyvfNja1cB+IsTUHqUpFVEHbu3926pSxFYAnidXiScgD8BpjnKJN0x3bxxofuqjiEmV/sSZ2ojDt2iYtb963qCAvpBvLISYXJgY73WZZJTm8QWmpiLMHdWb9RwtIS1pAmYeAd2qM2/Zho2i20bPCpii/VZOfNUeHCRMRIQR5HQMfkca61Q4F99dEfxM3rWW7Ypd51K6Gy0cyVIlDnQnSz6NorlCERFo8vduXFrsDGXZydMPj6kAYqYQTZXznm67JTzZNp9TFrkJkkPO43VBOKZJxeacRxyuUGpjN0Qnls4XXQPSxQTfvPKu334pjx6IUtsAMvEPpCS44wpo9zLahx2B/e2+KoXnCc5uA7t5JHWeCmCQoNh9Dr2aIy3dvWkUOquEyOE3fwTodOyPqOqYxg6gitSD5P+11UHPLuX6fPN8pxGQrWalOfXsKFCNOudApZXoKzN8iqa6IvmU8LSc16WkJqA4gnvcsQ1YT28gEO1ZJRt1I30MyatNTbqcn658rVoPZYxgRrPHg8KPrAY0fo7NZ33ev0sD/Xnv97EKnZfaF+KGpAKwEYmK31nmIWSBGU9n6MlNlcaE9ORGCl0/30lxW6szd3tVjM2+GTSoakrAEKXiokp44iHZbvs6XXauCN0MKLLbJHQXp6kE4q6pXQufT7wyTbwnOinyB8GzskWKGlZr5NGpFe/SrxEgWTupSLorwGzK+6Y7yeEPM91Jqiv6n8uSazmpbL+73yzYrYPu+CQVGFtZx/5FcfRPcIi4cYSaGyzavOPxCqVaWLrnO6MtPgjca5A7Py1p8BkfYKaG13wruacxfM8jwLl/tJT1++ot/woCe0F7ee8S33ef669wboUc04lS1VYbsLYRP9Y/WXHd4pRqdeZQ+rQQ0qlNcN0aOGnCJmq3ONbk0y43syFaLugFq0caxZYDENFYMVtducOrBS+8ACiWM58nbQQsTS7zAhlpXJ1YSqIe3imAfQCEitZJj1/OQGfkybL7IiuBL0EKcZGoakovSU8r/IyLE33jvI06KE5MK+XiZUkQxj8dmWpsmCnBPRz2SKx+mT9AtYf6K7V1wOXqcXVroJGrSdh3nVOnljURNIWUkTZdrGKfRAsXsyjQj+jz9rphW2p40xoMD58CzdmXtFexV4Se03EcydERiOPRHpN+4ge/16e9IrgF33sf+vZrH81UtUNIS8VkNCKzekp5VDMTDv8rRhk/55B/OeLaDQotjrtLfivlAdG3XTFoEn34JGJg5Wdx47x5XpT8sxmGE0D6PziCR3GcaTnEtrPe8s4uAk3Qn1OPdMtBNm7noeK6CuGs/tSeZ4Tfu/57I+bzuE9r4JDPY5RcKpHaTNLdUAacWQwAG0IGBVsxknPk8stW2YeKnvkP9gWOF5puuaOUudFMHwbVpajRxc6CIqjmcvtB+g7h9J7MW/kU3+R4g3T7nrqL9yNx6pO7zr2wk5hdzYhl9JWqGZbNFA6f6n2xsfOBpGRGa18HA2BWTWopYm84wqtl1VWxCreEBHAibDzLUWAL/qo7eBAoFic9IMIpXoF76zcoRN4VtPejXX77CbtllgkEv39dry7wzciZwlabFGNq4qeiTa3dwSHL+O0soXd5i2/ov8tgRz7gMV2r+b2YzrITCLbXIZh0WxmascIcrLaHsToHPnNW7bAAg9k0ROuEoOoMQff8BrzbXALsACDjGNZZi15Ub8PiW/BqVMCTT/wqNW1cQmj7FqLBbrBomeV1fgWsTdTHGlp+cuGMnetn2fZW+Dz81kj6fZ8xNxur6IDK4Ee853O/MkSv1OYwZkS0b4UGLoADpJ06JQ4ksEYTZdmNChSJxElE3bL8CyGonFQJ+hubmsRUdCFbVdzrQEmGbcDe4zCoTfI9d/NP1eljWzKNAUIEZVcM7f2s/c8CBx0KqeqNyJKmc5KOY/uAi12ZPLxfuivb4/f67InP7gd1Z0HuDdSsgZsup2jySJV5rU7kHX1/90WkVkHJkLIkbei/XMU/xIDRvf0uRV7cQS+8lm2Ze4Nq5riKO3D1T58B1EwYM6bBskmIrrqYxq6HYVxSkrbz0FYgFyUQ767qct+p8PIdp7kQc/H2We1oxA5rkd1RwoqcaRKKCQAlEkvhquAfHPmIY3/jFK3+wVRETVhBwqJNYLqADw6KFyiArZczKqgNMPdkfj2gnfsL106eaJcPANN0o4Vc75o3BpoK2oU1lA33QJ7hS+6+yqbxTNyzCec4Q5s6nuizSXi3W2u8R1iWjDQCAuZ/C5H6TiTW3pW8lMPJ4GJ4abtAmgBare/Auf8sKYT8rfGFIi9ApeXcOym3QZt4gzw+5qB6vZ5/7XlaMrlt4P5ln5/7Xla/CrBleq0102YMODSDoaC/4NkbeC8Kl6VG7gzD44In8Y4TNy6EiYlqS8HsQ4ArauzcrF/4ZyFVkoB6Q0RHs9YHSmg+vqY4VwL6wpY57aRB0NFefBBjLzIlUaYyj3MAepP2G74xXnTGymB0DxlJymqkIw+cMGE8aCKJfOoty3T6izzME7Jw2/+peZx7TqVDYQpvRN1BAQe2LAFqqgEPuS63sms0ieHg3Op4DylvuxzVH5BWAbP4vhwCItXKbafSNDXhGgJ8NbcAkhWpuS0m35v2hee3oraTc0TlCEir0ma5RP9D7VgId2U/qWIqiXzz9kHMqv7ttsqDlFcByUHh5IN/V6qM+u7JO7oCv54EzBvJacowx/k429F9xuqpJnKvXyeyLe2MGtGuiv5B8x7fcYvac0rJGxOIRY1y/Xot5WggMUG/c+A2+HGFMa4kTjw/DeyL6dZ+MGDd6UBMuxW/YZxoPvKxKQMZaFSC4fG526WTcTOzbV3ru7KmQZUl1Fy0zl2yRxOvdr9trYSkD9VjQraUA0RWUoEIWEGBmkmdHD3/VME6oQA/xECwLLjJHwxylDVkhrzD3ca6gh8igP1amPQIu/lkGZRwGo4zK0FMocsKVxOOEGLsr+8d6My9OQiahKVOiw5jdxwPH8gF1pLR01RwBK379s13hXuK67DY/IXmjxI9/js1Xmtmud14R3FfxR5X8Nf+v9IyT6/5YLcR8+LDi99jnUzRWIXzcPT7ffP+1+ES6hTsgpkXUaSN1S7Zchhu31cbHpicMhR6uszNPBUSaYLgWgNRhEhboIsSxodCbrEK6+F8irBTz9URtPqlgvcr6UTU7R/O/BMUSECn3Drb9MtC8JrKPCDAkozQpepeRTj8DpI0/wiqZB8jJXU5NxoBwS3yefnXUM3PiMuNW830Sosz8v9ZC12PwELzIergOxLcFMGEBnrD3COLiOxBR9Ipy/ZS+hSkEwrLcoZDK+nsrTXIQQHgvLIKqetlJ1rgHd8Nf2nILBESl4msGDIxxAzAGDy6Z1/hPFkTHNB50s8hzRtrW5Wh0sHEEToWYqprSDJmnGNaY2BvwpMxuM5G82CyZKqR61Hj/tt8cZhTubwBXTg/Ka4ABZrL8so5dwEBeA5uQ4JztTVMMIq18VVlcZo+GJkyYQ1IHodLSAcahzqHoEKcdYmsWdcq/+CzmGiMnEtJQv4CmO/7tFdBcABlstThmTSKz2NJ8YHX00d8YB+HN9AN+TZ0iZoQjeL/UJksCthEnrovofK7aF2FG0LpTb9qCtQP5FpqSKW/nnnFSuLp78gQFLKCNK72CJf+USLHYFJButm5IutvOHni8z0OyGOC5nXJKvPPs74rEL0NDnXLKmgNe/Q5TxjpKmQPE3xER96kg/bliV8PrLN7BbLKDIN2t7B0xWN5LER1MTmNcHr5hZjJR5kxX0C4feZ2eC4TpCzNo7rKOYshNcbDdxgk2hE19Hg7Yrfv4l5iJZgp32RnVqQrgT+nl04aloTzg2Rs946+ZEIvjTw65JqaaXP1GGxx5Y396+8JQxUl0cizn3Lt/zkSkdbfta+9ttnNGWnJJZF+jQnl3PxvFzr/ToEJb/DH04+XGeFuCFZnGqOQSMohBfp8icN8yPq7eV4cfsKs3m44mVOwK27S32DsM5wMox47zE8EBrAzUrUszgO0f51pFG9ioapkmkOGrHBWV9+s5VIDESCRkjmjru/nzqvRD9BQIEn0/6MGMteBUck42twtlI0DwP/+QosSPaCXCSXBXqDXjiWvGFNt8G/H8guy+/1pjR61muo5VJpcZt9pM8250XKFChUtgCFeAS+jghMlMbSQZFzB99HQUEh/kAXqY3eVQtpixEW9/NGShWKLCcpKImKGT4engZf94L3GrV0DjAj45W1BKrRqP/I/PbMixJp9rXa2wmwIIrXhUOMP8lVLDQlEwo3bYiNIXcelcYD2hpMYeW8epWdJXrfF6VAYFloCQ6+VFk3F5lxmlTV55IcTe2MwjYo2eW/PEXOm3eypAoZsspVr6IsPZv7Viz5bMNx5uUpkpwHJCQyZaGUL/LFrfPEZMa8kE0MAehypBt1JSWeVIEtvIi32OT2BmjMQyk8ZcSB7Jae7GljqbWRYTaEbdq/uJ0lEqJNcklpnVW1zjKgp8nM0eoOu9/xptNm9O2wgtfPyIpV3iiRsTGE98mpgGm/i01YnjDKal7s5vrGlwosg0Ip0XgygsTe/jEDiHfiz2OnhNn01UQi2wcOvvjyLr7PRN1RtGacMDCtLiUg/ngNGSbaq4zbnQlm2xiR+c1v4Q6BYslDCRr7X/er4o2JoNXJr81ovFUvnuzMy8c9Weh6WHRuEmiSfe8t4DCTucWQZXkVEcAph/wRAfCKf5hulcnSdyzh0xKr+6bu4i4fnNjJ9mp77pp3YqIdoWR5vPwgH28JaFpEtu9cw2NUxwTnqO18G1kTLhD7ktTVmNbpzkpPfnmXE3ADBcmN4ZJPRVaQAaCb3b0O1jscK6yrilI355vf/JpN3uch84RjyuLSbSeU21kTtprXMmjO4RZzwHJbFlWxPOjxRv/fpssHlCw4LMMWV3EnabvYDBSpCXyGwbtHUxfbFFu9cUd/p+3rVt6+jpH4pMkGrTs9d/OS4nDUsMwAa/7out4eoMD58Sg7XR1QIJIOH/YUZTJlwNT3xefksv6NMsUADxiTU/tU6M2entI4ipVQGdIoDHBkTb1NnCuu1EOPszpXHcaodYvY1q8BQfh/tnM5wR8SJokJN2xQLwn2norEtx0vWivWGw0Bj4eHMlG9OEHciqch7f5Xtlt9Uy++8sn55b1k1n0t+xhXsZIJ6BgTx6LdhxcuGFY0/amKaO+cVdCHeunpK2EpHQuXZbHnVhFBer6UewXMRc5ZFjraLkjyi4wrIDwxuCAnIvNTH6rhv90hTUZMaL9ZDQ+EosOPiB6ou2KywQrc99Qe1ZRMDEU7Vn906QJ0MduuYx6s/ux5YauHnrFvFMhiV42mg2sM1/NhfvmC8lyLPPng3LtwGeOlxn7d1Kwp2Cj/ufs3BOEYQxO8OnOgxoOXsizTP3lmgCU6bkf3X4tSGacUzcJJZLhPmaIRW80te9I9HC1+d8uLlomzFugJhdCtzDm/ML7mBxx3O0ySYg9RxfSK3Da0Gj8ZjBIvFl8I8pej8x5M1JQ6+wXAkqZ6hCgwW87drNgM7W3Z9Sj0lAMJUZpe14iJLzvpt/hnUFTtOXzMGGUs4P/jSgaEX+S4sVCBZHd3U3ta8lhmuoI6cUT1OCPPOw7du9Fx/KLTp4CXRF0qJXT2+RNIYC+Lhb9F4jHsbHyvjmxQIlJTlwU54whLfZDSGvCgjBF5yLM+uV3M+GbyaxsGwBzSOaMkP0EefslN1DWe8Ed9zm/GRAiaXmm/cu7zOQv68oAgICebU9eZIUukfIi+Zh8+Q8azjXjuXUzwf05Xm3nhp2BDcsjDGq6E0ZU97tsfdacgnSUpEgysKCnxIBYbVc411fbQtFmOt+K+v1hs6EVPCrJpOnT8QCbvpxuKGcEd+l+TFBIoBfh72PYlbJ+PKom5PQF26ytlbYs5HCIsKj7Jfi2eFK3UIvCtpKZDDIVAWZ/2SF3aMtQlmqr9riRLUtKBA5K+pq/T5Z67gGN8D7hA2jszg6LotS9/GvoLawB1IKDZZ3LmjUPxpXpXkKnPoN7DJrVlrNCiDKbmtr2BR0WtHKLBNo62E4ZWFZCrGiZeYQ11AUKoVT+3UE4rB6U++CKLIRK6Jq+P3+wVGesHfmPUcqBFs1kaQBW+q+c92DHxPZbmGFJtGAMostbJpGhEoUDMogYsyArTCfvEi5dBgAZzuhbgMiMQUabHIBdujXy3MyhpGXemKsHlvkhWfeAfKmPTbLu5xfyiSqws3QyPTXk4kQOKITnQsz7QcJQ0lnmWuDtWQNGDFMNvx+WtpkINsBv9IizLe6/yyGbpl+oekxDIY7490kKaFzl/2XzGwqCDmtEV1pdVBSV26yENLjejTqcfA/NOTh924Pb1uDlkslJLf2XbX6Pvns9mbpYuDIbghe5bKczYD/Bcn7gXDkfVGHYGXtS3PSYiMPiy6fvqTBntKYvvPh1k35BodTtA/y0f4gt4JCOVZc5hZquG7cDuZQ/8IMfKiPezN6tcGo+VIm4miq2DLYF2wc2eVOh2e4KQcr+ev6TWan63MONASwTYdxs5iAm1w+Wh6KP2y8zHmWrOm2HXpuR0Vgmw+5Wx462iF/pm8AVMkdyXnz3NW568Q4QevYt4B9rK3R9tymSiiY05WKU5h8JU4TCjHP6BkpXjrA5O4UMhp9mMAxCwluni6uZjF6wZvtvYQdRRRykY9rR/CcETHrERDboUfnJ2dsGf/3iJ2JE2rC9EpFHsNYs8ZqJtbQYttsyULlXlBbvRrJlGIHga835qBqSOY0iwZxi+2/RlnvTred++PRKbxG93OUJyloTJ1bzgOD3HlyCxsi9eupVdvjY9QBx5aEoaCDCNTMASeLV2U8T6YNQCz3BDH7v6JR3U4NfALCMnEFLJffJC1vSMm5zIA0q8/Y5qhkeguHDPBc3uSLMmgv/nWQv6lciVS9QiIwtsNlkb48WoRBU0+ELKruclOiyV8ZOU+ER2FqF2VpF+WFWDwbYL67Uc2D2cTXt8Ps94WjFVpChnETmPAdRzEPESZHEuXlHZZDx/YaPeNQ75pBx3+Aj2fiwTYBWrc5Uq1GVMvPagPq2P9/CwH6FyEK1CQFMLwUDHUOvfes7/chLSicwLdITgwHfRPwmLVkXdNrdfqHZ/V6VrPXMGUhVtkM6yfo7cTaAEJQhYLrnJQ42vx70dwDTZRWx6kKQT/Q7MLJNGkxiqMan1e9TmaUCO+kPZHVWt4OdEYbC/iAx7hG2svVKCV8BV+UfOqhHkhc1/nrDjmZwvqvdNj3jnF1NnwG+JAdszYe41SsPDFRWlV+X1hdFXoenKtMqc2kpC7QuHy178DMpdfEzocwWd286Afda0go+AZU207PTdhueMUz31CZLuzucbfaglnZoriEEUyTGF7nYZQJKbwe3Z8/g5+3bTyCkK0mDmzR9LzApcPBD6O/gZBoMQEbyKKOBC0KFvtAH24xDQ55/hzhRwryP73keT1MisZES6oY/Jg0xalWhsZe1yUZqoTHt/SmtSHaNzj8ykYrW/6brUDuFetciHFnfVB8e1/7fdfRJ34VbNkLw7JSNq29REy7HMwuZoYqLjM4c3Nfy4Qhy4OJIcPhDomC+WAHMslSYYiu0HV7m/wYH4zVo7ZRz97huVRg4ceSS+p38pUKghvXYMjvnk3sCF9dEVvvxms2WadgtgORfbqKuUiwVttolBkIlBbCJHewOAaXZvy6+An4n842x1AczLR1XQ6UZfA5dC4CA06HXI1rq16BVPzYFzbHekdstOvKPG9UnKkkQBkFS94jqslEHwhRkGykiMQ6KVZesM2SOQsSmk4NxUg9raytBtnyBkaaaYjq/9h2yWSYy5JZNVsCdIgrAhM/R5LC8EhENeRCMVKBw7k77PDszyS6qe4STjhHXhSo4z1wq/XbyQU/nCIEk3LxuDc83Rhheq481MUzk4MfoIPHjNAiZYgqQULTDgYH1XKO7ccFddPwGkxKMqjWSf6hqadeZOIdvNdtUki0MJqLWM3fL3WCZYaJ+fPjXGLkZBP3iZSxNG3TSdimlPR1CsZYJaOxJpuE9pp1evvkIC+YmpQ3JOFfVykjEDWKaxCVAkJKVGimSJNYSbfaSrmHGFhSPFoa7tTnRsh+Gd3ExzxmX8ICqqXfSYWKqbX7FKo/FamoK2Ukp+awbzoXfYRCj+dEe2jHTDSnVh8g2EXYj1MdwWW/e01FHddkhx0SQxdzdfCLhHAeDaFQ1te3977VBnL4jXcHeLriXdmSez/sZVMrnf2O+Pkwbx9U2DUG0+pgd4XuRDACYh7r12eVjU4L4C2MtP7olpAnQDHtsqoG50IF/UGk+jTchQlvvgvGtIja2+7ES2JYtG9pZjFPeNdaUoh5Bkj7aMkfrEq0fnd2byjByoCB84v4gkvt45InMaick9vSZV3hGYOKvZZSWxAmrI5yn1fuaKh+RhWa6hMviDAmuR7yqUmWtyfMWQa7130QdC2rrvB6kvuv/QvRWCSYqC2h/fNiQfzHFCkWW1nDWKTttpUIWcrcMb8nkvv+RQAdOQEd6Ha8pT4VRhUAfnF+Wn7vyYH1/Z18kbhOyhdEYPTtmvmsVl3F/bLx/eDLbDH8da/gGfg30vSF+xKjmZ5JShTXzXQgAju5DXXhFRezmMMW2BsO55wiOqY88PJf3JR2oC0XAgh6/nRR8JDYsO7w6xXR15vw7d9wBiYOr4zKPslC+iJuj1Qzqu8cJmzFMUtzsdyhBG4Ebk9KuM0FWNrKmE0ZfYIGvDtxNTvvgoAqCUsO0DTvcvsg2d3Q7JsnS0hc/7n41UAu/JstE65Tnyo0cZOPPORNqvQ/hyEahntu07IrC7P0vFWwGNofUdosCaXTSouketGDMuJjSEuQGZgZCA+pOdaqPzBUfiXXp9ksOfY+4UcNIqsvDGohwdPY8D8eGd5VSnrD0zoudCkmCUnOCp0cWA9KWqzEfU0cNN5YlYo3/qWnD8WexY9gva9TArOPNblLXeyzDSLSU3ZcBlAZiPDCSrvyYKgFgt10VmicDhg6AUBuBEvrtYX2QEfIBAAAGliltfLGW4i/74mvNDcNTt3JNGSqrtw502fmEnzOL0KV6mXX5IZNCQQ6ohGdmzfaGkwzSKzugI0iSyU+2k3R//LwVUu8r0kEbSx3uA0NHVNeoS3wmAaZGdTakz+rJRPWu1Lm9li6t+XCblu4moiV3LPKa7TOFuXMo+nISRF1ovjEq6OQW2OhvOc4MsGRpHyuq9/5kKDLtpkMsh/0iJOawNgfWwqKZSBV19yn6Wp8jI6EWq79Zju1Jqe3fiMJdxdioK9y6+j03Wz2oVefyAp9ZJWbS4+taQZONQ6zvQ3getR3gusv5IK6z5Q7dtFo0LJOgLchpFQB02Snp4LeO2gRhBf+urmU35BA64M1AdAlWoDuRCmRVRRFJSIfvmlQmGDyNZ0xbre2WN/WCvUGh3mhekfwmYpqFyrzjnqqCOF+YJVeSJixlSAf0nIY57EqVjGHaKSVFAJMlfLvkMX0smZM9uGw8EBX30Tipzkc/V15ToNfpwZPScmIg2ma3P6sgMulw1q+ajJmJ719BThkqGUa2MQeFD/92+v+/nJ0FoOn2EtQWm6haTds1lDKW+wIcNtOKh/OGfmtIkgFGwd/2PpsvjOCeP4jdfH4c97N5W1GgJLg0uFN/ZuAWESaxibkMIaIoPkk7Ld2ngtSTbwW+yTnMnv0eUnHJUIuUclar/UNQTDEycSGFZBZ9eOFuEdAxeJ5hj9uNuc1Fjh+vWC3bAgtsTKf8jdEZHFp+1+nnbWvkt7cz5XHF/qIp+leTDUO7Vl+3d1nHam/YyMMatvbVvco7AC59/ikIWJEfQycYvqTgsOQ/lSyfXeiB6t62CbJTOaw408fK1xREGwuqMdG6LLAWHvQGY2YpVqY6J+GtdiqgjnpjWl5cgXhR9cy5iK8hoC6C6En7L/Me191zAk+S4zkDiu9BIedfA27BdDJd1EazCKwdfLfzlWIfw9ZBuT5F5KMs9c2Hr0Sk1t2xuWIG9cUg808S4Xv9KK9g8H8fbSj+VAc3jm/brv26qIMUfD4YoCgX87+tqMEIRQ2Z+Hj2itqpEbVRvp4hTCsdTaHpbBOmxkczxhnli00QD2HFw2LMfCST+B0FRb3tRhtE+XQO0aPON2lX3jskpSfZ8demSZ7XFOlsi5CbKvsK+4PLPdqkEjXFTd+8LuspfVLq32dYbiQe64JUFYPYeoGG7YeMMIGa+LwPhNRspUHTLdWErMIbVXLQNJpJ3dhNauOjBvoD4d8yl6ZIsBKCwLDlSIHuZYCUch1zaMjrvLAuhyd5c3dfR/ng+JrF29EpQOjp82zWUp67hnGk9yL30vMfiJ+3K7xotlk0y2hLodJUkOMFOmtQ78cRAMod+YLm+xSAZaGc4t3JCIeedJlZAW3dEEBpk5NvS6uwlsIo58bCjf4jGeBrV/WqLcl0TxMCQvnH6qI0QgVSDpwSauS19QAiZJr0cGsROD2TRfmlpYtG///Rd1bjvdsQYOobNwLESeOtnyELEMVPnCwvwMpSbdiX1HbpN4P4A18DBN9cdsCvHTWvHwbJISDSGJfsTGMmYFABePMmMCdqkGyYpzANMBUVBLF7hIK1PAuzsScU9ZFhaEjZxS8hibBngPDbuZETZCLV9Ea/hb5MQ3blgCiZQYjsko1cZlyKubFbmC0sgtvEuDADXWxP1uWpnhLJRMakW27TXajrNMaN252+Hnllfb8uOlDIVVi+l62Fe9wCVKLpY+/uSwrqBrWCVj9a3xO8dOm8WWEXsOHgPjfQTq1rF/FHVtGhX08Vqz9ea+Z3SX0qEiAiOgLjHRpty4F3rGPn+B8SoU3f1jknN0r7yrmkdF/oHNpgu4WmK2E/YD+xMWjIlMIiNKCqEOzspEvu29Nuxl0+K9BftCqpC/xXicym3sjWpRc0eaxX7pDhSjWo1EbVaHPgFfqKndONnzMpTK7yhctwhfuGwxfCwO88HjC1PyzKoWPPtxVWqhyJipRXA76b6GK5z1OGfw+idjp05JgeRwjnZa5STgTahC7t0dSkyVevsnlx7SC2j18gqvRCbAzuIw7s00PNV+qAep1082Nvt0llntNTebvUSn/Md4TwJRrqT6OId6d6eo/Mh1YDRly8aD1/l2/lPob6/iFciyN5cewuxN5/2RykttAPMgbss6QNmNgvFK3gufhaVdzN8oniFzNK4sntHymfH1kFnAy/FsX18u4Apj1h4aVWDGkE6gaoWzfuyG2257nzjvv4Sth5hLi/oKFe+qTTV1g0yD4PIeWnNljMirc3TaTVnmPHaOdvNP7Pu/Ss/Kyo4pJVmzxzm7Y1mNWkZGHqsY0ESHmlpZ1u875A7M7yLv+5g1LkkoJNReDWYympdtOcQXoINL2yCFgW9gQAvn+6EAaUleFpZO3GXhtvv6uiAl4tYDWLOYLS36yvfRwNRIkCoRJpHKOrSVwGSPKd7I3QgIQvHqD8EvsRR9ZPkIIOj9ZwL3KQ4QJh4/k0smwtWd6TBQ4F+BOhCQD1XJcmtwO+wfSFmt5owFUOssVOuwO2MoFIwlN6XTO94vI12d8Ml+/+UGxqnDfmrWM13ZXdCOFnFz8Rp8gbaSLST7nV4neim94C1iMbjNBIE8rBXTK449T5aoyE11eP2JEQJuLdqgcLDpOyMmemjRPaZUgu9rZMOwGc1pf+FPop+N5jzxyfpbOH1vuHt2sFdmxKOhdLP155g3kak07kYxvs3kzj+SoCdWXhfLzKuXtomIOhSlRo9BmUNCfew9xowy+JGtbItZw2oQoqtaaolpx7X01O8BCXfTejwW7o0PJWUxv9ZYnat9cBoYwEHQQiqWHm6gxGKooD2sbiTPk/MzSxuNCU+jktBHulcwk7GbTn8M2yXFa0jqJT0Y4yzsCk9Ml/RUda6acOMbeQ36J7F+FDClD7ek1bpZZj5w9paZKoO2uwCtCiKmGbGN7bX4mR9aYOSMu9wvU69gK/bWojgK8JuBf7ItEuVzvGHsU3NbfSb6ja9O6y64jQumR7eZGW4nvQqlAE2GiON57+osBePn0CsDR2K/D/gQCW0iOuQmoixoertVLhTcGZPrpRdI2RNjCSB0l66ykqa6qpxhEI1Z9BbHvMfDV0NxHflrHi4KKcjHP38fGujL1PDigFZr8W0lXmNn1p89+sP5coJfSzR10DoRHPoxS7YbA1Tkd5oHis2mqDnADya13eZ6DmyZBsvC//qtvGv2OQrux8OkAwuXisf07Y/tbHHwn2RimBbDJMs2iIbKMevofL5h2/UHXiNHXaGLTjCnNtNRT8OjC5AMLlzdI/YyuaezHRmcXQeX2HtGEE6DOsoqKRx0ThjZQw8MUsvwem1S9iLiFCeqN849CVra69mrKUycdZ4NtrYpQxQQzlJLK5rWCC4kv++yeebS0T09rN/U9b47LS5DkJpwEEYsS+pDlqHZNfjTSPbAFuMtTrPw1+mqPSIkKDcayWygbYkrtj8vX8M/fyP8Hosl6UGWtTc/pPv8QOUXVAn1We/7F62wufJXe70mJG41VN5nv3Av5htS9mz5om63TFrtppCs1Knk2P7Zri8jawBObn+8PwsrSJRrQm7uVPMrZ09Kvn2lDWSqYedUxVTzr0eUC1HwPV9UHic4JA9beMTdJChgapq15MVbQZxFtCbx0amWkhTx05GSCaLMXPqUFuhDn9n1tsFkF2CRJfI19YIryMEm0AZFnsg4I0H1Od7MiMELjLKbj8W3tjVBquLoYlVBsQ0o/IJyuKqxv9SJouhWKrY7y52LKD4sX2BXYL6V9qiY3q7h7ggfpUNMG2JtZZStfIilI/lXP8BxLim+DL1A9lUt2Ch65GN2/h3L6m9zsYn7UsgfaweQK25l0rghdPj2QvRpskJIDxocwBUtbwwXn7Hm4GClOPoi1XC2wT0x77hGEijjeUMOy+PT5909QwbMRTqURBzCY4NK1UjjBa9es1W1r5J8oiekHGFvK5Y2gQP/PWJpqNwyOps1CXd+NxgAPAor73ZnOdC3tgrlicyJm6Ty8VWOpgbM+MLwCZRCZRPmFZ/7uaO1p7lyRKouzfjLHYfHW8wFyL8D1w72CzKJWL0Sh87QTTrGK2l+5+1E7fhdjBTLoSYzZNG+lIepCGa3/0/a79b6q1G13MagfJwjssrkjuWKwA5EJGXns+M0blp1TUEol/i21+yDlA3Wuop6rr4r+tzn/HooEyH2AJAt26YbE92YEm77eIpyMdCYrNO5ECo8gvv8PkcAlopEbm+gcla7NVBOwrMNPEsHODnVGpzc7DG/88c+cc0QDr/Lclox1eBm/7xpp7jAtXHhOfU9sMwCIpIOwDnVTkDbRdxMQ7rPrX41QyrBOlMmQ47iqnHxewMSqzRFcVBg1uxjW1+nVIgqoYfNTlVcYdEgl2lFV9EXq297cwrMvSCdE0Zy02Iz8uMCwoZu4QvQg/9ThEkxhngjf6EIMj9jTwAs8CejKPO1kUCDzSX8ZnpZ0FbnK8D9Wya9D8hIY8JU6eleGN08ZtvKb7FaYJHy4FKLuaEsDsU5GSDsBbFekkgsHr9c8F3AjXOmXqC/+tWT3ZjGlwVwazxkd9c+FZJzq09U0ZJETJMQkVoBAV+W2Ni2P8MkFAJqNK+vzjYCobL/OPm/kKKfWe3bH5zpD5ZPzWsURTURpHo5UvKOeS9KktxhNTyLdxcEHXcyU2r8AWhVs25qaBB1U69lpvHX86VQ/8I/pFZZMoFb8bvCMMCtCMHVKBb+smj1iE5EJG0unaqaUVe7AbY1ZVbKdjyKkurJGEcTO0T4vmZECSvAachbYEo1q5nqyzlz3c0Mg1PpppqqNeO1IqY+OfIOxSx/cHsn5A17M7cRlsmXgy+Ygv1Tp6ZVtyOAyr3eO8l7eYpRhh0IFwGWqYM4UCFA2ltABZHIHeO9T9tSJpJtC/FQu4F9vZ/dfPTkFGDAwYRPzYb6kCwPOtkutAT4NwPxPZKOkoWY/+vSKhfCEG0TjvgYoD1Hjlt4eLgoIcz96InA5IwHt3AsjdOUs9cIr2lJ7RktvOW/XgWM/VhN+NUtzXflh84DBGjY1gVVVzC5LFIRqBsKOF6F5YHZ2oAjBfk1ALFoWSrTAk0OHrxnUxnvF/pv7+SICE6NKuS70wK8ivcs1bgVA7SnzzuzDB/URRyR3Nn6Mdf81VK9/G+4Y3IUwClEV/7zwM4NwL+xvDQbeVijFYexU13hdiWsnLwzkPmG1fkJYEeDBfvon/PO2g5A0Dsiil8/RU7C9yvOg/Zx0AzdyGLK1M4CoFzwIfLSKA43c58FP5bnSgI51MPL+i8TAbtf3IGvR4PhHGfrz3W3p93yXUZV0lz5RkW34VCfBhEG3C+L9j8yaHIQNLdFIPSD1O+ywRUjTmtyM9+7txb4V0lWRLXjbn/EgsDbJ/usmMaMdaON48yZDKOJf3fn0Nz/SLthnwpK/q3OJLub/B7gH1wvtuNIn9JUyv87u2m+xkJOeF0t710K1mK8HitaI0vllWPZ+DxrQZbNeRiiN7yI1jsvZG9tmV3naJC4Tw20MKIm0LcBgmTRNSSai2Mk1U4+sMg5qw4ema/bO+svVV6+lsgAM453pFs18PEFvq2uhBoKLmaHmu6/EJTWLY8AewEsbacanPl42oIVBxhKqwTdDLYoVqHvyuMDo7HyAQr7sYLapETmhZTh/or6yimxp5R5ETXQ3ux/WJVlPc+i6rI49xJdlcSGnUUwghn82qeQEdWbTIsD83DiE3Zx5Vv40oivvysVg2RPmHAcxkr8SiKHWyx299o9NwReWsthxCs6K6c8z7v3O335HqxQb1rZh0TlPhX/nAkqin5W41wv2KmP5DFCEnz5IoBj4kRxCEk+aoYsPFSmZccr7BN3qNx7bRBY09NQpfU0S4RByzqt+DsDc40vW3n/z5CKfPwYOPJXV+0EzMDgBas9CNFdFtoJnursezJFrRGqsvqkvm6eqN1tzSkIl/NE88Ijq5ExzxXQ39Ah+NKBq/uWCKka4bWEpexMulRBlg4PMXgDZtp+c48mssUZ7UpP8A29Ks0dSH5Gj4BsMqHPJryofj+6kIQmhN4A4OgfvnbVHeStEZRWCfX5q6wIcD/il8liVF6fhGlCBV/JRmvJdUVNRWGmSJItikIv006mkOLoTlAxTOU+bGr3M39HoRBmUOQfZsXMGdl6zpiYDdyx7AXLGZnY6/dsv0GTwPGsNIHHdfb4G3rSV7w3HiKBWvUztdd/M6zcA9g45Okh674HDqqPSCZArb8kG+B7T8piRPYNzNpy/KGRljgz0dszBjt+KdqOAcXlnccfoAHXtpXdiS7BVrPzAh3gGClhIkmiDSsvMytALud9yWTXGHKjMvh41kO0BOOXuAPbpoRyh/LpL1+SvUFDNQNDEWig7yysFpoEOeKa68iRrlhs39gm+g6v0Qxddi5fspjflxjr4N9KVyN1IwoyIcpbfvNnizlzYFgwBvmZ2e0c3BRKCzA6bphlZbu+yelnnd+XfOoJavmswQ+uMKKPztQAaGX8iuR6opHm5Qf2DqQwj1WGRe/Tiu/ixkG6Ju6T8Wtuvu3MT5pG5rpSomoYX9dJR2ykeomgW1MoIYEzec+akvPf+M5N83MACF5fP/HHXQpEIPS9BIly7XuUqnTdO7uJ1y36o8BcI3XiQJ5r6O517b5y+SvFRenyY9DGTl6K+nI9+Ji48hlr6+lensYk9wvWuC1Qd8TkUWGOiUwOb9VCYWp64AmEFZ01pWMlepks4nyXyJHx7ZEo4Tu5olYVX/bvNLMVFs2MphzlufrjcX6J4D9zX0Zenk+kmWrVDiF8eSm4K9L2mTelXW6b/18tbQtybNeK7ifRbWZpEKpXByqCFZnvU7cURaXYaXd20waKhv2CnrVc0NkKRvdXOQlHkplBuOYzEjSjTDnsuFuW9OVKpYgGyibJ0X4aCbXOQJOaDH3ElVl5a4H/6Fz1Z1NIaBFmQejoZLnnBUJOiFTsL2BtugTrpZO36+0hHmtUm/AqZY7vFbQ8sh0ht6FDn7viA8NX/IELfmBNiy0jnG6qKtHK84xOfdxEHzJJ7bCG86MmnIiQzklvFKa+OM+r2NnG3JOu6FXViFJX5yFko85xP8cUSM1Q2zVIVf35WTaMtR1q1Cya62HG6vcrTwwJPwy5ucF4F8fY3CqboP2YWPYa/eRwfrqKEKUMSdfRrdM6kjgDyYvgthvjlsw40vtWiczc+oSi3JtzEwAH2FvLpwqU0nmVJjkFmwh+AcxX7XPETYcB5AiekEiXWJ3/qf9TcxCKQZjezwMjwlLY5EYNT3JZWfeKyUcvCPIvPfs3YYZ15sLCBnbSrMLx0I7A6A3fLS1XQzTRyXHrNic/IwRPumNEImuTdC9qd0G8tl0sXntJPDUApjCp7I3GdrbYgCUAODmgSYUb2pd0EHobsk1HxXKLJdL3HEXluQERN/kLuNQQ6Zxpj2zvr2w84uxGTIXPpYso6btmLN47XqKGJdmobSWOJb4y7QIbzrgwGtIiie8FJlMySq8eXeUWKB69usiKCYrATZKmWSkwTCZuElZHthPosfSfTQn16jSlB3DX9bAqWQr8rooetmoHBST8KhN0h80hcPNXrmfB3xnGhpfbIg3js/BkzugVLz/ZE1BDd/kvNRktMC8vqWoUxipEOGUTgB+rcHWlryT+bUqQMuj+8ZL57Q5YDkleWljvdQ0VkAEgsWltgkHl38ij50DjXQHQE7mRpssaMd9cO+iLUPrZbNIoSVhMJb2QcCQS0gS3TvR1md4Muah5YKRXikrP4EvxX6adzadmI65I5DXodYS0V+KMWcRPqZCxsf2ZG3wuE+1I8d06TkVGMKriyg9ZPieK+DkIfECW2yM1ckWp6EbVlKbp6NI9Clg7AWi2bRyerHifEO8BRzGCzAQbsiJU4vRjG41s55dBe9FMY5hRooY/c1iKqI3QI4dtUOqTLO6T4HEydAhWarpb7qnFrOCVPn5KF8/V4oO2VM7Mey+8E3oBFAgj7Mc/50VrruhEcL1PsIMYsDzxZbuWbSbfndKY8t7wj9qLdbcrvkp6wYyx5l+0v1+VA+tf57gGuAIfS78ddV6ljugs16gAUWDll1+FXYiAVpbai4yjBXDoIdsQp5zzkRZ4uNe2wbgZMMrK9qasXldyEp4aCxJ61O39aVkIR+oc8PVPNxz2x680dVdt//cK85lT9tTCo1+pTeqReeQvMU/qgw/EpgyWL6B3Dib4y7OuKE2MELyjJQxXORue6lH1gFYLwvmRsYS2aTqyJdlZrZoJA5NIQObw0pWDumkv4di6oQgP1KJRuef7fYgclJAmx2VL67ssxWii0jeJLu7WLhseHGq/Lb5hbEbY1PYUbOchuX1+VGtVZ19BgqUCgiuVO98zzZD7pZAjGabKfbndVPZxaOuuJc/9lqAe6o7wFrjApbJO5EO+OJM3lUdpB9enRdk1KbEWl1s/ab2CGKS2T4ex6r9H+Kkgpd+brDnG1SLX042/606GngxqbcGe3AUEmUKat1EeqwQRp3hEkmlcWKpZ9FpE13EupEd7HMrIrvPjlu8jAwvYtATRkEzsnbcj5NKwh7/Svc89UK1ELrqPm04fgCwhWpmRafMlhwfNZjwG6tuDSERHi06ycpXaAjCLlibcx1F0j4n5K+Fhaz9R05vg38/3EkKIBVRw70Us5p+9aAkZw9wA8i+U7k36YMs32Sf/azSzski3XULDtZafOh30QhLP2ooEmBF2wQ/T/oTdhZG2oFmKpDxETTV8OmXuXY3WfCtp3LNXPdzpk1vhjikdGrl+1Dxqyw+ECwuTsuITHb+61U1hWBJ3YI/lc9JCvAX4IyD6V0yR/J0SwV6kZu/9kW47Si8nc8hwpKxQVwppsST2HE6OqcEt5M1cmY7zL62zYNbBlhVxMdAMXBRx4f7M38o6NUJgwhO90pxWobyTuXKJTDFZFpu/1L2oYoU1f+bTC4Ez5TOZSUrlCe8duEf04gTCkQGaN6wZynZMuU89Pa0PUF473cBCWVN3XtIBeC6ozG7aN3Oo0kMZd2sZRwAQ7fERytSHeSZrfXM9O5/KhEFRyNcevsCG018EW3vd6aPOvgJ03B3medLayJolOATUNSEBKpSpYH560XLXrN4dq5cmmU7+ECA76huv6tNacEJJlczzeUl+230zjOYIEp4x1ToiAq0vdHLwAAWDx1veGGPVDQw77QBsHKfhlaoSMFkM0aUKCpSnMv31JhY3xe7GBp8EX/Zmtma7BmJoGZegDek3eYCmDzK2QbBTUWIdUxW+Bct1jxNnWEMz70smv9kT2UNSbjJwUl6SWG3KSuNFq66LfwOk6QUv66QKHpOx/Ee3ciQ7DL4vF94Kn+I8jlIjNxeC9unyczJDHp39Xgyr7IznLnxzaamwtIBZW3uiY9OY/af/eKrlKvbbociMnDrA9t6OFO687t7/GI+RxCH+J0HxL0k5PWII0+zDus60j0Eu2PMa47caKhtkwt75B6Jiqzgn62vmAayWua5Sdy0bdeiQ2WUem9C/N5suz9ai/BmpKm+CS3SYF1qrJltDqSflRJf7X/lZpyna6MARRTMpauWiQFsNeAQVV1SHTHrFLXBrVCqLUhDuwPke6Qzg9+FsK6rnbnwtc0Qq3JFsgrDmUObUABtpuJN6e1NLV8D9UXxtMTjfCrJhimEVv2v8eb6TeVHrSmqxjXydAaAmAH3tR2nJwsxwY4EUj+FXrH9KHy7XbTH7YJy+DSdE1o7ake3qegEICXXv/ffNlWu2oHplStB+eTX4cD5wUTgwad0WlvakBAI1fgQ7hZ6/Lx0xdQgKvqnIn6uqGkMI0B7C+8TS+MRXOrvaXXVt1jqDTt4rSJOlfKiDaYQGNQNz5SBcLXrzWKmf7yBvaTG0et6NmR43NPOWXmqIDSEURXohw3K6LX8ZNfdE8xIZdep066Rkw0a3a+7ylU2I6i1AlsTrEa1lxGSg2iDirprYCGVAuJQvGEkvnMKOfRld/GuDdXtjn3hfPjgyso5pap28BTtA0/i3zzXttY4K/iYuMxSctK9WPekfHkqI78LN8rbyikkzF9b3SJ9lDsV4FLevz/j41FVlO2U7RFKBY8ROHX9ib5/UqLxb5eZ0Hc8nZxMaCUuRubEBfqNpuOP+ug+H2AiLqoAQal2JOW0PYPVh032CJ3JBz8C0162JcWFy7kIEDawn0Azw/GOmXXhAFYrHAGHY3/xDDvtKakqhk+uhv0jnEiWY3TKShwWS2ejDzQzn4Ubvk2FQR+fNF4bUj/rdZujA0bhrXJbWT9uI9+AIcgBtI2G4tZODwAwyHxVGLgEIinLkTTRb5l/4iDfmin2un0EdBd29RqeWrtsUrAQQa9Ctu6kqvQObL8V6n/weAe3GsTmflwT80sC8uTvySNk8nGtwP8h6FtS9It0XHpR5/+q3Il6/usrgfaEBjJUz4t9NDP2QlzlbHJKGhyZtdEi/mpEM+8SbcaAOelDQm+Jf+n1k1HSj5HZ2SjsAC6P6csco0Ity+axj+Ajy0VMkbA8gNEtdKyfNCZSTDryP6XnJrTRHIkiC9RVwuguu+grORSZLcrV37BskH3ncH0q4T20xjAj5hH0rti3wtwS9jPfJokcPGsYwkhTbhZqtuBxxrPDWYZt77qBHPf2IpoBgqaOXoERIDJrW7pC7EFwDKeoI7oY1wNo5opXkJ9dbOVElKdsu4mD2wgmprUOTSMcB8n6AxUWmVTn7hom6t27FFic5DvEjcm1jZUT3R1uIB1ddr/10ep6OqBg95dhyIVH51UuhZ+FLbZDtsO4h/+HlErDYolSQtCrmaG63Y6Hd01PfD6SS3uxqFk0/hlb3hpxfm7pqGu6NC91tSzxHGqc6g7smrjVcDLgjpsS7l8j8/ml17+aZZzaCuIRpwDVPFeVJ9OYhPrEjNZZ+SD5DLwd1GJXTBBWYbYelMnRkz5UTYp2eUlpjlfSfEEkoO4iNo7UwdyTUZOKdI1iBTY6U4al+lC0bDPAZs2mUVkq+7RGjFm/BtLvUh8cLcSkm0HYeuXTwz6k5OROhyTU+8UpJBzWTfzz9FpPrOYn8/zfnrBBgSwZg3nVa3IZdQqcq2MviXD7d779DgiTxvUhW+6F8fISCr5DxNkHOJK+zzTfWFPXWHV6UsqfxcibGpiCq6duppJQwkBAol03ynHh2phwms3Ob54fJPk5rjDyaHswEcWJJ9hx3M8k9Oxtn0CbzicuBUCOLOM/0YQoPkbxQmvG0KKtoWmvy8laazhbw4mULhtP47J4uDMhkkgaaDZ5+Zkpk7jUW5htfFWTh9EMru4Iqe0LuJQBzhM/230Pm/jfvspsmV6p07wb8dzI8SrcL1/nEn+Q+zI+rLtNpCaRKSOYZx2Wpa/2xGdl1H9M1L32YhWW5R9Fq0XZhESMPFt6pR7qf2wpFFs8idrZW5zehKg84xsmaHSoXbZ7JXdafs4TgwMmyvSyA8nRoTPrZAmwRpN8pj7rfY1QBzT4xYohzr25tC5c4FIxi1L8Knic0nQcIB1I30mLLDPbKXFc39ddtvnhkEFZY8fe4X3Oz2rLABUVaDOE8o7HpNAEhrwUBqxdmrBOd78Mde1vPgQsBckwFtfsQotcrkVJ7WNbma1ar90QU/etvOFfE2DOeXZ4/W5KIGPIatlEtGbwVzP3UsgfZ1t+Xab/2kIgGeZeiwgXSY7ZxpeYhJfFOjOqA+P09vmzMxQ5unI3ledUTQ9e7kYd451cplhJ5Ywo3XkS/W5TR/praPLnDlnD0XJ/yIIqLirVpoMvqrSMZIwvvQE/9Kqus8BNSQfP4hhN4VcAB+i39gcZjTnHhTSzT+D7WxcuRuFQJoaHqKikhUm4NyKsDUkE+7wclawTB/DPrscQoEITV+qlTiBRjGck1PZ/LprBUsnapHA5hzBIbN81jSYkXaR7f7h1KzSOVP0cltoLSjrsaYmv1tri/qUCyhy9W1/VnU27t6f7URgmcT4oUP66WUAswWFlqkcFx7F2fjYtMm+dcJLjYdARVEBYjgZ8yuU40PuWY+ss5sRpB6vmJYFfLDAuWaHbYcv8+XbB0F/OyZrTr/KWnErWFDD1MJlYa5qToaCnItulCDhQLaSK+usT/uNHSBHGkjfh9ZukioNLuZLfR/V2SFJwk6WwyMcWOT/kWbfnbqnHNsVKoVe9SLmR6wnqcRo0LtjdIX5P07ovaBdW1XZptA58b7zz6dFDbCnF444f6ytOgzHUmIwUQs3Y92m2IKe8++M6HRwrXNjh7AETXBBW2P/6qEGnBMtGqo+jG46/erMI/Y/0xNhOYLb9dKpirIENWtC61YUh/Nz0T68GJ5uW8Kud6maqJR8w1jLBXNuh8Qonb+lRcsV7E+qhyWXRyjDJUuWPOtxrOQ3XebGsne2VSKC3KMqKtNTfET8zEedM08JK5hr3f3szWcQylXNKLC6LJ8dweDjawoJeEZK1azyiezsdEoJR1G9qcg5G42GWeQWC1QDvetYWBoXaGmrTWgJPM9EnVF/MaJHYeBTsOgkhIJzpUAslwnq8MElsaI7sUOUBNR2om39f7+tuM7oQaxoZUGatSJbZyrpR055Y153GoNpzKFe2x1wNtqIjtG4/MguVwYK++SQQeRuiqlqRjjhSv0JJcRSj4Jpc9XJeMc69YZgs64utpg/aK5iM+enhIGC13Ic9hWD3ctsiu6svVqOSiKtC4z719VsgFYIzQ9A7AXl6QAEjTalakYnrnUdlz2QtQkGlHbAV3X5d+dyrjAW+fCjOzos2XJPXv8umtZmz9VJIRFFIPZAC0t4kVeQr2OmCxy8rRjl6wteCC09AAvx3DRIwarqQNsXTdbPkjd3w8ZdzPkEpwTTypPchcZ9AB3VCuvZIzbRBh20JWowGXj8y3lIwyLLab2fcJ+Jhj5dc02XdxktdbXLJHkNfmMvMgy9LVr9M8a7BUuxA0mQ2GmioewThTDJCYdX9E3kKB2m4fTsxIeFgpWQecQ1Fm8Z6NVKO9KeKt7KRsVx4q5eTDPCevPGgYwvGD8C2j4rbGybKAg2EV2O9RbKLaX+wqLH5gn51k1HCQ+EKBitVzT01r+PxWLt4dYxTErGd37bZvX7YalPbWKcsCNucAazoXkKGsrpz3VZGFR9O1kjZLGUBdJ/jy7sUmEOdIsc+rmU13vadDuywcUVILQxd0aNnx58W3ilMDfUNkT84uv2MNFgJAOEDXR1DvJd/4BVFyLlEBgyUhZM2HBmzFZNuPmOdtFxcmXHGvXm6s7AnC0RWb7wx2SRxg19UMXmgG2e6INzk8O0cb4rjTj6m1B+/jEwhgdH8qCebNv4nWHDSfwlLWDkGC9V0tZ0jvl6z6nENcqG8H1m7Y8TR/ctdv/EcD10NciYxKJL1J+ipT3FrhOz/Lnmpgg1VZpnTmkxp0AW73uhYX5FgbA+3GmC8ahAubIRbChdr6v44a4U6ZtcbsPdffj1Dtf+AEi5OSXtqJzg8lrdh4ZjjvvlIc8hSWbdK3YNKsaCeosErItMk00b5Cas8Jhzitw3lkii2UwHqNcA4ZX+eTAZGQ9LQmimMvNlZErpzC7IhTR4um8IyhMWCBDQRq28qCnOymKRXJJ4PZpj/GzL7484Y2/YUADslQS/J+YGEvRPHS939TgZT5OqQjO2qLP70r+7RyrxsFEV3lWrtkIcrqpu2rx67NxhgmwOD01Zg2yo6mbrYROg2Y1V9ciOP0gw7N0NHP9tcwOMmofIWTwyqgogl29h/GyUJEGEikv8SyRF8gj1oBZvtZhTcnVlZKey0L2n6lQSOYkZN4VMcgv10SS6/yNglqvzdl10JferMXYyxzyCw0slhY5ChkqzaH3VfyNrkF4dtGcSTU9PzBQPgSUIPZ0WtXXTRBML2BaMRnEkM6RJEEGlvRQbJ1QBX9I3SII77fOh1RClQ0aomQVWF2XgV+2MqGcYM5xhSrwZa/77u31XVQor9FM/7V31HBg9EIWvjXH820iuy0iBrHvenooWSKEO0Wa/bjvb/iWaShWFCO99ML77uw0MTErQjTnBg59dsddfYdYeHKa1Bys/RnGmsKC7BsbWEL+oEfLC0NyySzHqPdpXS3Sf/3bBFBPt0PcANpFdDkDKIvdQclxpdmnWkOay3aG73g1fsDRWq9C2uZidEXw9IO5OtAxILALTyxtSjaOef1eBqhCUXKxMf7xr+hNId3hElKi3L83WXz+eeGh3Y0I+HGOiR23MDndMyYlrJSf9ZRyJP8A3zMbavfw0GTGLqvxWo0ONXqPSLHR4X2d8DKcVhZJYPwdwhM61K8mHZADP9DVbe3he5nN/x6bR4RRdEYY2GgBZBnEA/B0oqms+m9uFDcmZipZqxuJg1+5W6GPCLvxbGSaGSpSAsxs3+5fM+Jt3zwgSIHG1BrYs8flvqX24nKYkCeEcVE9wFCq535VYpezF5c2Ubu9vgX58944eXNIFYzM970Jg/WZb8Jo5kJGyh5VxrRw+V/RsNmqnw2uUStqSiFTTAc+RMUmupLTd0iOqPMK00Ho1IA1iPjiCfmWJ9JMJG5pHRTITAT/tr/2FRerkOIySKGriyNYNE3n6MQXosEQ0XiGmJOrnXowfQysf0LqYt5PR6I83wJK3A+piBHJtnHpg3urzFZxgP0VewznpkNvFkVX9wAlHnBOBKM4HtnISNQzC6f8zUJuqPMIdGlosUdUH7xPn6qHYN1KnFRFscVhSJp1Bf73+h0snnWmDoDKihv3nKRSu+yU/Qntc3WdrN57fa+F/lJbBg7ZRDyeIYbGXbkadihnUtnx4ydV6w1MO9MfFjVI922eQK0qYgsPGC7mm/uR5p5eGiibiyJjr3VrelRbwlXNdRu0S20nJh0DTMM7alAcuQjZE5D5rSiCZ0lLBYVrovPXNYrxAe+KGbcFwl5MxgNZTby3cPDbUQpPtpVug+z+4k0OAzoFw6xWIGo4NIZNPH+gjKewsfSFwe2nN/+ynm0oa+f6G0CQuUwkBheCDioOpnOVqdJ4GEt06wcYniV/6o+uMv3XLpenmpufys837cW0K0tMF2E9JrRyuaROOyXNGL0U5Te5T22HNuDvMuuPTyIlhlO5wRm5AgvRKgAyoSemY+WckdfjSLDXiJm0VYbnVHLkruF46mdAwhNMhYtxOA3gYMAqSn49XLFNG8a+ei6Fx+vhYGO48uUAeNNTwTk66z3foIvXtXg2md1YtFv/SlNXFusZaVwFBZiXWI3S9BhUnnlLFLlBtNnGdYcDH2WryRi3ojCdlAG2ma828QB/gDRx2rFrXt5l/Z7uJkau5Vt/iLLqgqmE06ttfeMIQ6DqwAvyX6dfeR0dvdtYaW7TTjVGKjG4aBnZjatrw05QYMDhqgDRWVqPYcWl1yPYS3KW0emWb60kavCYIIBU9Z3Dwk1q/4ai+ekpbXPs1WDjp+mNFg1OQE+2Yd3MgaQ1x8AUMAG3bDplIcdnL0wt4v9gI+EFr4SsT63nNRo6MUARECGQf6XV0EI9zqjseSCc7T2RFZM8egHnJgaWiNs3bUeYzOukqtzdYwWdbANyAX7xRdJ6/4ZBm8iprpa0Q8MLfk82bDWt80qJgnTCIXa5sAEbzNuBzZccDJPBc0ZfXR0aUTxjjYxY+6DAaTQq04y8150vRhJGcuXetLsFVLLj+8e4Ek5oLvk4/NMbM2AZs/FwAKD6CfWvCyMTYXQxmXtgrFtly2XvGiKvASBWOL3TDNaZ7YhEB5Ob+QbZuDaKvleEoMoCiq1qYxkZ0aN9yRXccmzBKC/99r4OF9++CK6tqfcwRcaI217MNgAbaU4pZdjyrSqPGhTeeToSINy7L1ovytSoU01tI5GaiIcysN4wyzWZu/wLESxJHJv9CfAXxeqSN2re2DsUa5z9LR1maiQhAmGVxXCeFFmu//ThN8pheYTW4z901AUFTRlqEh+PErmXijNbU3xvDXGlbW1TSr+rAMijPbFmtX+Gu75jsJDDMffnaMCc/QWZkmS5+1WmGpATKdgoHAElsAUthrtQsKPqIFI88HvdiEHLf9mau88h2tnIeygYJ50H1EzWq+n1vEDh77JU4bPIS+LuIrWTALXJdYgNV71abZzyNTIiSB0L87BgMW0iT7uHfAQZPxbKDpxhvUYF32t/dhCoaSKaLMU99Re7PZyqyHtuvlp6o7EBGptgMMosLAEfAtVOhNvLeroNG+lwTbu6S32ec2P7RZeBPAGjPT5CECm3Dr69MHta8jlx1We8x/eDQ2L41KcTWi3D7Ws3zvJFhqxvI011WWRqElc5ITbKNkww3qsEYZscTTkpZP6Jq1JI0JNER4XciIre3gXcA2mKjDXDC8t/Eq/f+4ThqIFNWPoM8gRFiSvSEJ8o/Fi9SvyUDBpTPI8TDgkqwYQjthMwhsIVsHpJunCzc5O+QOsfdi9AGCnFvU6Cb5YNXsroQFzSZy7Zqjg+M6mdlvl4hk+Q+QiM39VBkyJe9FS4rs9TvMJUj5GT3EiCmjM3un7/axMNYhMYWwiO8q2BcNpL0Z3FB2LeDrG+TDsk2+7w4++cF3MIq82XUfylBZ5GMq7l/UpDlaliBp+AHxFELEy/Wcg5p4QIXxoRMB8LuL05iIfjmOuqTdQpIN2d306cubDf719GDYI3AFOMjvVL+SVYQc8PStK1vNLTVG9ej2nXtNIY9OOR+mw8obAWoAoJi4HJj7U6B86TJK6coPKHeUNJKVj7yAZJcYBb7X3DX/GKxU10t065Dr18aTE9/mL0t9K8JdaEo4ywCqOerS/KuVUxzfkrge0xiv1HzaoWIaQOp0X8ZV1NW0kkbooop+obnQwasxTjAuloOMplARw6wuxI2btLOvLr0ifPIch+/q/018S0I75aYQpwm9hECWVwxr4dCdyEvembd6Rcxu5NwYy64po4Sahw+eV672PH85SJYtLH978C37zL+ZcjMSZqBox1lgchStNWJieN6NTujaDKU+8xINwSaj69dbOGL+xBL/QeVNx4LlDzz0Eix8DBFs0qEICzZEWFBINr7epmDibRtqdRPhzBpJwrinLbdERXTFqPPOOwDqS+gMqcMIiyqE+wsbo12T7rm4DT1YFpzQhNZsZU9SHLEUSjIrelcmCHSp8zkoKUmn58t/TmvOXPU/ykZylz/uyh+6DxwFBQckV3U7A09K0sMM3h/yPsXHw34xSSCXRraTjRSJZLd/uaBnP7xMH4pJylsVJ6aF1Eq8rpUzMgVDPpHfO4Oa3yZ/0mRDbJi/hzw4P7WLSM8BRElZLKZaPV5oiIDki2esq291BnhB2M5xVRsqBlSnHtDSRp5hDuyxpDv2Sibnz382ei50XTw8yEJwnP4k5M5IxmThDqK1FXdThqhrqU/vtsPhl/MGUko5r4aM3IxnZNnZJmrQqUaXX0X/ShK6yT+LVv05XUNrWzjvz+Ithaivh6lySissGbT4O2Qs0zjP0sCYvbsyyn7G2cVfoBTpvNERhGnkYBTUM1onhZhSElED6UtODIGIwjF8Oz0MnuFrJ5I6IoqYAamCI6XrrNA2t5VkK+tk+PJerXmMjyEA4XT1QfBVX4VJ+nuLfrqmgfWFE7rziHpP1g79iFXIZTsgUuXGCOnzFDuYe2v/svbo5ISBduAPnQKVxi/cLCNOH0ASg/n/xK0+HsqaR3q5a7IVtCBvRciCPS0Ul/VtqytJbhkU53hO56IbtZYWga25HwFVsj2qbvKVuvplF9yN+IE7kmseRm/unP3Qhqwwz81yB6tThliJh5DcVeHzt/bXAOaw4PqPRc7UfsYLzRZUpVzm2EJGE46NJ+iLdklqz53cEw8WLjvf11MPB8q/HG7pgZZq9a/x8+hjCl+aCoVylaOvCkB5rBX0W6nFaFjprGkhHFsbaFFkIOl90jo69NQYG/OB/7Z2UzHn5kgjBQg4rCHOaesKmDNzFfWCA1+huMVbilPV0yeTty8UYvM92Sdff6Y72C0mv3hdi+qo6CjmDSzXxjLNtbn+vlyjoIPQzWPmEjiw5V7Y9uA2r809RdLnGvO6BOS95D9noDm9ZLrT+J2r66icdna/7pdRz8gL0U5GktcdqWiWBF5f1EtCFbJi5AVrIuV2J+jCJiu/oifGvapU/XkTn5z1w+2pVFNb4gy9g701bB2EwnukmnXWcPTsgU0paM5cTcX+JGudA6iUpFZZrqF9gcXedDrNIK6pafuF9eD+N/7ygnyo505N5NJNFHkfiDYpnnrCko09YGWlSHXiPCjpY0swb8zHCXNK59yOKuXq40HRijbviQJivofLzs3UHn1l6idD89DL77G+Airyt3WwvA47w8W9YynPeVZoTt/LluOjE7NZXcEif9DBqMKaNzHLclxfvYNAP3x6mH2f9DYXQueZFitz0DZn4+yTIbQsMDEGOLjSRQTIdpiGo8zzoVHijAvAiS+++H+/U/00niTQvG8w7g3xZFOak2qF0mn5762vNCCM0s7My7mDvINU/6UTHLM+AxhTka/EIhSop3wLtm8Ka+bsXZO4kUhfZ0ZUjWi881gv4C35p+4u1K/JKEYwTxynriTuGkgCT1gkvAbAhxgtgAtcm3ZbEzhPz6ttwB2vY2jjxrPgFYH4IOY5xfhW181ZwH0UChtFpL/WOw+vViNCB7O4VvNwPNuTjK9crAQ1kIQkvX1odCiB7SD+w7CEIixqJhY9xHl9cMNfJfb5DiEqQrIizeEgabRqwD1xPNwr3n3F5q8xHhotp2bg/SOnxQYmB2JNUylTAWTDZGLndChLwNthLpfjIluEkI+sQprhIirgKnJ/zXr5Sf3vxT454KCfFXyTXMkjRJV8ocLBDVlh8YQVTs57QSQROj6JndCiAHvEgdIhS71glrEEPSSVR0Oj3lIU9vGx4m5xh0jNCFH65NPi/7RLpljLhEN9KSNEouDsV/YM2GIxljB9DQ7DB7DZZJk9dSNUl5+UMc+EvSFWbO4LT8wW4RdUNOMJ6JOwXDpD8rIDVC7XzRwySuOsEGjTP3vwNkBElF8GdxBIVQChRbEAmdIuW/eaS5t7cBNiDfOEm9vO5Vad794jqA4YG6P9xp5oaNLqkg697V0fAmDIZgKkCNSphKcmy9dVRqc4ZakOKbphxsdNcGTrVRrSoTzJCg7w4iFmUMw3T3tcRoSF3WqSOgF7GCThlTR4+/L7moOQ3lqClBtWJlIk8MZMk5/ji6oqDytEfDNiNRZEW0F10NMdPAbRxzQeUv64EVZLHyLyv0L8XDDLm0x4//X4r+OmBkcXgrTOFtIASMyc+akfV4OhrOAPpFoLSFMc/9DecwB9WjKwc9uOo8Bit3Mi6KR877RIHyxlwxqBlc35R6z05YL3qyfFxsdn1PuGEEkvU+2pbWFJgvwFibfv/8l404slAGkaZROlGaj98YsGAmjmxiFt+4be0hrXShWsMlAtrWMjH/H7xUKQe/SYuxLWgVpbK5Itp43LEc0YnwuQkuJFlX9txARqJIBjBSd9T6leD1PvZdEOCjfjhO0v05gdGPYJaB5OddQ/6tyV5xZTVa61qiyREnjxZeej7aHMGegCBfrDbbxLGjro6SucKLueSjU+orG0CA9jfV/kNiJtaN8d7KoSe96fq7aYthH3ZdQsamylkvHXsnhAtxmNvCvhdCI1HvKewglfEnmwBf1/pGdOUAvK1C1/mY4NYolaJPDu17ScXfCmkEKxltyHXLvgiocZQdYEyZYoHizqv63tdtvDzW47nRJQg6SJYbc5ep5ksPsFlRSdadB+w/XF8JnUsROG1rDgfMUAgR7l2ja7WjGeREJLjlL8mZ5sS+KpbIsqPBiOb/iLWg0sMO/J2JDosEHlw51tIXGtKUsqatvGpp0Xilgvn42HxvgL80D4z+s4nIkoJAxpl9RueDHXSHRTYNYb7b1VNcQJB7ivJ5ic/yIyLzndIKAVgHd3+75HM10jLsPg2PFd2rSWhaNDy4B5xNHs7YNn6A/toXCJajAbY9ryY8lXC5zEiIe1NWVhlAq3KhA4EJ3pPAKB41zjdpZPCHeWISUHnQ/THgPAGHkfObfPQ5t4NqcpAkNLqIYUYlLZAS+aIK6hB4B2Baj5XGAZFNRQb9cQURHM9aFoQjWMTRurusK8itD2MbqlYA5pQ6OfQe1YM/WSnr0AoPzHTSIBHKcwCOpGQ1adIC82yrAkplv8BIzKmhOAE4udwMhQgkukVEel+WqustoL9DZVHWjdm6/Rv1rYac1WeqT5+b7CzFBXDAjb4t1vsxtTb1Y0oWgGKim+Fi6/fQnbaXp3lY51IWW8yXoc5LXoXt+2C9RtCaIEsaDQrrtaeCjRWSoV5B3J05l4QHNUVoBEcrGOsalsHSPsuV4dUZJDHVdPBwyiFT4Ds9R1qiOZUGk5mr0tMhsDL1iEBfU1eQ5uErU0Z3MzZhik77RlcIrfjDpiYowu0WsVeg0WWaL6Ga4K79LWZ8GJU3pSSguuJqC+PWwPxU8p/4DHyiruCDj5Wxu6OLe3xvd+JE4hl3lnQeB9GmFEC/vOyj7hT+sOedOo3uVzTDczNquWPrQGh7SghY58qU4aIXUbegKrVzUk9JL9lKSwd0Qay1ASxPTz/8pIvXYoB1pQe2hW3lqhzUScwsLLR0S3mUvlsoATLAYoDElj1jysDbluZJuL1ldOl9XA2Dk5PfTA5GE4nwmDowXu5qGR2HXCe7/Jqw6K9FicWzJ1P21oOU/4pyqG9vi9gB3/YtVuwZDSETeIkDZ4zlXGIQ8YTCoESSJgGKFszREuHOa38HumacsI4gCdQDYjzhv9tbr1rLGqXHP1Y9zCCmu/drSGFBeH3dZHKiYBa0VNCzcW5H+86iai+rGcuvbJ7cb6H9l8E+HDwICTgfTkkkcF+fVrPR3p3F2HaaZZjHrHSvTRVuyCpftcf3udmTks+ltKyWye8O3B4jaf7gxMRopcq8KTqMIrPtvmjQ54n3bcauAWVKM17XiQ1oKqYRdWeb1bpOzsMM1mJ0j2bL+bgE7ZqEPfMSIsHfrLjeg9zIdkeS4Cp1ouGPUvEfbkiBBIYWtyNdIvxtrciv+DD1gjDVv2h2r0JfrHlxHuIIgxc6kt+0Rsq7H1LLG6SXg28FQIHBOb8vcrQNT/XMnadjMzXxu6/i9EU8xX7+fdOoWqC6E31DbzOVNibF8M6F74X59rqEM7DcU7/xPYOZhiEdWvdrT2Cr0AkNVAf4a33y2zbrfCfiK/DkTWJ7FVF4QuP5YO/vuyol4m89LMYXOsNuMgiubLWK5F5ChSkaD8+7eA+yc8xwqtEINR/q/keUXK7zMt0OfuWeljuZbUGLuvNZDbfgYge9DnEKpn0rM1WaCvy5rVHsvYamdV23Syy/GQb3mLuxU2ylAyf3tPE0O/yJLHV2jJ9dOHK/49EGQ4+dvcKhVuHuoJdpw+neZ1dX9ODnzWf7GtiaVmd9Xn0JrmHrlbJjyBMVsVaxyK1dQYO+mNS+Biv4chNez6+Os/sAe2r5meI/Qm1k8nR5KnELNurxl5jBS8aJ4L3xxS7kfBvl4uWq2Cqs037zxkvqwLvaEEjXACsTc1VEaS/+/mRHKA/CPfJ2SB6K1zm/jO7DFthGG/CRzaYaoI6mDm1/b3hx7QrNU4aA8ZtHbvEm4UwgXq6dwNyRhLNXOJMZNCDDjBzwhxBeFjJTAgyX9cvn9ROow2nteW1F2gjckEFs1rvB+sPc8Lc3zdV9S+f31ElDrX6cnwGmk+SfMY7VL6H3PZcsfsMLUiBD7hH7pjmchAWGJtRBZUdMBxomHh/EQbF0Rq4FklzxP2bPy6gs5aefFLeVnqY3G3E3xCZv2L6okQcnbFyv9OmPzoLQKNvWC1QJspXZS5k6dK6txtbn7Z7ajLa57LCy6EyZ5GTdvPSd0S6u7esgDR6fg7tAWjzq239JTfE0AiiYn/0phbjugYL14NIve71isg0+EPpFZJgP4NrDDmGqz0ZnBoA/OJ664ZcT0PakXkte3Hqu7WXUK+fw0BQEyu0E9tBYyDlA4TIn6F7t4LB9d9GZ+QtoNbfm462QpaT5mKS7TnRp5+BZPINBgftyym2FIfIlT9RqhanAvmoAYaILKWcySmNFM2VdzeSaJ7iwWKYPkTOicMQ6j4eY4F+wiEti/tdFFfabU/T+/pM0OWlJ/6n+6C9HTepESrNekGg7OXZqJnnKzK0ist0H+X1ybmPStYvr01peOoHKuv9miytKJcN16GStLq2CbOI+GlsI6ZTf1aVO5bVGmuc6DQFDw5jEEPI7MZLIfetg4WHO1PGaQjseewtVacHCY0ty8ysAueNQet7M93sbgxJAyW4/D9ungdzfwYS5ctMGVIJjzqNNnDrcU1ITHkSGT+eNhXN/OKfKgP5icOqsGA1owo9ttiGrq9yb5h+PFWIdsNHaPYeE46sDPas7Z6qvFFdXxbPe6O3SamkdneiyIkX74JFAaWHLu4qT3QfNniXe87qnQqjHGcaqOTGmgh/D9PW141p0ly7YVB3fVmZWUC69ydhNE7wzUUiemY5atdW4tOjSLRqMT4I18whOi39Avgk5xnJfLh1ZnH+WCYO9Um9Qq0oxMXMh0KNEyaC29tGo+mWPXjfv+GjlLZGVjBRrQboFbu6aTgY4GWu2CqYZ95UkFD/FwLwE6gRyUHvABh7fAkwl6dxDOYz6HGm67p9ZIiOQin2/NdBbDNRqvd236zuiLp1v6v9G0rqLaoAkxOoTDPNrkdAWR5L+1MLg3AWC7kMEhxtNsiNYxGbC7oSaEwbCEZfMbqPi7MfMsHpJ2cwycUHx6gx+aM1afZao1lM5fSr0Ei4x+Xl8lnLf9vPryVKzPmPTXyKblqkY7RJHV+tPnSEchxIRtuYkEy7YcQOHO2BbwrlESnvUfApQkoK0bFjHnv644YaividEWIHzhlZzjKrgoUW1yrT/Bfa0GmjItr6iAaGzmg02iORXe9MrRoxxW68/AGnUZ/to3zQu46dwfVNUTAymC4JE35N27WtVtyb2P1Wl0QCy7Is5gOUY2DtKUR8nCP57c5skf98FNxDuIxLehETcd0H6BG0TStbFOiMCC6paYlxrEk4GlQ3dEHgyKGmfp0vlGC90VA4fM/aHqGTw3l6SVJc0Yr1ycjnCtIdi1ymzF+s3z/u6RKZdRvNOfrFMHrDovAogDW8WW1kmXHbDeNKjc7HtJPWjPt5+TQ8uChVA+6D5GE7X1TPhRLUgWUlbDUB7mv8cRMpTk4cGTRZPh9oSB6OvHISZHebYRgsppZdadQx3QP7zgOLHAB4M5J0s8xm41eXd5NcRf0CC0mp47lXv3KKSE7z5yQ9ttoCVCvRlgtZP5oTay46WsNVlA6w71C1LLwtjBeBF/QAgF34GgL/XKiGruEm+qDQj31rG7IviPc3vMqctT0z+wiy3G3uIr4O6GKANSIm3rj4aAl5pMNt2pOtHQK3aVcL8hLQiizRVznH52dvwpAErxXSWnoGJHMTOr+Wd9/COGmN7Zw68HegPVMs+WlU3+UcvgMSQ69ZP5VsmuTOya0Jt2Olz6dCxfncPSsCdT8FdZTVU+RkZ5GZ4i6dG5xr1lFvu5P4ZnUOxP1HkoBWmE6LIZE6aZg+bYslsqtymH9uromdKtNCe/1oCE7wXPLd1ermzqP7NgE+TrJY+NlgENI8BQ2ojmZT/Qqyy8/IfS+kuwXH9/eUL6d/O13/XOzozfr4lYYuiEQ9lEX7xjv3Y+XCBon+DKstW0h/eG0tBH4Dgf+r8GrI92bTFlKmvgOkVVve5MLbYuzi4uYvdeUBpzxwXjzhx5UgFmRQH41qUamd6cTeu+l2wPhQ5d/moNvY4f6PIfn4NSAltbgxflQq1S4v9M0lVlpBNU2gjuNq9Z7jrQyMDuUvJuQcUEIC3qqK4HnCJBtWakqzSJTSmkgBKbuMEJ4/Q5aFdk76FbG83hxia7ZM7RUCBhmayKpZyL2YeDxhuSKjwTuSB/O7Aq9DMKH0uZKnwTRg+looyTu7PMZoTYAYxHJsRtmZwKhhmG4/+DXwNWNglCfHSbMyMs9vkXbMCzJvNmGLn3P6JVS75BFAyYBxqNWRysOYKgMqp+qhc61TS8clWakP68sWIzxBsdFzznixhlw1V1436GPyo6xJ4zrZ9MK0RNwzq6FcGSrJL+UM58gqvg+q0hLWc2DXooKZo10pM5N7KcSUablIUPfwOZ3ZMQY2rzhCTyGU9qUv4ScHQCCh/Jvh52IZgrbYPz0VrCfDLCyHvs4msJ6sW0ATfEJBLkBcC3JCugolkhYVYj5PTFApcgC+Xa8y9WNwP6jIA4v15tFVhGUPpOxaulM1CRggWTUypuWj+SZJ8QyUMrJmRKM5X5b0BD0n75haE1q7pGM1g+WFa/OxaSKVo1ZBmOa0CAdGOYrqIHqJ+UpEZfj6l2LRBSOYC/r0FRRTPoajFNobVc5LM7biHv0Ty1Ro9E/T1AyJvEN6ZZ9avVJssc0cgvOjGcxEEWAO1T2zRlBk74k9ucMvJIZrq5RIzRFVEVvk1ATrNEsciQydmI9rUhRhTAQTJp7G6wE7glcWMn3B5RbnjojEz2vqPmYZJ+tvJUWE+5bDQNOHomiwtMtKfK3jYlzgXw5Hi9gKJxoLgj+zk3gSC5Mv24eLYicYowJosNmhLXYmWK88DuM2vpzXxZ5It8EIW2aJB2ut33mVVdWcOSlAp6LJnAA826nhG80kkPMhzoPKa+EQLbnemuLNbNgcPAHJ7+f5JfBDaXFKjOShk+kHXe2p3JLCk4HNPJPnU2hmroz+9KxEI4O5kjF6AEIcd8YNfsk1wE1l0cX7GpUbGgAgiFTq2MvWBO+z/bHAGpY81rmr79wjeGYUMyoTdzm4c2dVqi81Jtj0i9dfLaa76PeQ2+V0rnSsrvtn+8qE+xSjsHkN0nVkNGr5169tSn0gQP3yWyvnpTus5ulaAskgB0VHFcAH6iSi0XIi1B5QTD1xbwUoEX+9sX74x6JcjzJJUNoAIKgloKIIB7mDSKRtBB9SzF7ZA4SKfeUWVAynyYRvOzsMZ6OT1tI9TZbdWQ+G2PN1Or4nMhmvtGeWyH7ywd1LexqcBkDIzJ99QVABjKr4wodj5x7R/JMBmNlwFsy/8Dw7SItibsAVN6J7BnVEPiDd7PnsrmdpWscXnNvKttapu8LgaEz8I/UKS1ChG/EzFXosFbvFovjkyuvmHfq0Ei16RBtfgR1VxEjGFMAXmYWU8exAGVaIEMvCGlGBkMgFi+w9dhJwCN6dTnooD5unC72Y4bPAbfFeKDA74r4ZQFsYGHhrscXj/ZjQDs2bQ+4kKKyefJSNHzWKWaU8Ah9h3+nhJif+39bpr5LUNNAaHcUjIWnVNnzOo8A2IN6SStm5U6vvl4BYy/cRRIwJkYCT3iW4hasN+bWZz//tuE+ASEmiwPEgxejIceMr/gdoVPuSLIcE+PuTUCHiKs+pPeTZgsVCa96n+MdFD8YMx2LyTnTW6FNSiFhtJQ89Sp3WNarBs0MKph/HA8c7sPvhTgCr/GIxZHby5r5i9JdPX9AC9vtDBh5bWB24ZbqTmOlgXL6LHXNyYmdJSQP5CgsJBK6tSQ10aYscXYWvJifjJ+RX1rAhNV+r7gLgVA/UY134Z9aqdwCBBd6hPQrcXlwcpKdgJFuYVLAgs1gq7aoBAOqhX0bfrTnzHEzNsX4uJ/uO2F9r99s0FfPteQknReVQbrUSoxm2Qpkm3zyHMB9XgBFdxEwOUVVDFfz1Y7YtBhBk0amdNFSq8VVladAZ/QDQYvVaCiSbIrQjGkcaahA4eIR87K0nSq8/xl9D4oeU2QPVQXiMaky/UHwyilRws+vT1EvmVWTvZF/sl8Run0McGKDj4Y3ExH4U+nMrZ9mhnINBGmpg6b6mkoyPsN311oW1M3GZ9pyKFa/HS/OpGPbCSyF3a2+z5KCMDU8ytdQ8dLwDQE5PG4YfvphJuQifQkLjmsJHuWMqBFmslapbBkE7tTlNImIqiRIR6qV/CWjUEzk6cD/Oh91IJlyn3QTBEdAuyJbvXqTk8lNKVfzqM9+QxifYRX8uTdE6me+mFPUnL972Ja6CLOXhwKDBaiB22PPK7IK97jiPPO9GSGDVSPhf3UgPafcddwLrweH1xXUMrO0uh8pizEOqC17pTMSUCh0VOjHDz8xJAApM5YHrnZtnmOtnh96fwTSt/PJfSAGheDh+P2UQYau0RdX1sgv1BmqMFMYz7wtR69Xjub2rQJlFh+W5Ah97qQEanTqRBATRwliA+eBQPEekR+Vz1eZvZD4zGfgDj/X9RAfoJqYNsnq7QLDcytUyaGy5srYIqFIzbad8F+fPIoMgEYIAiw2VX5M7WjTiwqCOSrsSoXrMOcuLV0JwBk6nkhGqOwhvsTQ9Lsg7NAgoAZLMMY9u5nZrOht4fCYWLWrtKeCyLzZoJHXNhjblQlJS3PwgzOJ8dqCdlTLm4FYfQVPrHTnJ5UDcnUfw4H846dZJA6vOJkgJveAiphkPvyHnKvC8aVV/QDg9fLBZWmtncOgjuGRRscHGDpcLf9fBvsnOb/kWIHoPVzT6vzAkyIgDvAG1Mx1EX+9Rev719/InP2dYK4F0hwbsVB8J6ZOqF5k7SKrJmr9VQ2fPvudbwFKmwqGyKSUGcdWUVk/59Zs9iAAmU2wyAmk43Uaml8eDsU76eUPtZlXyleT058Jpw5Y82G1t4Oseu+JddJ2LtXI79gmaUULq8G/S1+LdM1Dk5lKkZF0dL7TpAK6B27Y8xK1scHQtaMhJCKA+TlHZMu5XTqoXSio1MvXnlqPdDV5FeskB+lUYLSsvh0y4s3BIAnG9tL6jkOdm7SYJ2+qy9V0FANgXaQtDQ+VxbK3oXYCQnidQJTBLh4V9t6rQaBr+rV86rhyNLeOcK7dlEWe+Nmz2dlqooxrvcD6uNMVO4DOy/Y2tf1mwyLqzj39c1eKzUPtJQDTjI6zTNn8rX+xWpY3HrCColLO/rEyDIWsQOvKmvY33ynPdWi20unOeOs9oyCV95Q9cFjd5qEdOt3JzbLJqAt33W+KZ0saPAkrku1yv3RVJFE8mJ9sjbqngzbm4FSJ7Ij0dehtjZwMSsc44NAbFwQMgEaSYE0IaeEoYD4bsSYPZ3iOcCzCgmRqSJSevFGBc6Zf4l/+T0JQAyWUl49ugEPEUaA+s27BCiUmkL8Psa2Ols9Tuj5neXEcCENeH878jPlDa3JApnidU4Nzt4dIpBmCpTeMCSqOuibAAIcR33C1ykPrUQ21PyB3j2ng6FpeFSh1u1iRJG2/GzbXd/2Woh8J7/nwmXAjqp4YbZqDnLO0Pk2s7hhQhtzemK4rZ+eN3GP5cmCOPTl8IOAo7cS5ovV0JzhmFUM3JB73p4mTUuDVHU0MKqSYsbbilIkqtLi3FF96AEUxHOoOYrOoArLFFmu5atFEwIzjXwm/O/Qa7YqHigBfwJO0/PqtQvgdR09fqzGz6tG14RP6BrwBDYawiNnY4g/kTb6UbQmd1DJ6MnHGXwd0RlqwLLa+CS0LVFEodh/OUORWFOmOis/fz6/cN4Hk1iHzci7JNcssq5Ol3GmDFkups4mjaQkjMFgf3nNXzZKIEQpvp63jdapuAERrm69BDqChmlELMwXghR+n0lqgs+OFfwEtuA7CUsD2JdrYry+ig955Iv1qPuiyhJyT7lTiGY/uM3qRFaE+MQ0kUMF58GkJWA3CHOWeOaHTLNEOPx+sb4FL3ulsrRqmganj7u0Wyp3cytG8Yzw/FzVjU777f9/PauVpd6b3H3shpdMt9PTmucyPQsnhWLPsTkvCNm+f0/9iwaVH2cHOzIvhoINVXNB5OtltUGl5fqLydnCVkonRA4Ld19NCNN3CWMm9V/34E9joWk6Jjf5Gs7xirS5ZlwATx7fkgcR8is7Veq+Kt9tsOOKvM5rqhfekGw/UIib68HbizFRNc1Fgv71n74VAKUaHruEFuixsYsiAVe37lcVieOd/6PvgCHjL2ETcA/Kp1BNrRXacRUFBe3ucLPx3U7voO0oudJ5g3YLUTwVtRiZaY+EtBMYkuTwu64GSm6okjwIiLEmG5x2AfFXliav7brB5n02XGzpOalmWXuvBJ3Z+79Z/GUIif6PBag4JQR34atQVnsEaeU+3A5vhPW5Ukf6+lZipuWp6LTGGkV9fiYCMfaqwtZWB+Nk6e5cMpuWA8PT27Sun9OlW7PfC38cYfYxGa48qVapoGcKx1ucQT2S8ZPVvSoaxkX007wTuaugs7VxfTj3SKNIQbvIYf8nD3iZdBegkyRqv2Bqa0u+8I3uxC9eiNzMOZkb/GfuiwQfEOftoTAVBi6iuGvLO4RdHR1ui1zT2fceOmIQbrDD4yWrmhnmFYqY9PxUULC8GBgUeXX9kANgLOYwaO2b/DOT4PRnngtq9pHXJtppacXMvvhR5ETAoHuNg7JkHd/+ifbDTpLdTRlx5EU0ZMBiMFxSc7IidRIhoasyvh0SVMgtFUorEWHTfV1M55H8S1fv/k7wd3od6UCQDYB+pAbzIgFq4H87lssFAb0p7c4mcNsg+5mLLUzCcfz/7D6MhL42zqpnDFTp7TKcwbMgRPuySKlgiWcJSD2oSczrLYTkwmSZ4qQqkpw4HuI/PbS0BewqE6/I8Emz0rT04HJwVQacaKNfwiS93HkgcZfC4UpM44AXawyq9N3mY1m2ZDs7LQng0f8RDjydng2zzam62rrhoB7sgt7N3gpRw3sw+svwobFLtb7JsmjTk5sfhxKz1X1NWpRKbLuVbSlHcqbBT+1vecXvN4whTru6s2bG0Y7GR3469L+ULXemWYgakhP1WEpVAEmp0+L/Siyrnk8VmYMlLMjBRN4itkRgd4D4rkXLfieP7mMC/14vNWCkjF2Aa5wjMEHCILIN+cNCABhAJ6M/1V9gov+ELWZndOda5rqGipHy8jKDIbFvTyzr58WPT6zWfWEIAdaCstrEJx/FxJgSTPWU6FNLE+AjYRC+8d3Ht8LvFou+tRb96dJjSzHMrzTv4FX42ICsRz1Tbtw0ClyvhABGl/SID3Jle8WWu4t39Vv7l901Nu+p8XuPIQ7UcjQ1dsThUkj9SMIOp+g8YuiDOAL116v3CWdPnN4kN2wjN0fzstSS99voBpfYih/6nMzEvXwBDqETiihzIC6HydNDozoRNkcrovxXIY8m5CJfFmZyeEIHdUKS+bMlOj9QBo7rw3qVCkS+sAW+rKr9QvoHnovVcFsRt3RJHPdPZ5xKP5sR3l5CVlIpcrryVyDOCrdpbI099rXE5PiCmfTLcKlA3hxJ74Gdadvv1rzCHpA59xAAhl7E89Zi9M71Wqjpj53t69N0fIxkhkPJGCrvXw9H52KBE+ghMUZBxhwQ2CIoHACTyIYajhPoXeoiwrQvCZblKQIuTqBxXDxYfbinwU8Lx18N00MR2SbLiPJeVfAKaHvP0LgNX2VNW1GlNmUF5Vu7lwS2BEUxgVCjHlfS+Q4yLA5N3pMnWcygXQnXhp/2cmglS4VWdg8a41bxIWJvS0q8R/d5U5DhTFypDrF4z2e6NFvqTXpIb7D/U56JtTJOWB3I0ymTReUspHBehkwz/LfNThlahlEJ0cYW7k0TjEA721Sdld6TQpQB2YyZQvsTi7/iVi5AySgzYOWl3zYTmCBPXiWL1ympje6c2G9saeXOgz/O0+pS4zkrgwBXoL91yxznZy/p62nxRCBj7q36qk3Gn54kV2GVZHVNjCuqwnXrAMy1qRoJRIYvjdUzLJRXU/gxycqVSFDpXScRTp+LGeTG7fHVoTM/XSIy4IccZu4mQdpGfL2cJFmD7J10dIXpzUUWXHzq+hfTBTFdRzVQzlJOcOSdzk4n5ejjFq/ELx7+9uiBU8sfVW50xKWjVI6/3BJJ6KScSVTxBHame/9Bx+BSG3/GIaBX0koI8KUwcv/4j63zbw/m/5/xlotMgQ1Yep44ArxofBnag8RL4KybAz+MLNhFYy72fuJkyPPdZWwOtuW8cP/duQFRIY+VIPzx086Z5Zyfj5KbymDgecelp5HZtIUi8pjZXixkC153Yz3F1cNvMX7VRT4g22WzHpESjezDfmpXQYqxnAXHcJSaPMGL18N9HWHuNwcRx2zj9c1ETtpfbrsoATDsnH+wMRH7+8u0BsIGWMauQvF13c0Xn8UcWDAovz4pD7p0GIU2Vt8wU4gdaG6GehZZeVFMuwQCTwtb/gTGgMDzEVOi6GklfwHkideJuXtRDJLYvaFwTnOEH3MV92mRigYUEysboy1bvLW18R7ciIkisWfC2ItG4nq6XL/6pMC6mGpdG3zFkuRS8tXZ/SuKk3D8uClcVn6FvMYZHWwCYJNmQVEObVzk97Pi96Blibruf3ty5lmmOr/XARt0eAl6v6tH0r2yWcIpG5tHq1drw7VauhsUUzPNTlReOvo7Iqa2f5dsnIYqjER1xoWt+3+o4z5xLnIJ5bprQz9Rt08XKXMo8tO+SQklQSVX4BUIrMb/Gchzr+GWRVNk/TqwNJdW2xn+FRP3LV909nP9TwuGP/3kYNTOHUpzdZMpmA7tCAn5uj6K8Yw4BI32jl/BtJsXK0xjycpysauBRyujO6DE7wKol0lT2ddSPNmJ4iB1g1MOjDSFVYuM0ddmnLIcVKjC/jNJbeGlfn6M4ZYU6m3A+CUPxWyudXeMaFvHqpgPzkK1qAYgb1EzvMDH0D+CJifsbZMSPTeihc0XcW93pv7LWJCksIA20OKDHln+m3ahYGuV56ILPW7tG5vF9mR+dthyXjq0gu9mOyVgoS0WCDk8+TEnY5i6jvPySH1DYekeZOI9d/GH+cT66RR5546AS++rtmm6u8c4o9TxCaBcihHIH5Tc1kHQD3FWPh2JehEiil1wLKzuyzxxPd3HXfFCeABjHom8UoMl31Kuil7zUZ9Znj1vYMG3HcRmZZGQygdcgdCY95/qYUi12XJXAs0J8zuFm7Yz1C7wudomuvyrsdpR8p4ZT2HM1E/G1qrxitt50kZcglMLzM9vTYHIKRg+hsUMjZyZ81c3uqJcpe7ZDGTNPaXWE0NhUvRxQjCZlquwpzg5LR8ZPkGqTRN9DhjhRO3nR28E54yXjNP7usPIxKFaNwgj6vl8W2iUd9sZqb040R1YMz5UHBlFXYEOkCZ4gT8KLgGbt4oYqIezeNYxR/0wfhkloTKgZ/jcsy6NtSJKsg8va3r6WPB0U9M1k6lBfPs+rvHq2a7DBGexV4tZsenB+RVkjXYnAGIBYicqLmdBtijXRa2Mv3q86ij/raS7DdtkauThGEr+7mv+F5ISce0DJy203iIgTsnBGj+VZdiswd23k2g+OQNcGljug2u4FfXjIpWz2UP0I94pg5M1buepxsxohr93k3zWCZXO+0o+KIITz+Dv2pwHWdcBEilO/KTiGM33Ylo1sN9ZPmT2ERcYB2uG3TYmcNCrsji93AFRQ87jQ3sXQz683jt8tRbp9YslFynCDBFuVxJEPSOKftOdwxmSUr2UDMBubRG0i+I/PrX/PnkLPRfio1XUOA/zgYr80PBGGoemrgf6C+CpB88LS6c2CpbD3Ok8nPZBMfhtcQCmXALUgXozFzKlaz6reb7+wadb5rZGR1rk9gMzjWcAmkbI2Lnnd/yWLkMRwoz/UiNmGlPoy9mAgBbPOKqjaUqLqUFiI45fl1LM9Pi2wd/S9o+EFCtMlkOoHdvporlx1fPXpuc02pQYw9RhMt/+9euPXP5Xl64TqWB9weBTkYIMif0e1VLFbmCwKTcvCqBjPqgZ0PkPhB13eED/JK7JHB1q3QlwnBwcROqol8TEmW9wE77U9c7v65RH9fbta3ocZ4z8JaqqSHzp48/f6VPQwtVwvnrb1ZjbRfzKPMR9zRtl0qO3m6QXMUZnDFEHAynLZRYwr7eVq3trorVP4HkRtdf6u6l6FDV6+H1axVd8oYfnr5g8IGI1X5LdLnbxd42HBr/ctSxmYv9gP/LNI0ig34vHeK81zFF9a4RV23Vpb49sKNnBdbnEhXZqlO/dW0Bq1fehm2z1MD3K1WPtDdwwsroTS07SH5POLfjNOJ4oIJ1isxLU1Yx/1mGb3X1NP4pRO/LpGY87kmXKNKAQDHGQ4jLqHhTK91QvJFcIOl23fH/VfM/DS4Suu7drWGXMSCw8gxaHf2JDLqPM3C3uR+Rrv1AK8dbDFm61m8vhpQnvGWygFpG3Nc2BJj+HIbaoij2z3rIlJUr4xO5ltahg6VhK/DZyLuZXIdWxEvj9a3mMB+YSoYvCH8lxRUF3cAVAk+AJU+EFxH4W9iHGhSZ01Iym0cwAfe4laOyVpT3wqgwfqGOOgJbALQxQ5Cz9lbaXoDTcHu0Xhtrdtw905rtd8J77xb8LE7vGveEt/WSenm5miX4XtktV18fEZX95M1UsHCwxhT0cIS9SpH564qwp+fLTPyL0Ac/CwYLo3Ti5+hvyWt3ahhb4pROw0gWck6ytbeKsolZURcQa76rIU0ida++t04xUdib8Thdg+tbqJ1k13Lf0tpa35FS8kkfN/oVUEyy1jNINNei+nrNB2at5V+EITItTxOzFh0qgT0W2XzM+yL1bvufOHqEwXhvKydLcDHgKyfnkPyYDmkiAFr8rN/Hlr8p7XEOSipJexBQEeY3WmQUVJW4eo15dKz5CeYvvZGAQqhN+yw1gMnkReCGPfLVX0Vgo1S1hY/KMZKJNDWZ/R8qAcwMGQUgn0xXZOeNcVB6adCm7oTRcCvDQmsiTtvAIXtHfggDvA7x0ZS2wnYiKBUoJQZUozCr989CJkodS25cGvVItr5iNgaX/HNVTRNeFdxdd6I+gCsLAIewIgAChK8oFuy3JX5082fDbzHJ2wa0S24ehmRdX7bvNcBMeQlEFHhi5cYOV2wKcDwwqYdFp7fFPdUr8FTJz/hxZw425DPZIlQA4DFOtb4GHGRjQvAX+YrpNxg8XD8qr6n1vaHy98AsBI7WmJ5fmfp2ve8kDNMDxq5RivyuuVc6evLcsNCjTqsuXFtyssHmoR2N/gzcEnFa+cmvrg5QZQ4ES+4sqbH1/V8zyNtSyGygwd7iDXKI8uP0G9cS0LMP14AElqZsAWVwjQr3gaPQaYwhldwIRPMZDzrNlLcwZTqWf4lwMxOzjV88YfZC9s0xAtbeG+KD0adq3Ex9MdGt1t064Op4iUr2gmnM4PvB9NbOmCw9q/yTQcDwCiiABGcJPOzhBA9L1ld2QB/HZDDpy1g4mwx8CMFFW0/oJGqj7ipJy2i6QMEg9mQlHdd1eujgIRYlRtU3UHRgVWYMszrBcDGE5sp8JNf6xjyVVUV8urW4YXQIFrjNgcGNdShh5OvzkTjUqHuuS6pyNBWYy9ytdJwJpPo0IahOSlPsNZRdFN4QTWNqnoifZrlmE8xgXj47JwtFE/wi1E2208GCBfQd5sSgrXTz8ImQVnyPwFfpXe10fknyKjh9iPBs2+VM2FyMEwi0mtFggcowLKr6Vpp+ZveMrINSR5pwRuGZL1qvDLJOakdGl2E2GCfVqyqW13g8d9xxQ3YZ+uG7DXZeet5A/Z9kpyOPg+sKr48M1oVyeVefKGLWJoL9HrBFymS9qNUFMRf17qvE13jgUXgTNI7Yd+7jVkkAuXNr+nzKOW2J3oOenwMC0R2jfYMZjXOU+86Xz3yhEhoo2E6hN4pmM8YX1Ucsq01JT5OTlRnCUnzzOCbF/d/rSI8Epfy60LIiyKBR9iSTy+RxjAFxynZa04OUFtIYda8ekyyzHG65agw2XmoEixF8TADanPcYbO/wx2wfV+ADJ1hg3bMjX/zdRtLC2gTmO9HkvLflG/sM/U0hcF5w0Cccy2vA08x/UkOJkw/svZ/ulweezEE7S+5d11hNWPGE5SRETnqFZbXjcv88AQV8f5Tsn0JT8otK4l9hFpv8OcbIWdyWSynoU3w+z/cJ6BMiXToSnaUqNPVPc+mmS1JsbSh4ZJtjf/VojhNIYEyovfktoq8yLLO1lWeJV5l9OYwmQDzRKszQvVjOF9DZhecWB6yUJe+2DYycsiU+gGg1KTYF2nCSOELsnWa9wHt6zIW+0Xj/9zvYCIKAopIwgRNcYXQJRlZW/x1Nsk16OBaXenM4n968w2UnNCsgPoiG9mtImuSxOB2skYeedUY1wDddmSMNBRkmscak2i23Dx50MaJjnNY2Qb8r0D+Vx6Sw3lxf4rQH8LOsC5OGdjUtNQ8+79zYKKIStc463evDVVSXkaFo6dqkxJjCy1i95T81p4Ap8IdwJmLxLV/G5BWyRLIFWfKTfvs+vLUHWTecAZNVOBKHsQhlDDLO1j8KhpR5lN9Ous0gvl/bIfGrJsfK/kY4pjCyRpkZF38E5adsdY7iKOmZ89gSg5D+xRTIsU34IXN6kRu81yLmFxkm67+mPTTg8miHjpoGuMEk+Dj4aCJar6ZIpLFVzKOYOemshJKpLe+bWz1XChWnBxyMCIV0tnobVrNQvmpOM4C6NtkC0EyjmL+JkVaPiQQr1H/D9uuNAK1TZeDs7FiFRtjC7DRob305zTKBsiiUgnUiWN+nuZ45YiSF5yY560q3EYTvO1Kxf8Q9egHAwW5CNim9TG1/BVFaZGKdki5ACvRQEd2EfPZDiRtKXEC7Ev8ZB2SRbJ5z+TszTkRPHUzkQNzDOpS6+NpiZlSFXCqXoiQ6+GeTobnCdDmWe7vQI0gdaCu1w845A/QSVa/wJSBpq+5+sOHB67jh6YdyDcEXlReEW1HhtKmFdfA1xL/BslxrEqr9ZXrN9D3+VfK6u3I6J77xZzBR2UBXisk9pekYLD0Ka1yDEY0o1k/nkbuqwJvDTEzXlrJQrlfreKbHaD1xyh1bg48syXqItam9ynchXkjVU7Ei2kkYKmgk35K32KZ47e2qxHnvTFPvAap0wqhfoVMu0ojcEkNFjsKsT1GbZzhQSLZLwIOBx86fyPCgJAvfgNsvdLsQ9plCP6/tCxPKgf7YIhSByW/9h7GhZ80vUTmN7LRq08CMADh212KSeD5rhnNCahlxk0vPrOxAQXdJyTX6YCn2gYBibVwzmuRWAXuIZmX4TW2pqcLg/1YNzfpwEQd3NtgrGwksg2qpbL/jF7+BCh8oiITXs2Vd2uwfUdQhETMh9XhUZSHQxnmnkFhanPGmtZ0bntBa5gwmbovKas0W+wa+eETtI5wjoDh5bfcCPjp6lnD1hGmAJGpOPiEmQydsfQ+aej/kk6ZqbSCCzDCQtS0hfoipvbD8sEE/rtbPgiX013k9HjIQou1PAvY+VhdJx0rtI0QbBDZIBpJklElgKzPILdtdrmRZnd+/YFJv4QdU6DA/qjFh743j0WmikVz94bTJrAEGBpJTft8jRHpSv8sJH9TYnjJaTvtr6djjDWqd/NhuWmfmaAt0t/Dgk39UW10++nOUiP4QUktPkibV+fctVRVzZKbbk30QNK4+sQnaH6gGIu5182o+mOk8KMO6PRFjMyHJjc5c8fWFyUDIVLtRqQyDyC1EFypBEeQDv870Lu8CKt6k4bApuoJcDhVvVWm/Qq1U27m+MfZEAUYQ0HYZVdwYnosEaHLBSmqRiDEv/vEBXY+oFIeec68t2dfT7KZjp2CqO7LNCffkNGgGsWbbxL5fDQFXlfBVClfflCLTYEaF0BQ+qDyR/Yhzw/IEWbZp5d9jCyvnEqe4Y7YoQcTRW1wPXbOaJ5I0GzPR8Q9Fjoz22QnQv7UdV1kJ2M+EC0K2Toe2Vf8yhkN3mkehhe9zTdA8ShAsA+KAUTJayOD7NwMjqU3EW5JnkvF9NqzgLp9RKspyK/QcC2iGqqnd1M9F0FR81JecQpsHVZ2OwYjGVX2C5zu20zAx/te/bXPegzfXzHL4bcV6qVCS/iH2SNuMXqBaJ+9k+Ro/wWsseL8fB0bsF/v9rXEkX398Xp9wqgXwmJhSgpvTRYkwU2ZZ4v/x9b0FBaqI/DNW4ZLkvwvvmkatDhdnKKQH2Yb1tvMkOo1ulGMzAy6pgpX7gbovUxA6hTJw4gZj46yD6BYO9kreQnT+TRDzVf0YIQG81Bp6jlXQgUzvIkqdB/txbLINOv8v+hfGV9DBUHbvqM2SFBs0G61Fw2zOCt8pT4H+qkL/DAONEsAYPfyRrfUIJ60o91SQaf/UIpQeJP/6HstiT+IolX+PVI5HcMpuxaMAsdwhjJ8PDV3kal2pp1TApEPEEvsyHBXb76t1sZx/iBz3yW1a+RmQdF79ge+BK9DBc7VaMB1SFX4fO1C3RSmcnm5hh4HyJd6AD3bBLAIAdMnabN++MTRnl1bQneHJS9EMS/nZZRM4jjgp+vNBMK6I4TjoH2LQ3IEf3PjhALo4eCCRGDSYH+AuQSlw/GsAUTwYwQ4vGz8AsMQmACukqOKizoprVM00ZXdkYpHIJs3ejdVPPRFUlQr7W/QZz+mQbf1AKGx3BQkBfcCAvK74+S1t2vpv6LWmDIISRVyaxH3XqkY8ArvRzB6Iv4ZoJND/2kTwFwD0QqUzJvl07T8v6z1EcN1pNlhChCwjTlOVriR4ZiOWgBgJzwp/oAAA==;" vertex="1" parent="1">
          <mxGeometry x="130" y="60" width="150" height="150" as="geometry" />
        </mxCell>
        <mxCell id="QCEu3e3ZRH2YqGN6N_Fb-5" value="" style="edgeStyle=orthogonalEdgeStyle;rounded=0;orthogonalLoop=1;jettySize=auto;html=1;" edge="1" parent="1" source="QCEu3e3ZRH2YqGN6N_Fb-2" target="QCEu3e3ZRH2YqGN6N_Fb-4">
          <mxGeometry relative="1" as="geometry" />
        </mxCell>
        <mxCell id="QCEu3e3ZRH2YqGN6N_Fb-2" value="" style="shape=image;imageAspect=0;aspect=fixed;verticalLabelPosition=bottom;verticalAlign=top;image=data:image/svg+xml,PHN2ZyB4bWxucz0iaHR0cDovL3d3dy53My5vcmcvMjAwMC9zdmciIHhtbG5zOnhsaW5rPSJodHRwOi8vd3d3LnczLm9yZy8xOTk5L3hsaW5rIiB2ZXJzaW9uPSIxLjEiIGlkPSJDYXBhXzEiIHg9IjBweCIgeT0iMHB4IiB2aWV3Qm94PSIwLjAwMDM5ODQzNDk2MDUxNjE2OTY3IDEuNTAwMDAwOTUzNjc0MzE2NCAzNC4wNTYwNjQ2MDU3MTI4OSAzMS4wNTc5OTg2NTcyMjY1NjIiIHN0eWxlPSJlbmFibGUtYmFja2dyb3VuZDpuZXcgMCAwIDM0LjA1NyAzNC4wNTc7IiB4bWw6c3BhY2U9InByZXNlcnZlIiB3aWR0aD0iMzQuMDU2MDY0NjA1NzEyODkiIGhlaWdodD0iMzEuMDU3OTk4NjU3MjI2NTYyIj4mI3hhOzxnPiYjeGE7CTxnPiYjeGE7CQk8cGF0aCBzdHlsZT0iZmlsbDojMDEwMDAyOyIgZD0iTTE3LjAyOCwzMi41NThjLTYuNjMyLDAtMTIuNTM0LTQuMjExLTE0LjY4OC0xMC40NzljLTAuMTYtMC40NjMsMC4wODctMC45NjksMC41NTEtMS4xMjcmI3hhOyAgIGMwLjQ2Mi0wLjE2LDAuOTY4LDAuMDg2LDEuMTI3LDAuNTUxYzEuOTA4LDUuNTUxLDcuMTM3LDkuMjc5LDEzLjAxMSw5LjI3OWM3LjU4NSwwLDEzLjc1NS02LjE3LDEzLjc1NS0xMy43NTQmI3hhOyAgIGMwLTAuNDksMC4zOTgtMC44ODksMC44ODgtMC44ODljMC40OSwwLDAuODg3LDAuMzk4LDAuODg3LDAuODg5QzMyLjU1OCwyNS41OTEsMjUuNTkyLDMyLjU1OCwxNy4wMjgsMzIuNTU4eiIvPiYjeGE7CTwvZz4mI3hhOwk8Zz4mI3hhOwkJPHBhdGggc3R5bGU9ImZpbGw6IzAxMDAwMjsiIGQ9Ik0yLjM4NiwxNy45MTZjLTAuNDg5LDAtMC44ODctMC4zOTYtMC44ODctMC44ODdjMC04LjU2Miw2Ljk2Ny0xNS41MjksMTUuNTI5LTE1LjUyOSYjeGE7ICAgYzYuNjMsMCwxMi41MzIsNC4yMDksMTQuNjg4LDEwLjQ3NWMwLjE1OSwwLjQ2My0wLjA4NywwLjk2OS0wLjU1MSwxLjEyOWMtMC40NjUsMC4xNTgtMC45NjktMC4wODgtMS4xMjgtMC41NTEmI3hhOyAgIGMtMS45MDktNS41NTEtNy4xMzctOS4yNzktMTMuMDEtOS4yNzljLTcuNTg0LDAtMTMuNzU1LDYuMTcyLTEzLjc1NSwxMy43NTZDMy4yNzMsMTcuNTE5LDIuODc2LDE3LjkxNiwyLjM4NiwxNy45MTZ6Ii8+JiN4YTsJPC9nPiYjeGE7CTxnPiYjeGE7CQk8cGF0aCBzdHlsZT0iZmlsbDojMDEwMDAyOyIgZD0iTTMwLjg0MiwxMy4zMzJjLTAuMDg3LDAtMC4xNzctMC4wMTQtMC4yNjUtMC4wNDFsLTYuMTYzLTEuOTMmI3hhOyAgIGMtMC40NjctMC4xNDctMC43MjctMC42NDUtMC41ODEtMS4xMTNjMC4xNDYtMC40NjcsMC42NDYtMC43MjcsMS4xMTEtMC41ODJsNS4zNzksMS42ODZsMi4wMjEtNS4wNjYmI3hhOyAgIGMwLjE4Mi0wLjQ1NSwwLjY5OS0wLjY3OCwxLjE1My0wLjQ5NGMwLjQ1NSwwLjE4MiwwLjY3OCwwLjY5NywwLjQ5NiwxLjE1MmwtMi4zMjgsNS44MyYjeGE7ICAgQzMxLjUyOCwxMy4xMTcsMzEuMTk2LDEzLjMzMiwzMC44NDIsMTMuMzMyeiIvPiYjeGE7CTwvZz4mI3hhOwk8Zz4mI3hhOwkJPHBhdGggc3R5bGU9ImZpbGw6IzAxMDAwMjsiIGQ9Ik0wLjg4NywyOC4zMzJjLTAuMTA5LDAtMC4yMjEtMC4wMjEtMC4zMjgtMC4wNjVjLTAuNDU1LTAuMTgyLTAuNjc3LTAuNjk3LTAuNDk1LTEuMTUybDIuMzI3LTUuODMmI3hhOyAgIGMwLjE3Mi0wLjQzMiwwLjY0Ni0wLjY1OCwxLjA4OS0wLjUxOGw2LjE2MywxLjkzYzAuNDY4LDAuMTQ2LDAuNzI3LDAuNjQ0LDAuNTgxLDEuMTExYy0wLjE0NiwwLjQ2OS0wLjY0NSwwLjcyOS0xLjExMSwwLjU4MiYjeGE7ICAgbC01LjM3OC0xLjY4NGwtMi4wMjMsNS4wNjZDMS41NzMsMjguMTE5LDEuMjM5LDI4LjMzMiwwLjg4NywyOC4zMzJ6Ii8+JiN4YTsJPC9nPiYjeGE7PC9nPiYjeGE7PGc+JiN4YTs8L2c+JiN4YTs8Zz4mI3hhOzwvZz4mI3hhOzxnPiYjeGE7PC9nPiYjeGE7PGc+JiN4YTs8L2c+JiN4YTs8Zz4mI3hhOzwvZz4mI3hhOzxnPiYjeGE7PC9nPiYjeGE7PGc+JiN4YTs8L2c+JiN4YTs8Zz4mI3hhOzwvZz4mI3hhOzxnPiYjeGE7PC9nPiYjeGE7PGc+JiN4YTs8L2c+JiN4YTs8Zz4mI3hhOzwvZz4mI3hhOzxnPiYjeGE7PC9nPiYjeGE7PGc+JiN4YTs8L2c+JiN4YTs8Zz4mI3hhOzwvZz4mI3hhOzxnPiYjeGE7PC9nPiYjeGE7PC9zdmc+;" vertex="1" parent="1">
          <mxGeometry x="360" y="110" width="98.71" height="90" as="geometry" />
        </mxCell>
        <mxCell id="QCEu3e3ZRH2YqGN6N_Fb-7" value="" style="edgeStyle=orthogonalEdgeStyle;rounded=0;orthogonalLoop=1;jettySize=auto;html=1;" edge="1" parent="1" source="QCEu3e3ZRH2YqGN6N_Fb-4" target="QCEu3e3ZRH2YqGN6N_Fb-6">
          <mxGeometry relative="1" as="geometry" />
        </mxCell>
        <mxCell id="QCEu3e3ZRH2YqGN6N_Fb-4" value="" style="shape=image;imageAspect=0;aspect=fixed;verticalLabelPosition=bottom;verticalAlign=top;image=data:image/svg+xml,PHN2ZyB4bWxucz0iaHR0cDovL3d3dy53My5vcmcvMjAwMC9zdmciIHhtbG5zOnhsaW5rPSJodHRwOi8vd3d3LnczLm9yZy8xOTk5L3hsaW5rIiB2ZXJzaW9uPSIxLjEiIGlkPSJDYXBhXzEiIHg9IjBweCIgeT0iMHB4IiB2aWV3Qm94PSIwLjAwMDM5ODQzNDk2MDUxNjE2OTY3IDEuNTAwMDAwOTUzNjc0MzE2NCAzNC4wNTYwNjQ2MDU3MTI4OSAzMS4wNTc5OTg2NTcyMjY1NjIiIHN0eWxlPSJlbmFibGUtYmFja2dyb3VuZDpuZXcgMCAwIDM0LjA1NyAzNC4wNTc7IiB4bWw6c3BhY2U9InByZXNlcnZlIiB3aWR0aD0iMzQuMDU2MDY0NjA1NzEyODkiIGhlaWdodD0iMzEuMDU3OTk4NjU3MjI2NTYyIj4mI3hhOzxnPiYjeGE7CTxnPiYjeGE7CQk8cGF0aCBzdHlsZT0iZmlsbDojMDEwMDAyOyIgZD0iTTE3LjAyOCwzMi41NThjLTYuNjMyLDAtMTIuNTM0LTQuMjExLTE0LjY4OC0xMC40NzljLTAuMTYtMC40NjMsMC4wODctMC45NjksMC41NTEtMS4xMjcmI3hhOyAgIGMwLjQ2Mi0wLjE2LDAuOTY4LDAuMDg2LDEuMTI3LDAuNTUxYzEuOTA4LDUuNTUxLDcuMTM3LDkuMjc5LDEzLjAxMSw5LjI3OWM3LjU4NSwwLDEzLjc1NS02LjE3LDEzLjc1NS0xMy43NTQmI3hhOyAgIGMwLTAuNDksMC4zOTgtMC44ODksMC44ODgtMC44ODljMC40OSwwLDAuODg3LDAuMzk4LDAuODg3LDAuODg5QzMyLjU1OCwyNS41OTEsMjUuNTkyLDMyLjU1OCwxNy4wMjgsMzIuNTU4eiIvPiYjeGE7CTwvZz4mI3hhOwk8Zz4mI3hhOwkJPHBhdGggc3R5bGU9ImZpbGw6IzAxMDAwMjsiIGQ9Ik0yLjM4NiwxNy45MTZjLTAuNDg5LDAtMC44ODctMC4zOTYtMC44ODctMC44ODdjMC04LjU2Miw2Ljk2Ny0xNS41MjksMTUuNTI5LTE1LjUyOSYjeGE7ICAgYzYuNjMsMCwxMi41MzIsNC4yMDksMTQuNjg4LDEwLjQ3NWMwLjE1OSwwLjQ2My0wLjA4NywwLjk2OS0wLjU1MSwxLjEyOWMtMC40NjUsMC4xNTgtMC45NjktMC4wODgtMS4xMjgtMC41NTEmI3hhOyAgIGMtMS45MDktNS41NTEtNy4xMzctOS4yNzktMTMuMDEtOS4yNzljLTcuNTg0LDAtMTMuNzU1LDYuMTcyLTEzLjc1NSwxMy43NTZDMy4yNzMsMTcuNTE5LDIuODc2LDE3LjkxNiwyLjM4NiwxNy45MTZ6Ii8+JiN4YTsJPC9nPiYjeGE7CTxnPiYjeGE7CQk8cGF0aCBzdHlsZT0iZmlsbDojMDEwMDAyOyIgZD0iTTMwLjg0MiwxMy4zMzJjLTAuMDg3LDAtMC4xNzctMC4wMTQtMC4yNjUtMC4wNDFsLTYuMTYzLTEuOTMmI3hhOyAgIGMtMC40NjctMC4xNDctMC43MjctMC42NDUtMC41ODEtMS4xMTNjMC4xNDYtMC40NjcsMC42NDYtMC43MjcsMS4xMTEtMC41ODJsNS4zNzksMS42ODZsMi4wMjEtNS4wNjYmI3hhOyAgIGMwLjE4Mi0wLjQ1NSwwLjY5OS0wLjY3OCwxLjE1My0wLjQ5NGMwLjQ1NSwwLjE4MiwwLjY3OCwwLjY5NywwLjQ5NiwxLjE1MmwtMi4zMjgsNS44MyYjeGE7ICAgQzMxLjUyOCwxMy4xMTcsMzEuMTk2LDEzLjMzMiwzMC44NDIsMTMuMzMyeiIvPiYjeGE7CTwvZz4mI3hhOwk8Zz4mI3hhOwkJPHBhdGggc3R5bGU9ImZpbGw6IzAxMDAwMjsiIGQ9Ik0wLjg4NywyOC4zMzJjLTAuMTA5LDAtMC4yMjEtMC4wMjEtMC4zMjgtMC4wNjVjLTAuNDU1LTAuMTgyLTAuNjc3LTAuNjk3LTAuNDk1LTEuMTUybDIuMzI3LTUuODMmI3hhOyAgIGMwLjE3Mi0wLjQzMiwwLjY0Ni0wLjY1OCwxLjA4OS0wLjUxOGw2LjE2MywxLjkzYzAuNDY4LDAuMTQ2LDAuNzI3LDAuNjQ0LDAuNTgxLDEuMTExYy0wLjE0NiwwLjQ2OS0wLjY0NSwwLjcyOS0xLjExMSwwLjU4MiYjeGE7ICAgbC01LjM3OC0xLjY4NGwtMi4wMjMsNS4wNjZDMS41NzMsMjguMTE5LDEuMjM5LDI4LjMzMiwwLjg4NywyOC4zMzJ6Ii8+JiN4YTsJPC9nPiYjeGE7PC9nPiYjeGE7PGc+JiN4YTs8L2c+JiN4YTs8Zz4mI3hhOzwvZz4mI3hhOzxnPiYjeGE7PC9nPiYjeGE7PGc+JiN4YTs8L2c+JiN4YTs8Zz4mI3hhOzwvZz4mI3hhOzxnPiYjeGE7PC9nPiYjeGE7PGc+JiN4YTs8L2c+JiN4YTs8Zz4mI3hhOzwvZz4mI3hhOzxnPiYjeGE7PC9nPiYjeGE7PGc+JiN4YTs8L2c+JiN4YTs8Zz4mI3hhOzwvZz4mI3hhOzxnPiYjeGE7PC9nPiYjeGE7PGc+JiN4YTs8L2c+JiN4YTs8Zz4mI3hhOzwvZz4mI3hhOzxnPiYjeGE7PC9nPiYjeGE7PC9zdmc+;direction=west;" vertex="1" parent="1">
          <mxGeometry x="538.71" y="110" width="98.71" height="90" as="geometry" />
        </mxCell>
        <mxCell id="QCEu3e3ZRH2YqGN6N_Fb-6" value="" style="whiteSpace=wrap;html=1;verticalAlign=top;" vertex="1" parent="1">
          <mxGeometry x="420" y="295" width="310" height="175" as="geometry" />
        </mxCell>
      </root>
    </mxGraphModel>
  </diagram>
</mxfile>
